<?xml version="1.0" encoding="utf-8" standalone="no"?>
<!DOCTYPE svg PUBLIC "-//W3C//DTD SVG 1.1//EN"
  "http://www.w3.org/Graphics/SVG/1.1/DTD/svg11.dtd">
<svg xmlns:xlink="http://www.w3.org/1999/xlink" width="504pt" height="504pt" viewBox="0 0 504 504" xmlns="http://www.w3.org/2000/svg" version="1.1">
 <metadata>
  <rdf:RDF xmlns:dc="http://purl.org/dc/elements/1.1/" xmlns:cc="http://creativecommons.org/ns#" xmlns:rdf="http://www.w3.org/1999/02/22-rdf-syntax-ns#">
   <cc:Work>
    <dc:type rdf:resource="http://purl.org/dc/dcmitype/StillImage"/>
    <dc:date>2024-05-05T12:32:12.557085</dc:date>
    <dc:format>image/svg+xml</dc:format>
    <dc:creator>
     <cc:Agent>
      <dc:title>Matplotlib v3.8.3, https://matplotlib.org/</dc:title>
     </cc:Agent>
    </dc:creator>
   </cc:Work>
  </rdf:RDF>
 </metadata>
 <defs>
  <style type="text/css">*{stroke-linejoin: round; stroke-linecap: butt}</style>
 </defs>
 <g id="figure_1">
  <g id="patch_1">
   <path d="M 0 504 
L 504 504 
L 504 0 
L 0 0 
z
" style="fill: #ffffff"/>
  </g>
  <g id="axes_1">
   <g id="patch_2">
    <path d="M 452.34 351.54 
C 452.34 300.097129 431.882603 250.708603 395.507 214.333 
C 359.131397 177.957397 309.742871 157.5 258.3 157.5 
C 206.857129 157.5 157.468603 177.957397 121.093 214.333 
C 84.717397 250.708603 64.26 300.097129 64.26 351.54 
L 258.3 351.54 
C 258.3 351.54 258.3 351.54 258.3 351.54 
C 258.3 351.54 258.3 351.54 258.3 351.54 
C 258.3 351.54 258.3 351.54 258.3 351.54 
C 258.3 351.54 258.3 351.54 258.3 351.54 
z
" style="fill: #ffffff"/>
   </g>
   <g id="matplotlib.axis_1">
    <g id="xtick_1">
     <g id="line2d_1">
      <path d="M 258.3 351.54 
L 452.34 351.54 
" clip-path="url(#paa07e25ff3)" style="fill: none; stroke: #b0b0b0; stroke-width: 0.8; stroke-linecap: square"/>
     </g>
     <g id="text_1">
      <!-- -90° -->
      <g transform="translate(455.673594 354.299375) scale(0.1 -0.1)">
       <defs>
        <path id="DejaVuSans-2d" d="M 313 2009 
L 1997 2009 
L 1997 1497 
L 313 1497 
L 313 2009 
z
" transform="scale(0.015625)"/>
        <path id="DejaVuSans-39" d="M 703 97 
L 703 672 
Q 941 559 1184 500 
Q 1428 441 1663 441 
Q 2288 441 2617 861 
Q 2947 1281 2994 2138 
Q 2813 1869 2534 1725 
Q 2256 1581 1919 1581 
Q 1219 1581 811 2004 
Q 403 2428 403 3163 
Q 403 3881 828 4315 
Q 1253 4750 1959 4750 
Q 2769 4750 3195 4129 
Q 3622 3509 3622 2328 
Q 3622 1225 3098 567 
Q 2575 -91 1691 -91 
Q 1453 -91 1209 -44 
Q 966 3 703 97 
z
M 1959 2075 
Q 2384 2075 2632 2365 
Q 2881 2656 2881 3163 
Q 2881 3666 2632 3958 
Q 2384 4250 1959 4250 
Q 1534 4250 1286 3958 
Q 1038 3666 1038 3163 
Q 1038 2656 1286 2365 
Q 1534 2075 1959 2075 
z
" transform="scale(0.015625)"/>
        <path id="DejaVuSans-30" d="M 2034 4250 
Q 1547 4250 1301 3770 
Q 1056 3291 1056 2328 
Q 1056 1369 1301 889 
Q 1547 409 2034 409 
Q 2525 409 2770 889 
Q 3016 1369 3016 2328 
Q 3016 3291 2770 3770 
Q 2525 4250 2034 4250 
z
M 2034 4750 
Q 2819 4750 3233 4129 
Q 3647 3509 3647 2328 
Q 3647 1150 3233 529 
Q 2819 -91 2034 -91 
Q 1250 -91 836 529 
Q 422 1150 422 2328 
Q 422 3509 836 4129 
Q 1250 4750 2034 4750 
z
" transform="scale(0.015625)"/>
        <path id="DejaVuSans-b0" d="M 1600 4347 
Q 1350 4347 1178 4173 
Q 1006 4000 1006 3750 
Q 1006 3503 1178 3333 
Q 1350 3163 1600 3163 
Q 1850 3163 2022 3333 
Q 2194 3503 2194 3750 
Q 2194 3997 2020 4172 
Q 1847 4347 1600 4347 
z
M 1600 4750 
Q 1800 4750 1984 4673 
Q 2169 4597 2303 4453 
Q 2447 4313 2519 4134 
Q 2591 3956 2591 3750 
Q 2591 3338 2302 3052 
Q 2013 2766 1594 2766 
Q 1172 2766 890 3047 
Q 609 3328 609 3750 
Q 609 4169 896 4459 
Q 1184 4750 1600 4750 
z
" transform="scale(0.015625)"/>
       </defs>
       <use xlink:href="#DejaVuSans-2d"/>
       <use xlink:href="#DejaVuSans-39" x="36.083984"/>
       <use xlink:href="#DejaVuSans-30" x="99.707031"/>
       <use xlink:href="#DejaVuSans-b0" x="163.330078"/>
      </g>
     </g>
    </g>
    <g id="xtick_2">
     <g id="line2d_2">
      <path d="M 258.3 351.54 
L 426.343569 254.52 
" clip-path="url(#paa07e25ff3)" style="fill: none; stroke: #b0b0b0; stroke-width: 0.8; stroke-linecap: square"/>
     </g>
     <g id="text_2">
      <!-- -60° -->
      <g transform="translate(427.801519 250.279375) scale(0.1 -0.1)">
       <defs>
        <path id="DejaVuSans-36" d="M 2113 2584 
Q 1688 2584 1439 2293 
Q 1191 2003 1191 1497 
Q 1191 994 1439 701 
Q 1688 409 2113 409 
Q 2538 409 2786 701 
Q 3034 994 3034 1497 
Q 3034 2003 2786 2293 
Q 2538 2584 2113 2584 
z
M 3366 4563 
L 3366 3988 
Q 3128 4100 2886 4159 
Q 2644 4219 2406 4219 
Q 1781 4219 1451 3797 
Q 1122 3375 1075 2522 
Q 1259 2794 1537 2939 
Q 1816 3084 2150 3084 
Q 2853 3084 3261 2657 
Q 3669 2231 3669 1497 
Q 3669 778 3244 343 
Q 2819 -91 2113 -91 
Q 1303 -91 875 529 
Q 447 1150 447 2328 
Q 447 3434 972 4092 
Q 1497 4750 2381 4750 
Q 2619 4750 2861 4703 
Q 3103 4656 3366 4563 
z
" transform="scale(0.015625)"/>
       </defs>
       <use xlink:href="#DejaVuSans-2d"/>
       <use xlink:href="#DejaVuSans-36" x="36.083984"/>
       <use xlink:href="#DejaVuSans-30" x="99.707031"/>
       <use xlink:href="#DejaVuSans-b0" x="163.330078"/>
      </g>
     </g>
    </g>
    <g id="xtick_3">
     <g id="line2d_3">
      <path d="M 258.3 351.54 
L 355.32 183.496431 
" clip-path="url(#paa07e25ff3)" style="fill: none; stroke: #b0b0b0; stroke-width: 0.8; stroke-linecap: square"/>
     </g>
     <g id="text_3">
      <!-- -30° -->
      <g transform="translate(351.653594 174.13145) scale(0.1 -0.1)">
       <defs>
        <path id="DejaVuSans-33" d="M 2597 2516 
Q 3050 2419 3304 2112 
Q 3559 1806 3559 1356 
Q 3559 666 3084 287 
Q 2609 -91 1734 -91 
Q 1441 -91 1130 -33 
Q 819 25 488 141 
L 488 750 
Q 750 597 1062 519 
Q 1375 441 1716 441 
Q 2309 441 2620 675 
Q 2931 909 2931 1356 
Q 2931 1769 2642 2001 
Q 2353 2234 1838 2234 
L 1294 2234 
L 1294 2753 
L 1863 2753 
Q 2328 2753 2575 2939 
Q 2822 3125 2822 3475 
Q 2822 3834 2567 4026 
Q 2313 4219 1838 4219 
Q 1578 4219 1281 4162 
Q 984 4106 628 3988 
L 628 4550 
Q 988 4650 1302 4700 
Q 1616 4750 1894 4750 
Q 2613 4750 3031 4423 
Q 3450 4097 3450 3541 
Q 3450 3153 3228 2886 
Q 3006 2619 2597 2516 
z
" transform="scale(0.015625)"/>
       </defs>
       <use xlink:href="#DejaVuSans-2d"/>
       <use xlink:href="#DejaVuSans-33" x="36.083984"/>
       <use xlink:href="#DejaVuSans-30" x="99.707031"/>
       <use xlink:href="#DejaVuSans-b0" x="163.330078"/>
      </g>
     </g>
    </g>
    <g id="xtick_4">
     <g id="line2d_4">
      <path d="M 258.3 351.54 
L 258.3 157.5 
" clip-path="url(#paa07e25ff3)" style="fill: none; stroke: #b0b0b0; stroke-width: 0.8; stroke-linecap: square"/>
     </g>
     <g id="text_4">
      <!-- 0° -->
      <g transform="translate(252.61875 146.259375) scale(0.1 -0.1)">
       <use xlink:href="#DejaVuSans-30"/>
       <use xlink:href="#DejaVuSans-b0" x="63.623047"/>
      </g>
     </g>
    </g>
    <g id="xtick_5">
     <g id="line2d_5">
      <path d="M 258.3 351.54 
L 161.28 183.496431 
" clip-path="url(#paa07e25ff3)" style="fill: none; stroke: #b0b0b0; stroke-width: 0.8; stroke-linecap: square"/>
     </g>
     <g id="text_5">
      <!-- 30° -->
      <g transform="translate(145.4175 174.13145) scale(0.1 -0.1)">
       <use xlink:href="#DejaVuSans-33"/>
       <use xlink:href="#DejaVuSans-30" x="63.623047"/>
       <use xlink:href="#DejaVuSans-b0" x="127.246094"/>
      </g>
     </g>
    </g>
    <g id="xtick_6">
     <g id="line2d_6">
      <path d="M 258.3 351.54 
L 90.256431 254.52 
" clip-path="url(#paa07e25ff3)" style="fill: none; stroke: #b0b0b0; stroke-width: 0.8; stroke-linecap: square"/>
     </g>
     <g id="text_6">
      <!-- 60° -->
      <g transform="translate(69.269575 250.279375) scale(0.1 -0.1)">
       <use xlink:href="#DejaVuSans-36"/>
       <use xlink:href="#DejaVuSans-30" x="63.623047"/>
       <use xlink:href="#DejaVuSans-b0" x="127.246094"/>
      </g>
     </g>
    </g>
    <g id="xtick_7">
     <g id="line2d_7">
      <path d="M 258.3 351.54 
L 64.26 351.54 
" clip-path="url(#paa07e25ff3)" style="fill: none; stroke: #b0b0b0; stroke-width: 0.8; stroke-linecap: square"/>
     </g>
     <g id="text_7">
      <!-- 90° -->
      <g transform="translate(41.3975 354.299375) scale(0.1 -0.1)">
       <use xlink:href="#DejaVuSans-39"/>
       <use xlink:href="#DejaVuSans-30" x="63.623047"/>
       <use xlink:href="#DejaVuSans-b0" x="127.246094"/>
      </g>
     </g>
    </g>
   </g>
   <g id="matplotlib.axis_2">
    <g id="ytick_1">
     <g id="line2d_8">
      <path d="M 258.3 351.54 
C 258.3 351.54 258.3 351.54 258.3 351.54 
C 258.3 351.54 258.3 351.54 258.3 351.54 
C 258.3 351.54 258.3 351.54 258.3 351.54 
C 258.3 351.54 258.3 351.54 258.3 351.54 
" clip-path="url(#paa07e25ff3)" style="fill: none; stroke: #b0b0b0; stroke-width: 0.8; stroke-linecap: square"/>
     </g>
     <g id="text_8">
      <!-- −100 -->
      <g transform="translate(244.566406 366.138438) scale(0.1 -0.1)">
       <defs>
        <path id="DejaVuSans-2212" d="M 678 2272 
L 4684 2272 
L 4684 1741 
L 678 1741 
L 678 2272 
z
" transform="scale(0.015625)"/>
        <path id="DejaVuSans-31" d="M 794 531 
L 1825 531 
L 1825 4091 
L 703 3866 
L 703 4441 
L 1819 4666 
L 2450 4666 
L 2450 531 
L 3481 531 
L 3481 0 
L 794 0 
L 794 531 
z
" transform="scale(0.015625)"/>
       </defs>
       <use xlink:href="#DejaVuSans-2212"/>
       <use xlink:href="#DejaVuSans-31" x="83.789062"/>
       <use xlink:href="#DejaVuSans-30" x="147.412109"/>
       <use xlink:href="#DejaVuSans-30" x="211.035156"/>
      </g>
     </g>
    </g>
    <g id="ytick_2">
     <g id="line2d_9">
      <path d="M 219.492 351.54 
C 219.492 341.251426 223.583479 331.373721 230.8586 324.0986 
C 238.133721 316.823479 248.011426 312.732 258.3 312.732 
C 268.588574 312.732 278.466279 316.823479 285.7414 324.0986 
C 293.016521 331.373721 297.108 341.251426 297.108 351.54 
" clip-path="url(#paa07e25ff3)" style="fill: none; stroke: #b0b0b0; stroke-width: 0.8; stroke-linecap: square"/>
     </g>
     <g id="text_9">
      <!-- −80 -->
      <g transform="translate(208.939656 366.138438) scale(0.1 -0.1)">
       <defs>
        <path id="DejaVuSans-38" d="M 2034 2216 
Q 1584 2216 1326 1975 
Q 1069 1734 1069 1313 
Q 1069 891 1326 650 
Q 1584 409 2034 409 
Q 2484 409 2743 651 
Q 3003 894 3003 1313 
Q 3003 1734 2745 1975 
Q 2488 2216 2034 2216 
z
M 1403 2484 
Q 997 2584 770 2862 
Q 544 3141 544 3541 
Q 544 4100 942 4425 
Q 1341 4750 2034 4750 
Q 2731 4750 3128 4425 
Q 3525 4100 3525 3541 
Q 3525 3141 3298 2862 
Q 3072 2584 2669 2484 
Q 3125 2378 3379 2068 
Q 3634 1759 3634 1313 
Q 3634 634 3220 271 
Q 2806 -91 2034 -91 
Q 1263 -91 848 271 
Q 434 634 434 1313 
Q 434 1759 690 2068 
Q 947 2378 1403 2484 
z
M 1172 3481 
Q 1172 3119 1398 2916 
Q 1625 2713 2034 2713 
Q 2441 2713 2670 2916 
Q 2900 3119 2900 3481 
Q 2900 3844 2670 4047 
Q 2441 4250 2034 4250 
Q 1625 4250 1398 4047 
Q 1172 3844 1172 3481 
z
" transform="scale(0.015625)"/>
       </defs>
       <use xlink:href="#DejaVuSans-2212"/>
       <use xlink:href="#DejaVuSans-38" x="83.789062"/>
       <use xlink:href="#DejaVuSans-30" x="147.412109"/>
      </g>
     </g>
    </g>
    <g id="ytick_3">
     <g id="line2d_10">
      <path d="M 180.684 351.54 
C 180.684 330.962852 188.866959 311.207441 203.4172 296.6572 
C 217.967441 282.106959 237.722852 273.924 258.3 273.924 
C 278.877148 273.924 298.632559 282.106959 313.1828 296.6572 
C 327.733041 311.207441 335.916 330.962852 335.916 351.54 
" clip-path="url(#paa07e25ff3)" style="fill: none; stroke: #b0b0b0; stroke-width: 0.8; stroke-linecap: square"/>
     </g>
     <g id="text_10">
      <!-- −60 -->
      <g transform="translate(170.131656 366.138438) scale(0.1 -0.1)">
       <use xlink:href="#DejaVuSans-2212"/>
       <use xlink:href="#DejaVuSans-36" x="83.789062"/>
       <use xlink:href="#DejaVuSans-30" x="147.412109"/>
      </g>
     </g>
    </g>
    <g id="ytick_4">
     <g id="line2d_11">
      <path d="M 141.876 351.54 
C 141.876 320.674278 154.150438 291.041162 175.9758 269.2158 
C 197.801162 247.390438 227.434278 235.116 258.3 235.116 
C 289.165722 235.116 318.798838 247.390438 340.6242 269.2158 
C 362.449562 291.041162 374.724 320.674278 374.724 351.54 
" clip-path="url(#paa07e25ff3)" style="fill: none; stroke: #b0b0b0; stroke-width: 0.8; stroke-linecap: square"/>
     </g>
     <g id="text_11">
      <!-- −40 -->
      <g transform="translate(131.323656 366.138438) scale(0.1 -0.1)">
       <defs>
        <path id="DejaVuSans-34" d="M 2419 4116 
L 825 1625 
L 2419 1625 
L 2419 4116 
z
M 2253 4666 
L 3047 4666 
L 3047 1625 
L 3713 1625 
L 3713 1100 
L 3047 1100 
L 3047 0 
L 2419 0 
L 2419 1100 
L 313 1100 
L 313 1709 
L 2253 4666 
z
" transform="scale(0.015625)"/>
       </defs>
       <use xlink:href="#DejaVuSans-2212"/>
       <use xlink:href="#DejaVuSans-34" x="83.789062"/>
       <use xlink:href="#DejaVuSans-30" x="147.412109"/>
      </g>
     </g>
    </g>
    <g id="ytick_5">
     <g id="line2d_12">
      <path d="M 103.068 351.54 
C 103.068 310.385703 119.433918 270.874882 148.5344 241.7744 
C 177.634882 212.673918 217.145703 196.308 258.3 196.308 
C 299.454297 196.308 338.965118 212.673918 368.0656 241.7744 
C 397.166082 270.874882 413.532 310.385703 413.532 351.54 
" clip-path="url(#paa07e25ff3)" style="fill: none; stroke: #b0b0b0; stroke-width: 0.8; stroke-linecap: square"/>
     </g>
     <g id="text_12">
      <!-- −20 -->
      <g transform="translate(92.515656 366.138438) scale(0.1 -0.1)">
       <defs>
        <path id="DejaVuSans-32" d="M 1228 531 
L 3431 531 
L 3431 0 
L 469 0 
L 469 531 
Q 828 903 1448 1529 
Q 2069 2156 2228 2338 
Q 2531 2678 2651 2914 
Q 2772 3150 2772 3378 
Q 2772 3750 2511 3984 
Q 2250 4219 1831 4219 
Q 1534 4219 1204 4116 
Q 875 4013 500 3803 
L 500 4441 
Q 881 4594 1212 4672 
Q 1544 4750 1819 4750 
Q 2544 4750 2975 4387 
Q 3406 4025 3406 3419 
Q 3406 3131 3298 2873 
Q 3191 2616 2906 2266 
Q 2828 2175 2409 1742 
Q 1991 1309 1228 531 
z
" transform="scale(0.015625)"/>
       </defs>
       <use xlink:href="#DejaVuSans-2212"/>
       <use xlink:href="#DejaVuSans-32" x="83.789062"/>
       <use xlink:href="#DejaVuSans-30" x="147.412109"/>
      </g>
     </g>
    </g>
    <g id="ytick_6">
     <g id="line2d_13">
      <path d="M 64.26 351.54 
C 64.26 300.097129 84.717397 250.708603 121.093 214.333 
C 157.468603 177.957397 206.857129 157.5 258.3 157.5 
C 309.742871 157.5 359.131397 177.957397 395.507 214.333 
C 431.882603 250.708603 452.34 300.097129 452.34 351.54 
" clip-path="url(#paa07e25ff3)" style="fill: none; stroke: #b0b0b0; stroke-width: 0.8; stroke-linecap: square"/>
     </g>
     <g id="text_13">
      <!-- 0 -->
      <g transform="translate(61.07875 366.138438) scale(0.1 -0.1)">
       <use xlink:href="#DejaVuSans-30"/>
      </g>
     </g>
    </g>
   </g>
   <g id="line2d_14">
    <path d="M 283.247698 351.54 
L 283.159534 351.071353 
L 282.890719 350.612512 
L 282.427784 350.17415 
L 281.746466 349.768821 
L 280.80841 349.412329 
L 279.555018 349.125812 
L 277.895818 348.939282 
L 275.684962 348.898356 
L 272.668391 349.078804 
L 268.343739 349.624054 
L 264.193581 350.338795 
L 261.472557 350.872594 
M 260.938219 350.827166 
L 267.95042 348.801928 
L 273.01861 347.163378 
L 278.692276 345.055516 
L 282.983328 343.17555 
L 286.370443 341.434019 
L 289.089751 339.794851 
L 291.270062 338.245998 
L 292.984081 336.788896 
L 294.270838 335.434395 
L 295.146019 334.201579 
L 295.606078 333.118388 
L 295.671728 332.498153 
L 295.530776 331.976824 
L 295.164931 331.573933 
L 294.547824 331.314973 
L 293.64129 331.234269 
L 292.388766 331.37996 
L 290.702806 331.82329 
L 288.439229 332.67765 
L 285.336255 334.143024 
L 280.840098 336.632347 
L 277.680455 338.546313 
L 273.402935 341.276056 
L 266.90971 345.609426 
M 265.87064 346.111956 
L 273.39788 340.570748 
L 281.817859 333.997555 
L 286.881375 329.656254 
L 290.369967 326.339658 
L 292.896845 323.643799 
L 294.743722 321.391131 
L 296.059657 319.494816 
L 296.928511 317.913372 
L 297.396425 316.632846 
L 297.483668 315.659938 
L 297.384918 315.296252 
L 297.18872 315.021061 
L 296.891231 314.841407 
L 296.48671 314.766425 
L 295.967052 314.807924 
L 294.533278 315.306722 
L 292.437532 316.533533 
L 289.364187 318.873756 
L 287.254484 320.706607 
L 284.522737 323.261647 
L 280.746295 327.026994 
L 274.776958 333.317381 
L 260.363903 349.228404 
L 266.460389 342.283855 
L 277.221405 329.804079 
L 282.584528 323.286689 
L 286.127321 318.75036 
L 290.732283 312.336105 
L 293.612344 307.745661 
L 295.490605 304.211219 
L 296.669596 301.427197 
L 297.298095 299.258138 
L 297.450932 297.653366 
L 297.359552 297.062587 
L 297.157172 296.619408 
L 296.841439 296.33322 
L 296.407221 296.217849 
L 295.845927 296.292846 
L 295.144342 296.585611 
L 294.282619 297.13494 
L 293.23077 297.997171 
L 291.94212 299.257525 
L 290.340124 301.052843 
L 288.288445 303.622927 
L 285.51018 307.448546 
L 281.296877 313.746506 
L 270.719333 330.540055 
L 280.927648 312.724165 
L 285.375966 304.415394 
L 288.165012 298.796736 
L 290.128427 294.496259 
L 291.584095 290.996455 
L 293.527752 285.508818 
L 294.615126 281.361148 
L 295.098638 278.182778 
L 295.0981 275.824579 
L 294.934905 274.939863 
L 294.666946 274.256306 
L 294.293636 273.785242 
L 293.811293 273.545443 
L 293.212381 273.565428 
L 292.484075 273.887547 
L 291.605592 274.575318 
L 290.543082 275.727258 
L 289.239025 277.505302 
L 287.587394 280.200895 
L 285.363467 284.420697 
L 281.949445 291.808321 
L 273.929164 311.328896 
L 282.913755 285.77751 
L 285.571439 277.258413 
L 287.210416 271.238231 
L 288.309399 266.513204 
L 289.063459 262.600036 
L 289.571859 259.257357 
L 289.892096 256.348825 
L 290.100847 251.533323 
L 289.859622 247.795264 
L 289.597414 246.286575 
L 289.248454 245.014721 
L 288.815164 243.988346 
L 288.297348 243.226253 
L 287.691759 242.760287 
L 286.991078 242.640851 
L 286.181857 242.947337 
L 285.240287 243.808869 
L 284.122785 245.449751 
L 282.741722 248.305213 
L 280.885706 253.398018 
L 277.795688 264.321306 
L 271.744977 289.564026 
L 278.579841 255.138496 
L 280.419091 243.015111 
L 281.314217 234.882328 
L 281.769068 228.510839 
L 281.957716 223.144155 
L 281.962136 218.432425 
L 281.827937 214.184611 
L 281.247192 206.657135 
L 280.349704 200.024539 
L 279.205943 194.01846 
L 277.858154 188.488663 
L 276.333888 183.34832 
L 274.652194 178.551852 
L 272.826963 174.086635 
L 270.869118 169.971725 
L 268.788515 166.260072 
L 266.59598 163.040741 
L 265.461968 161.652901 
L 264.305685 160.436003 
L 263.129817 159.408135 
L 261.937514 158.586763 
L 260.732381 157.987454 
L 259.518435 157.62255 
L 258.3 157.5 
L 257.081565 157.62255 
L 255.867619 157.987454 
L 254.662486 158.586763 
L 253.470183 159.408135 
L 252.294315 160.436003 
L 251.138032 161.652901 
L 250.00402 163.040741 
L 247.811485 166.260072 
L 245.730882 169.971725 
L 243.773037 174.086635 
L 241.947806 178.551852 
L 240.266112 183.34832 
L 238.741846 188.488663 
L 237.394057 194.01846 
L 236.250296 200.024539 
L 235.352808 206.657135 
L 235.016652 210.28476 
L 234.772063 214.184611 
L 234.637864 218.432425 
L 234.642284 223.144155 
L 234.830932 228.510839 
L 235.285783 234.882328 
L 236.180909 243.015111 
L 238.020159 255.138496 
L 244.855023 289.564026 
L 238.804312 264.321306 
L 235.714294 253.398018 
L 233.858278 248.305213 
L 232.477215 245.449751 
L 231.359713 243.808869 
L 230.418143 242.947337 
L 229.608922 242.640851 
L 228.908241 242.760287 
L 228.302652 243.226253 
L 227.784836 243.988346 
L 227.351546 245.014721 
L 227.002586 246.286575 
L 226.740378 247.795264 
L 226.56993 249.541087 
L 226.499153 251.533323 
L 226.539611 253.791573 
L 226.707904 256.348825 
L 227.028141 259.257357 
L 227.536541 262.600036 
L 228.290601 266.513204 
L 229.389584 271.238231 
L 231.028561 277.258413 
L 233.686245 285.77751 
L 242.670836 311.328896 
L 234.650555 291.808321 
L 231.236533 284.420697 
L 229.012606 280.200895 
L 227.360975 277.505302 
L 226.056918 275.727258 
L 224.994408 274.575318 
L 224.115925 273.887547 
L 223.387619 273.565428 
L 222.788707 273.545443 
L 222.306364 273.785242 
L 221.933054 274.256306 
L 221.665095 274.939863 
L 221.5019 275.824579 
L 221.445662 276.905335 
L 221.677112 279.663534 
L 222.441758 283.298002 
L 223.072248 285.508818 
L 223.912143 288.046977 
L 225.015905 290.996455 
L 226.471573 294.496259 
L 228.434988 298.796736 
L 231.224034 304.415394 
L 235.672352 312.724165 
L 245.880667 330.540055 
L 244.07104 327.821542 
L 235.303123 313.746506 
L 231.08982 307.448546 
L 228.311555 303.622927 
L 226.259876 301.052843 
L 224.65788 299.257525 
L 223.36923 297.997171 
L 222.317381 297.13494 
L 221.455658 296.585611 
L 220.754073 296.292846 
L 220.192779 296.217849 
L 219.758561 296.33322 
L 219.442828 296.619408 
L 219.240448 297.062587 
L 219.149068 297.653366 
L 219.301905 299.258138 
L 219.930404 301.427197 
L 221.109395 304.211219 
L 222.987656 307.745661 
L 225.867717 312.336105 
L 227.874717 315.229108 
L 230.472679 318.75036 
L 234.015472 323.286689 
L 239.378595 329.804079 
L 256.236097 349.228404 
L 241.823042 333.317381 
L 235.853705 327.026994 
L 232.077263 323.261647 
L 227.235813 318.873756 
L 224.162468 316.533533 
L 222.066722 315.306722 
L 220.632948 314.807924 
L 219.708769 314.841407 
L 219.41128 315.021061 
L 219.215082 315.296252 
L 219.116332 315.659938 
L 219.203575 316.632846 
L 219.671489 317.913372 
L 220.540343 319.494816 
L 221.856278 321.391131 
L 223.703155 323.643799 
L 226.230033 326.339658 
L 229.718625 329.656254 
L 234.782141 333.997555 
L 238.346974 336.850851 
L 243.20212 340.570748 
L 250.72936 346.111956 
M 249.69029 345.609426 
L 238.919545 338.546313 
L 233.280914 335.217815 
L 229.583153 333.315735 
L 226.944317 332.189452 
L 224.992806 331.558654 
L 223.53719 331.275059 
L 222.466267 331.249734 
L 221.710164 331.424568 
L 221.22261 331.759147 
L 220.971938 332.22402 
L 220.936166 332.796948 
L 221.100162 333.46068 
L 221.700139 334.597473 
L 222.711991 335.873487 
L 224.138404 337.263904 
L 226.002146 338.752375 
L 228.351904 340.330949 
L 231.27569 342.002027 
L 234.930057 343.783971 
L 239.609444 345.725697 
L 243.58139 347.163378 
L 248.64958 348.801928 
L 255.661781 350.827166 
M 255.127443 350.872594 
L 248.256261 349.624054 
L 243.931609 349.078804 
L 240.915038 348.898356 
L 238.704182 348.939282 
L 236.587403 349.211927 
L 235.135296 349.643655 
L 234.172216 350.17415 
L 233.598972 350.763739 
L 233.362063 351.383308 
L 233.352302 351.54 
L 233.352302 351.54 
" clip-path="url(#paa07e25ff3)" style="fill: none; stroke: #0000ff; stroke-width: 1.5; stroke-linecap: square"/>
   </g>
   <g id="patch_3">
    <path d="M 452.34 351.54 
C 452.34 300.097129 431.882603 250.708603 395.507 214.333 
C 359.131397 177.957397 309.742871 157.5 258.3 157.5 
C 206.857129 157.5 157.468603 177.957397 121.093 214.333 
C 84.717397 250.708603 64.26 300.097129 64.26 351.54 
" style="fill: none; stroke: #000000; stroke-width: 0.8; stroke-linejoin: miter; stroke-linecap: square"/>
   </g>
   <g id="patch_4">
    <path d="M 258.3 351.54 
L 64.26 351.54 
" style="fill: none; stroke: #000000; stroke-width: 0.8; stroke-linejoin: miter; stroke-linecap: square"/>
   </g>
   <g id="patch_5">
    <path d="M 258.3 351.54 
L 452.34 351.54 
" style="fill: none; stroke: #000000; stroke-width: 0.8; stroke-linejoin: miter; stroke-linecap: square"/>
   </g>
   <g id="text_14">
    <!-- $LP_{01}$ x-polarized far-field irradiance (normalized to max) -->
    <g transform="translate(90.24 84.522625) scale(0.12 -0.12)">
     <defs>
      <path id="DejaVuSans-Oblique-4c" d="M 1075 4666 
L 1709 4666 
L 909 525 
L 3181 525 
L 3078 0 
L 172 0 
L 1075 4666 
z
" transform="scale(0.015625)"/>
      <path id="DejaVuSans-Oblique-50" d="M 1081 4666 
L 2541 4666 
Q 3178 4666 3512 4369 
Q 3847 4072 3847 3500 
Q 3847 2731 3353 2303 
Q 2859 1875 1966 1875 
L 1172 1875 
L 806 0 
L 172 0 
L 1081 4666 
z
M 1613 4147 
L 1275 2394 
L 2069 2394 
Q 2606 2394 2893 2669 
Q 3181 2944 3181 3456 
Q 3181 3784 2986 3965 
Q 2791 4147 2438 4147 
L 1613 4147 
z
" transform="scale(0.015625)"/>
      <path id="DejaVuSans-20" transform="scale(0.015625)"/>
      <path id="DejaVuSans-78" d="M 3513 3500 
L 2247 1797 
L 3578 0 
L 2900 0 
L 1881 1375 
L 863 0 
L 184 0 
L 1544 1831 
L 300 3500 
L 978 3500 
L 1906 2253 
L 2834 3500 
L 3513 3500 
z
" transform="scale(0.015625)"/>
      <path id="DejaVuSans-70" d="M 1159 525 
L 1159 -1331 
L 581 -1331 
L 581 3500 
L 1159 3500 
L 1159 2969 
Q 1341 3281 1617 3432 
Q 1894 3584 2278 3584 
Q 2916 3584 3314 3078 
Q 3713 2572 3713 1747 
Q 3713 922 3314 415 
Q 2916 -91 2278 -91 
Q 1894 -91 1617 61 
Q 1341 213 1159 525 
z
M 3116 1747 
Q 3116 2381 2855 2742 
Q 2594 3103 2138 3103 
Q 1681 3103 1420 2742 
Q 1159 2381 1159 1747 
Q 1159 1113 1420 752 
Q 1681 391 2138 391 
Q 2594 391 2855 752 
Q 3116 1113 3116 1747 
z
" transform="scale(0.015625)"/>
      <path id="DejaVuSans-6f" d="M 1959 3097 
Q 1497 3097 1228 2736 
Q 959 2375 959 1747 
Q 959 1119 1226 758 
Q 1494 397 1959 397 
Q 2419 397 2687 759 
Q 2956 1122 2956 1747 
Q 2956 2369 2687 2733 
Q 2419 3097 1959 3097 
z
M 1959 3584 
Q 2709 3584 3137 3096 
Q 3566 2609 3566 1747 
Q 3566 888 3137 398 
Q 2709 -91 1959 -91 
Q 1206 -91 779 398 
Q 353 888 353 1747 
Q 353 2609 779 3096 
Q 1206 3584 1959 3584 
z
" transform="scale(0.015625)"/>
      <path id="DejaVuSans-6c" d="M 603 4863 
L 1178 4863 
L 1178 0 
L 603 0 
L 603 4863 
z
" transform="scale(0.015625)"/>
      <path id="DejaVuSans-61" d="M 2194 1759 
Q 1497 1759 1228 1600 
Q 959 1441 959 1056 
Q 959 750 1161 570 
Q 1363 391 1709 391 
Q 2188 391 2477 730 
Q 2766 1069 2766 1631 
L 2766 1759 
L 2194 1759 
z
M 3341 1997 
L 3341 0 
L 2766 0 
L 2766 531 
Q 2569 213 2275 61 
Q 1981 -91 1556 -91 
Q 1019 -91 701 211 
Q 384 513 384 1019 
Q 384 1609 779 1909 
Q 1175 2209 1959 2209 
L 2766 2209 
L 2766 2266 
Q 2766 2663 2505 2880 
Q 2244 3097 1772 3097 
Q 1472 3097 1187 3025 
Q 903 2953 641 2809 
L 641 3341 
Q 956 3463 1253 3523 
Q 1550 3584 1831 3584 
Q 2591 3584 2966 3190 
Q 3341 2797 3341 1997 
z
" transform="scale(0.015625)"/>
      <path id="DejaVuSans-72" d="M 2631 2963 
Q 2534 3019 2420 3045 
Q 2306 3072 2169 3072 
Q 1681 3072 1420 2755 
Q 1159 2438 1159 1844 
L 1159 0 
L 581 0 
L 581 3500 
L 1159 3500 
L 1159 2956 
Q 1341 3275 1631 3429 
Q 1922 3584 2338 3584 
Q 2397 3584 2469 3576 
Q 2541 3569 2628 3553 
L 2631 2963 
z
" transform="scale(0.015625)"/>
      <path id="DejaVuSans-69" d="M 603 3500 
L 1178 3500 
L 1178 0 
L 603 0 
L 603 3500 
z
M 603 4863 
L 1178 4863 
L 1178 4134 
L 603 4134 
L 603 4863 
z
" transform="scale(0.015625)"/>
      <path id="DejaVuSans-7a" d="M 353 3500 
L 3084 3500 
L 3084 2975 
L 922 459 
L 3084 459 
L 3084 0 
L 275 0 
L 275 525 
L 2438 3041 
L 353 3041 
L 353 3500 
z
" transform="scale(0.015625)"/>
      <path id="DejaVuSans-65" d="M 3597 1894 
L 3597 1613 
L 953 1613 
Q 991 1019 1311 708 
Q 1631 397 2203 397 
Q 2534 397 2845 478 
Q 3156 559 3463 722 
L 3463 178 
Q 3153 47 2828 -22 
Q 2503 -91 2169 -91 
Q 1331 -91 842 396 
Q 353 884 353 1716 
Q 353 2575 817 3079 
Q 1281 3584 2069 3584 
Q 2775 3584 3186 3129 
Q 3597 2675 3597 1894 
z
M 3022 2063 
Q 3016 2534 2758 2815 
Q 2500 3097 2075 3097 
Q 1594 3097 1305 2825 
Q 1016 2553 972 2059 
L 3022 2063 
z
" transform="scale(0.015625)"/>
      <path id="DejaVuSans-64" d="M 2906 2969 
L 2906 4863 
L 3481 4863 
L 3481 0 
L 2906 0 
L 2906 525 
Q 2725 213 2448 61 
Q 2172 -91 1784 -91 
Q 1150 -91 751 415 
Q 353 922 353 1747 
Q 353 2572 751 3078 
Q 1150 3584 1784 3584 
Q 2172 3584 2448 3432 
Q 2725 3281 2906 2969 
z
M 947 1747 
Q 947 1113 1208 752 
Q 1469 391 1925 391 
Q 2381 391 2643 752 
Q 2906 1113 2906 1747 
Q 2906 2381 2643 2742 
Q 2381 3103 1925 3103 
Q 1469 3103 1208 2742 
Q 947 2381 947 1747 
z
" transform="scale(0.015625)"/>
      <path id="DejaVuSans-66" d="M 2375 4863 
L 2375 4384 
L 1825 4384 
Q 1516 4384 1395 4259 
Q 1275 4134 1275 3809 
L 1275 3500 
L 2222 3500 
L 2222 3053 
L 1275 3053 
L 1275 0 
L 697 0 
L 697 3053 
L 147 3053 
L 147 3500 
L 697 3500 
L 697 3744 
Q 697 4328 969 4595 
Q 1241 4863 1831 4863 
L 2375 4863 
z
" transform="scale(0.015625)"/>
      <path id="DejaVuSans-6e" d="M 3513 2113 
L 3513 0 
L 2938 0 
L 2938 2094 
Q 2938 2591 2744 2837 
Q 2550 3084 2163 3084 
Q 1697 3084 1428 2787 
Q 1159 2491 1159 1978 
L 1159 0 
L 581 0 
L 581 3500 
L 1159 3500 
L 1159 2956 
Q 1366 3272 1645 3428 
Q 1925 3584 2291 3584 
Q 2894 3584 3203 3211 
Q 3513 2838 3513 2113 
z
" transform="scale(0.015625)"/>
      <path id="DejaVuSans-63" d="M 3122 3366 
L 3122 2828 
Q 2878 2963 2633 3030 
Q 2388 3097 2138 3097 
Q 1578 3097 1268 2742 
Q 959 2388 959 1747 
Q 959 1106 1268 751 
Q 1578 397 2138 397 
Q 2388 397 2633 464 
Q 2878 531 3122 666 
L 3122 134 
Q 2881 22 2623 -34 
Q 2366 -91 2075 -91 
Q 1284 -91 818 406 
Q 353 903 353 1747 
Q 353 2603 823 3093 
Q 1294 3584 2113 3584 
Q 2378 3584 2631 3529 
Q 2884 3475 3122 3366 
z
" transform="scale(0.015625)"/>
      <path id="DejaVuSans-28" d="M 1984 4856 
Q 1566 4138 1362 3434 
Q 1159 2731 1159 2009 
Q 1159 1288 1364 580 
Q 1569 -128 1984 -844 
L 1484 -844 
Q 1016 -109 783 600 
Q 550 1309 550 2009 
Q 550 2706 781 3412 
Q 1013 4119 1484 4856 
L 1984 4856 
z
" transform="scale(0.015625)"/>
      <path id="DejaVuSans-6d" d="M 3328 2828 
Q 3544 3216 3844 3400 
Q 4144 3584 4550 3584 
Q 5097 3584 5394 3201 
Q 5691 2819 5691 2113 
L 5691 0 
L 5113 0 
L 5113 2094 
Q 5113 2597 4934 2840 
Q 4756 3084 4391 3084 
Q 3944 3084 3684 2787 
Q 3425 2491 3425 1978 
L 3425 0 
L 2847 0 
L 2847 2094 
Q 2847 2600 2669 2842 
Q 2491 3084 2119 3084 
Q 1678 3084 1418 2786 
Q 1159 2488 1159 1978 
L 1159 0 
L 581 0 
L 581 3500 
L 1159 3500 
L 1159 2956 
Q 1356 3278 1631 3431 
Q 1906 3584 2284 3584 
Q 2666 3584 2933 3390 
Q 3200 3197 3328 2828 
z
" transform="scale(0.015625)"/>
      <path id="DejaVuSans-74" d="M 1172 4494 
L 1172 3500 
L 2356 3500 
L 2356 3053 
L 1172 3053 
L 1172 1153 
Q 1172 725 1289 603 
Q 1406 481 1766 481 
L 2356 481 
L 2356 0 
L 1766 0 
Q 1100 0 847 248 
Q 594 497 594 1153 
L 594 3053 
L 172 3053 
L 172 3500 
L 594 3500 
L 594 4494 
L 1172 4494 
z
" transform="scale(0.015625)"/>
      <path id="DejaVuSans-29" d="M 513 4856 
L 1013 4856 
Q 1481 4119 1714 3412 
Q 1947 2706 1947 2009 
Q 1947 1309 1714 600 
Q 1481 -109 1013 -844 
L 513 -844 
Q 928 -128 1133 580 
Q 1338 1288 1338 2009 
Q 1338 2731 1133 3434 
Q 928 4138 513 4856 
z
" transform="scale(0.015625)"/>
     </defs>
     <use xlink:href="#DejaVuSans-Oblique-4c" transform="translate(0 0.015625)"/>
     <use xlink:href="#DejaVuSans-Oblique-50" transform="translate(55.712891 0.015625)"/>
     <use xlink:href="#DejaVuSans-30" transform="translate(116.015625 -16.390625) scale(0.7)"/>
     <use xlink:href="#DejaVuSans-31" transform="translate(160.551758 -16.390625) scale(0.7)"/>
     <use xlink:href="#DejaVuSans-20" transform="translate(207.822266 0.015625)"/>
     <use xlink:href="#DejaVuSans-78" transform="translate(239.609375 0.015625)"/>
     <use xlink:href="#DejaVuSans-2d" transform="translate(298.789062 0.015625)"/>
     <use xlink:href="#DejaVuSans-70" transform="translate(334.873047 0.015625)"/>
     <use xlink:href="#DejaVuSans-6f" transform="translate(398.349609 0.015625)"/>
     <use xlink:href="#DejaVuSans-6c" transform="translate(459.53125 0.015625)"/>
     <use xlink:href="#DejaVuSans-61" transform="translate(487.314453 0.015625)"/>
     <use xlink:href="#DejaVuSans-72" transform="translate(548.59375 0.015625)"/>
     <use xlink:href="#DejaVuSans-69" transform="translate(589.707031 0.015625)"/>
     <use xlink:href="#DejaVuSans-7a" transform="translate(617.490234 0.015625)"/>
     <use xlink:href="#DejaVuSans-65" transform="translate(669.980469 0.015625)"/>
     <use xlink:href="#DejaVuSans-64" transform="translate(731.503906 0.015625)"/>
     <use xlink:href="#DejaVuSans-20" transform="translate(794.980469 0.015625)"/>
     <use xlink:href="#DejaVuSans-66" transform="translate(826.767578 0.015625)"/>
     <use xlink:href="#DejaVuSans-61" transform="translate(861.972656 0.015625)"/>
     <use xlink:href="#DejaVuSans-72" transform="translate(923.251953 0.015625)"/>
     <use xlink:href="#DejaVuSans-2d" transform="translate(964.365234 0.015625)"/>
     <use xlink:href="#DejaVuSans-66" transform="translate(1000.449219 0.015625)"/>
     <use xlink:href="#DejaVuSans-69" transform="translate(1035.654297 0.015625)"/>
     <use xlink:href="#DejaVuSans-65" transform="translate(1063.4375 0.015625)"/>
     <use xlink:href="#DejaVuSans-6c" transform="translate(1124.960938 0.015625)"/>
     <use xlink:href="#DejaVuSans-64" transform="translate(1152.744141 0.015625)"/>
     <use xlink:href="#DejaVuSans-20" transform="translate(1216.220703 0.015625)"/>
     <use xlink:href="#DejaVuSans-69" transform="translate(1248.007812 0.015625)"/>
     <use xlink:href="#DejaVuSans-72" transform="translate(1275.791016 0.015625)"/>
     <use xlink:href="#DejaVuSans-72" transform="translate(1316.904297 0.015625)"/>
     <use xlink:href="#DejaVuSans-61" transform="translate(1358.017578 0.015625)"/>
     <use xlink:href="#DejaVuSans-64" transform="translate(1419.296875 0.015625)"/>
     <use xlink:href="#DejaVuSans-69" transform="translate(1482.773438 0.015625)"/>
     <use xlink:href="#DejaVuSans-61" transform="translate(1510.556641 0.015625)"/>
     <use xlink:href="#DejaVuSans-6e" transform="translate(1571.835938 0.015625)"/>
     <use xlink:href="#DejaVuSans-63" transform="translate(1635.214844 0.015625)"/>
     <use xlink:href="#DejaVuSans-65" transform="translate(1690.195312 0.015625)"/>
     <use xlink:href="#DejaVuSans-20" transform="translate(1751.71875 0.015625)"/>
     <use xlink:href="#DejaVuSans-28" transform="translate(1783.505859 0.015625)"/>
     <use xlink:href="#DejaVuSans-6e" transform="translate(1822.519531 0.015625)"/>
     <use xlink:href="#DejaVuSans-6f" transform="translate(1885.898438 0.015625)"/>
     <use xlink:href="#DejaVuSans-72" transform="translate(1947.080078 0.015625)"/>
     <use xlink:href="#DejaVuSans-6d" transform="translate(1988.193359 0.015625)"/>
     <use xlink:href="#DejaVuSans-61" transform="translate(2085.605469 0.015625)"/>
     <use xlink:href="#DejaVuSans-6c" transform="translate(2146.884766 0.015625)"/>
     <use xlink:href="#DejaVuSans-69" transform="translate(2174.667969 0.015625)"/>
     <use xlink:href="#DejaVuSans-7a" transform="translate(2202.451172 0.015625)"/>
     <use xlink:href="#DejaVuSans-65" transform="translate(2254.941406 0.015625)"/>
     <use xlink:href="#DejaVuSans-64" transform="translate(2316.464844 0.015625)"/>
     <use xlink:href="#DejaVuSans-20" transform="translate(2379.941406 0.015625)"/>
     <use xlink:href="#DejaVuSans-74" transform="translate(2411.728516 0.015625)"/>
     <use xlink:href="#DejaVuSans-6f" transform="translate(2450.9375 0.015625)"/>
     <use xlink:href="#DejaVuSans-20" transform="translate(2512.119141 0.015625)"/>
     <use xlink:href="#DejaVuSans-6d" transform="translate(2543.90625 0.015625)"/>
     <use xlink:href="#DejaVuSans-61" transform="translate(2641.318359 0.015625)"/>
     <use xlink:href="#DejaVuSans-78" transform="translate(2702.597656 0.015625)"/>
     <use xlink:href="#DejaVuSans-29" transform="translate(2761.777344 0.015625)"/>
    </g>
    <!-- b=0.53303, V=2.40, ka=20.30 -->
    <g transform="translate(165.28125 97.984375) scale(0.12 -0.12)">
     <defs>
      <path id="DejaVuSans-62" d="M 3116 1747 
Q 3116 2381 2855 2742 
Q 2594 3103 2138 3103 
Q 1681 3103 1420 2742 
Q 1159 2381 1159 1747 
Q 1159 1113 1420 752 
Q 1681 391 2138 391 
Q 2594 391 2855 752 
Q 3116 1113 3116 1747 
z
M 1159 2969 
Q 1341 3281 1617 3432 
Q 1894 3584 2278 3584 
Q 2916 3584 3314 3078 
Q 3713 2572 3713 1747 
Q 3713 922 3314 415 
Q 2916 -91 2278 -91 
Q 1894 -91 1617 61 
Q 1341 213 1159 525 
L 1159 0 
L 581 0 
L 581 4863 
L 1159 4863 
L 1159 2969 
z
" transform="scale(0.015625)"/>
      <path id="DejaVuSans-3d" d="M 678 2906 
L 4684 2906 
L 4684 2381 
L 678 2381 
L 678 2906 
z
M 678 1631 
L 4684 1631 
L 4684 1100 
L 678 1100 
L 678 1631 
z
" transform="scale(0.015625)"/>
      <path id="DejaVuSans-2e" d="M 684 794 
L 1344 794 
L 1344 0 
L 684 0 
L 684 794 
z
" transform="scale(0.015625)"/>
      <path id="DejaVuSans-35" d="M 691 4666 
L 3169 4666 
L 3169 4134 
L 1269 4134 
L 1269 2991 
Q 1406 3038 1543 3061 
Q 1681 3084 1819 3084 
Q 2600 3084 3056 2656 
Q 3513 2228 3513 1497 
Q 3513 744 3044 326 
Q 2575 -91 1722 -91 
Q 1428 -91 1123 -41 
Q 819 9 494 109 
L 494 744 
Q 775 591 1075 516 
Q 1375 441 1709 441 
Q 2250 441 2565 725 
Q 2881 1009 2881 1497 
Q 2881 1984 2565 2268 
Q 2250 2553 1709 2553 
Q 1456 2553 1204 2497 
Q 953 2441 691 2322 
L 691 4666 
z
" transform="scale(0.015625)"/>
      <path id="DejaVuSans-2c" d="M 750 794 
L 1409 794 
L 1409 256 
L 897 -744 
L 494 -744 
L 750 256 
L 750 794 
z
" transform="scale(0.015625)"/>
      <path id="DejaVuSans-56" d="M 1831 0 
L 50 4666 
L 709 4666 
L 2188 738 
L 3669 4666 
L 4325 4666 
L 2547 0 
L 1831 0 
z
" transform="scale(0.015625)"/>
      <path id="DejaVuSans-6b" d="M 581 4863 
L 1159 4863 
L 1159 1991 
L 2875 3500 
L 3609 3500 
L 1753 1863 
L 3688 0 
L 2938 0 
L 1159 1709 
L 1159 0 
L 581 0 
L 581 4863 
z
" transform="scale(0.015625)"/>
     </defs>
     <use xlink:href="#DejaVuSans-62"/>
     <use xlink:href="#DejaVuSans-3d" x="63.476562"/>
     <use xlink:href="#DejaVuSans-30" x="147.265625"/>
     <use xlink:href="#DejaVuSans-2e" x="210.888672"/>
     <use xlink:href="#DejaVuSans-35" x="242.675781"/>
     <use xlink:href="#DejaVuSans-33" x="306.298828"/>
     <use xlink:href="#DejaVuSans-33" x="369.921875"/>
     <use xlink:href="#DejaVuSans-30" x="433.544922"/>
     <use xlink:href="#DejaVuSans-33" x="497.167969"/>
     <use xlink:href="#DejaVuSans-2c" x="560.791016"/>
     <use xlink:href="#DejaVuSans-20" x="592.578125"/>
     <use xlink:href="#DejaVuSans-56" x="624.365234"/>
     <use xlink:href="#DejaVuSans-3d" x="692.773438"/>
     <use xlink:href="#DejaVuSans-32" x="776.5625"/>
     <use xlink:href="#DejaVuSans-2e" x="840.185547"/>
     <use xlink:href="#DejaVuSans-34" x="871.972656"/>
     <use xlink:href="#DejaVuSans-30" x="935.595703"/>
     <use xlink:href="#DejaVuSans-2c" x="999.21875"/>
     <use xlink:href="#DejaVuSans-20" x="1031.005859"/>
     <use xlink:href="#DejaVuSans-6b" x="1062.792969"/>
     <use xlink:href="#DejaVuSans-61" x="1118.953125"/>
     <use xlink:href="#DejaVuSans-3d" x="1180.232422"/>
     <use xlink:href="#DejaVuSans-32" x="1264.021484"/>
     <use xlink:href="#DejaVuSans-30" x="1327.644531"/>
     <use xlink:href="#DejaVuSans-2e" x="1391.267578"/>
     <use xlink:href="#DejaVuSans-33" x="1423.054688"/>
     <use xlink:href="#DejaVuSans-30" x="1486.677734"/>
    </g>
   </g>
  </g>
  <g id="text_15">
   <!-- $\log_{10}|E_x(\theta)/E_x(0)|^2 (dB)$ -->
   <g transform="translate(115.92 385.68) scale(0.1 -0.1)">
    <defs>
     <path id="DejaVuSans-67" d="M 2906 1791 
Q 2906 2416 2648 2759 
Q 2391 3103 1925 3103 
Q 1463 3103 1205 2759 
Q 947 2416 947 1791 
Q 947 1169 1205 825 
Q 1463 481 1925 481 
Q 2391 481 2648 825 
Q 2906 1169 2906 1791 
z
M 3481 434 
Q 3481 -459 3084 -895 
Q 2688 -1331 1869 -1331 
Q 1566 -1331 1297 -1286 
Q 1028 -1241 775 -1147 
L 775 -588 
Q 1028 -725 1275 -790 
Q 1522 -856 1778 -856 
Q 2344 -856 2625 -561 
Q 2906 -266 2906 331 
L 2906 616 
Q 2728 306 2450 153 
Q 2172 0 1784 0 
Q 1141 0 747 490 
Q 353 981 353 1791 
Q 353 2603 747 3093 
Q 1141 3584 1784 3584 
Q 2172 3584 2450 3431 
Q 2728 3278 2906 2969 
L 2906 3500 
L 3481 3500 
L 3481 434 
z
" transform="scale(0.015625)"/>
     <path id="DejaVuSans-7c" d="M 1344 4891 
L 1344 -1509 
L 813 -1509 
L 813 4891 
L 1344 4891 
z
" transform="scale(0.015625)"/>
     <path id="DejaVuSans-Oblique-45" d="M 1081 4666 
L 4031 4666 
L 3928 4134 
L 1606 4134 
L 1338 2753 
L 3566 2753 
L 3463 2222 
L 1234 2222 
L 909 531 
L 3284 531 
L 3181 0 
L 172 0 
L 1081 4666 
z
" transform="scale(0.015625)"/>
     <path id="DejaVuSans-Oblique-78" d="M 3841 3500 
L 2234 1784 
L 3219 0 
L 2559 0 
L 1819 1388 
L 531 0 
L -166 0 
L 1556 1844 
L 641 3500 
L 1300 3500 
L 1972 2234 
L 3144 3500 
L 3841 3500 
z
" transform="scale(0.015625)"/>
     <path id="DejaVuSans-Oblique-3b8" d="M 2913 2219 
L 925 2219 
Q 791 1284 928 888 
Q 1100 400 1566 400 
Q 2034 400 2391 891 
Q 2703 1322 2913 2219 
z
M 3009 2750 
Q 3094 3638 2984 3950 
Q 2813 4444 2353 4444 
Q 1875 4444 1525 3956 
Q 1250 3563 1034 2750 
L 3009 2750 
z
M 2444 4913 
Q 3194 4913 3494 4250 
Q 3794 3591 3566 2422 
Q 3341 1256 2781 594 
Q 2225 -72 1475 -72 
Q 722 -72 425 594 
Q 128 1256 353 2422 
Q 581 3591 1134 4250 
Q 1691 4913 2444 4913 
z
" transform="scale(0.015625)"/>
     <path id="DejaVuSans-2f" d="M 1625 4666 
L 2156 4666 
L 531 -594 
L 0 -594 
L 1625 4666 
z
" transform="scale(0.015625)"/>
     <path id="DejaVuSans-Oblique-64" d="M 2675 525 
Q 2444 222 2128 65 
Q 1813 -91 1428 -91 
Q 903 -91 598 267 
Q 294 625 294 1247 
Q 294 1766 478 2236 
Q 663 2706 1013 3078 
Q 1244 3325 1534 3454 
Q 1825 3584 2144 3584 
Q 2481 3584 2739 3421 
Q 2997 3259 3138 2956 
L 3513 4863 
L 4091 4863 
L 3144 0 
L 2566 0 
L 2675 525 
z
M 891 1350 
Q 891 897 1095 644 
Q 1300 391 1663 391 
Q 1931 391 2161 520 
Q 2391 650 2566 903 
Q 2750 1166 2856 1509 
Q 2963 1853 2963 2188 
Q 2963 2622 2758 2865 
Q 2553 3109 2194 3109 
Q 1922 3109 1687 2981 
Q 1453 2853 1288 2613 
Q 1106 2353 998 2009 
Q 891 1666 891 1350 
z
" transform="scale(0.015625)"/>
     <path id="DejaVuSans-Oblique-42" d="M 1081 4666 
L 2694 4666 
Q 3350 4666 3675 4422 
Q 4000 4178 4000 3688 
Q 4000 3238 3720 2911 
Q 3441 2584 2988 2516 
Q 3375 2428 3569 2181 
Q 3763 1934 3763 1522 
Q 3763 819 3242 409 
Q 2722 0 1819 0 
L 172 0 
L 1081 4666 
z
M 1234 2228 
L 903 519 
L 1919 519 
Q 2491 519 2800 781 
Q 3109 1044 3109 1522 
Q 3109 1891 2904 2059 
Q 2700 2228 2247 2228 
L 1234 2228 
z
M 1606 4147 
L 1331 2741 
L 2272 2741 
Q 2775 2741 3058 2959 
Q 3341 3178 3341 3566 
Q 3341 3869 3150 4008 
Q 2959 4147 2541 4147 
L 1606 4147 
z
" transform="scale(0.015625)"/>
    </defs>
    <use xlink:href="#DejaVuSans-6c" transform="translate(0 0.765625)"/>
    <use xlink:href="#DejaVuSans-6f" transform="translate(27.783203 0.765625)"/>
    <use xlink:href="#DejaVuSans-67" transform="translate(88.964844 0.765625)"/>
    <use xlink:href="#DejaVuSans-31" transform="translate(153.398438 -15.640625) scale(0.7)"/>
    <use xlink:href="#DejaVuSans-30" transform="translate(197.93457 -15.640625) scale(0.7)"/>
    <use xlink:href="#DejaVuSans-7c" transform="translate(261.440754 0.765625)"/>
    <use xlink:href="#DejaVuSans-Oblique-45" transform="translate(295.132161 0.765625)"/>
    <use xlink:href="#DejaVuSans-Oblique-78" transform="translate(358.315754 -15.640625) scale(0.7)"/>
    <use xlink:href="#DejaVuSans-28" transform="translate(402.475911 0.765625)"/>
    <use xlink:href="#DejaVuSans-Oblique-3b8" transform="translate(441.489583 0.765625)"/>
    <use xlink:href="#DejaVuSans-29" transform="translate(502.671223 0.765625)"/>
    <use xlink:href="#DejaVuSans-2f" transform="translate(541.684895 0.765625)"/>
    <use xlink:href="#DejaVuSans-Oblique-45" transform="translate(575.376301 0.765625)"/>
    <use xlink:href="#DejaVuSans-Oblique-78" transform="translate(638.559895 -15.640625) scale(0.7)"/>
    <use xlink:href="#DejaVuSans-28" transform="translate(682.720051 0.765625)"/>
    <use xlink:href="#DejaVuSans-30" transform="translate(721.733723 0.765625)"/>
    <use xlink:href="#DejaVuSans-29" transform="translate(785.35677 0.765625)"/>
    <use xlink:href="#DejaVuSans-7c" transform="translate(824.370442 0.765625)"/>
    <use xlink:href="#DejaVuSans-32" transform="translate(859.018879 39.046875) scale(0.7)"/>
    <use xlink:href="#DejaVuSans-28" transform="translate(906.289387 0.765625)"/>
    <use xlink:href="#DejaVuSans-Oblique-64" transform="translate(945.303059 0.765625)"/>
    <use xlink:href="#DejaVuSans-Oblique-42" transform="translate(1008.779622 0.765625)"/>
    <use xlink:href="#DejaVuSans-29" transform="translate(1077.383137 0.765625)"/>
   </g>
  </g>
 </g>
 <defs>
  <clipPath id="paa07e25ff3">
   <path d="M 452.34 351.54 
C 452.34 300.097129 431.882603 250.708603 395.507 214.333 
C 359.131397 177.957397 309.742871 157.5 258.3 157.5 
C 206.857129 157.5 157.468603 177.957397 121.093 214.333 
C 84.717397 250.708603 64.26 300.097129 64.26 351.54 
L 258.3 351.54 
C 258.3 351.54 258.3 351.54 258.3 351.54 
C 258.3 351.54 258.3 351.54 258.3 351.54 
C 258.3 351.54 258.3 351.54 258.3 351.54 
C 258.3 351.54 258.3 351.54 258.3 351.54 
z
"/>
  </clipPath>
 </defs>
</svg>
