<?xml version="1.0" encoding="utf-8" standalone="no"?>
<!DOCTYPE svg PUBLIC "-//W3C//DTD SVG 1.1//EN"
  "http://www.w3.org/Graphics/SVG/1.1/DTD/svg11.dtd">
<svg xmlns:xlink="http://www.w3.org/1999/xlink" width="432pt" height="432pt" viewBox="0 0 432 432" xmlns="http://www.w3.org/2000/svg" version="1.1">
 <metadata>
  <rdf:RDF xmlns:dc="http://purl.org/dc/elements/1.1/" xmlns:cc="http://creativecommons.org/ns#" xmlns:rdf="http://www.w3.org/1999/02/22-rdf-syntax-ns#">
   <cc:Work>
    <dc:type rdf:resource="http://purl.org/dc/dcmitype/StillImage"/>
    <dc:date>2024-05-04T18:28:01.184491</dc:date>
    <dc:format>image/svg+xml</dc:format>
    <dc:creator>
     <cc:Agent>
      <dc:title>Matplotlib v3.8.3, https://matplotlib.org/</dc:title>
     </cc:Agent>
    </dc:creator>
   </cc:Work>
  </rdf:RDF>
 </metadata>
 <defs>
  <style type="text/css">*{stroke-linejoin: round; stroke-linecap: butt}</style>
 </defs>
 <g id="figure_1">
  <g id="patch_1">
   <path d="M 0 432 
L 432 432 
L 432 0 
L 0 0 
z
" style="fill: #ffffff"/>
  </g>
  <g id="axes_1">
   <g id="patch_2">
    <path d="M 387.72 301.32 
C 387.72 257.226111 370.185088 214.893088 339.006 183.714 
C 307.826912 152.534912 265.493889 135 221.4 135 
C 177.306111 135 134.973088 152.534912 103.794 183.714 
C 72.614912 214.893088 55.08 257.226111 55.08 301.32 
L 221.4 301.32 
C 221.4 301.32 221.4 301.32 221.4 301.32 
C 221.4 301.32 221.4 301.32 221.4 301.32 
C 221.4 301.32 221.4 301.32 221.4 301.32 
C 221.4 301.32 221.4 301.32 221.4 301.32 
z
" style="fill: #ffffff"/>
   </g>
   <g id="matplotlib.axis_1">
    <g id="xtick_1">
     <g id="line2d_1">
      <path d="M 221.4 301.32 
L 387.72 301.32 
" clip-path="url(#pd2acdef4f0)" style="fill: none; stroke: #b0b0b0; stroke-width: 0.8; stroke-linecap: square"/>
     </g>
     <g id="text_1">
      <!-- -90° -->
      <g transform="translate(391.053594 304.079375) scale(0.1 -0.1)">
       <defs>
        <path id="DejaVuSans-2d" d="M 313 2009 
L 1997 2009 
L 1997 1497 
L 313 1497 
L 313 2009 
z
" transform="scale(0.015625)"/>
        <path id="DejaVuSans-39" d="M 703 97 
L 703 672 
Q 941 559 1184 500 
Q 1428 441 1663 441 
Q 2288 441 2617 861 
Q 2947 1281 2994 2138 
Q 2813 1869 2534 1725 
Q 2256 1581 1919 1581 
Q 1219 1581 811 2004 
Q 403 2428 403 3163 
Q 403 3881 828 4315 
Q 1253 4750 1959 4750 
Q 2769 4750 3195 4129 
Q 3622 3509 3622 2328 
Q 3622 1225 3098 567 
Q 2575 -91 1691 -91 
Q 1453 -91 1209 -44 
Q 966 3 703 97 
z
M 1959 2075 
Q 2384 2075 2632 2365 
Q 2881 2656 2881 3163 
Q 2881 3666 2632 3958 
Q 2384 4250 1959 4250 
Q 1534 4250 1286 3958 
Q 1038 3666 1038 3163 
Q 1038 2656 1286 2365 
Q 1534 2075 1959 2075 
z
" transform="scale(0.015625)"/>
        <path id="DejaVuSans-30" d="M 2034 4250 
Q 1547 4250 1301 3770 
Q 1056 3291 1056 2328 
Q 1056 1369 1301 889 
Q 1547 409 2034 409 
Q 2525 409 2770 889 
Q 3016 1369 3016 2328 
Q 3016 3291 2770 3770 
Q 2525 4250 2034 4250 
z
M 2034 4750 
Q 2819 4750 3233 4129 
Q 3647 3509 3647 2328 
Q 3647 1150 3233 529 
Q 2819 -91 2034 -91 
Q 1250 -91 836 529 
Q 422 1150 422 2328 
Q 422 3509 836 4129 
Q 1250 4750 2034 4750 
z
" transform="scale(0.015625)"/>
        <path id="DejaVuSans-b0" d="M 1600 4347 
Q 1350 4347 1178 4173 
Q 1006 4000 1006 3750 
Q 1006 3503 1178 3333 
Q 1350 3163 1600 3163 
Q 1850 3163 2022 3333 
Q 2194 3503 2194 3750 
Q 2194 3997 2020 4172 
Q 1847 4347 1600 4347 
z
M 1600 4750 
Q 1800 4750 1984 4673 
Q 2169 4597 2303 4453 
Q 2447 4313 2519 4134 
Q 2591 3956 2591 3750 
Q 2591 3338 2302 3052 
Q 2013 2766 1594 2766 
Q 1172 2766 890 3047 
Q 609 3328 609 3750 
Q 609 4169 896 4459 
Q 1184 4750 1600 4750 
z
" transform="scale(0.015625)"/>
       </defs>
       <use xlink:href="#DejaVuSans-2d"/>
       <use xlink:href="#DejaVuSans-39" x="36.083984"/>
       <use xlink:href="#DejaVuSans-30" x="99.707031"/>
       <use xlink:href="#DejaVuSans-b0" x="163.330078"/>
      </g>
     </g>
    </g>
    <g id="xtick_2">
     <g id="line2d_2">
      <path d="M 221.4 301.32 
L 365.437345 218.16 
" clip-path="url(#pd2acdef4f0)" style="fill: none; stroke: #b0b0b0; stroke-width: 0.8; stroke-linecap: square"/>
     </g>
     <g id="text_2">
      <!-- -60° -->
      <g transform="translate(366.895295 213.919375) scale(0.1 -0.1)">
       <defs>
        <path id="DejaVuSans-36" d="M 2113 2584 
Q 1688 2584 1439 2293 
Q 1191 2003 1191 1497 
Q 1191 994 1439 701 
Q 1688 409 2113 409 
Q 2538 409 2786 701 
Q 3034 994 3034 1497 
Q 3034 2003 2786 2293 
Q 2538 2584 2113 2584 
z
M 3366 4563 
L 3366 3988 
Q 3128 4100 2886 4159 
Q 2644 4219 2406 4219 
Q 1781 4219 1451 3797 
Q 1122 3375 1075 2522 
Q 1259 2794 1537 2939 
Q 1816 3084 2150 3084 
Q 2853 3084 3261 2657 
Q 3669 2231 3669 1497 
Q 3669 778 3244 343 
Q 2819 -91 2113 -91 
Q 1303 -91 875 529 
Q 447 1150 447 2328 
Q 447 3434 972 4092 
Q 1497 4750 2381 4750 
Q 2619 4750 2861 4703 
Q 3103 4656 3366 4563 
z
" transform="scale(0.015625)"/>
       </defs>
       <use xlink:href="#DejaVuSans-2d"/>
       <use xlink:href="#DejaVuSans-36" x="36.083984"/>
       <use xlink:href="#DejaVuSans-30" x="99.707031"/>
       <use xlink:href="#DejaVuSans-b0" x="163.330078"/>
      </g>
     </g>
    </g>
    <g id="xtick_3">
     <g id="line2d_3">
      <path d="M 221.4 301.32 
L 304.56 157.282655 
" clip-path="url(#pd2acdef4f0)" style="fill: none; stroke: #b0b0b0; stroke-width: 0.8; stroke-linecap: square"/>
     </g>
     <g id="text_3">
      <!-- -30° -->
      <g transform="translate(300.893594 147.917674) scale(0.1 -0.1)">
       <defs>
        <path id="DejaVuSans-33" d="M 2597 2516 
Q 3050 2419 3304 2112 
Q 3559 1806 3559 1356 
Q 3559 666 3084 287 
Q 2609 -91 1734 -91 
Q 1441 -91 1130 -33 
Q 819 25 488 141 
L 488 750 
Q 750 597 1062 519 
Q 1375 441 1716 441 
Q 2309 441 2620 675 
Q 2931 909 2931 1356 
Q 2931 1769 2642 2001 
Q 2353 2234 1838 2234 
L 1294 2234 
L 1294 2753 
L 1863 2753 
Q 2328 2753 2575 2939 
Q 2822 3125 2822 3475 
Q 2822 3834 2567 4026 
Q 2313 4219 1838 4219 
Q 1578 4219 1281 4162 
Q 984 4106 628 3988 
L 628 4550 
Q 988 4650 1302 4700 
Q 1616 4750 1894 4750 
Q 2613 4750 3031 4423 
Q 3450 4097 3450 3541 
Q 3450 3153 3228 2886 
Q 3006 2619 2597 2516 
z
" transform="scale(0.015625)"/>
       </defs>
       <use xlink:href="#DejaVuSans-2d"/>
       <use xlink:href="#DejaVuSans-33" x="36.083984"/>
       <use xlink:href="#DejaVuSans-30" x="99.707031"/>
       <use xlink:href="#DejaVuSans-b0" x="163.330078"/>
      </g>
     </g>
    </g>
    <g id="xtick_4">
     <g id="line2d_4">
      <path d="M 221.4 301.32 
L 221.4 135 
" clip-path="url(#pd2acdef4f0)" style="fill: none; stroke: #b0b0b0; stroke-width: 0.8; stroke-linecap: square"/>
     </g>
     <g id="text_4">
      <!-- 0° -->
      <g transform="translate(215.71875 123.759375) scale(0.1 -0.1)">
       <use xlink:href="#DejaVuSans-30"/>
       <use xlink:href="#DejaVuSans-b0" x="63.623047"/>
      </g>
     </g>
    </g>
    <g id="xtick_5">
     <g id="line2d_5">
      <path d="M 221.4 301.32 
L 138.24 157.282655 
" clip-path="url(#pd2acdef4f0)" style="fill: none; stroke: #b0b0b0; stroke-width: 0.8; stroke-linecap: square"/>
     </g>
     <g id="text_5">
      <!-- 30° -->
      <g transform="translate(122.3775 147.917674) scale(0.1 -0.1)">
       <use xlink:href="#DejaVuSans-33"/>
       <use xlink:href="#DejaVuSans-30" x="63.623047"/>
       <use xlink:href="#DejaVuSans-b0" x="127.246094"/>
      </g>
     </g>
    </g>
    <g id="xtick_6">
     <g id="line2d_6">
      <path d="M 221.4 301.32 
L 77.362655 218.16 
" clip-path="url(#pd2acdef4f0)" style="fill: none; stroke: #b0b0b0; stroke-width: 0.8; stroke-linecap: square"/>
     </g>
     <g id="text_6">
      <!-- 60° -->
      <g transform="translate(56.375799 213.919375) scale(0.1 -0.1)">
       <use xlink:href="#DejaVuSans-36"/>
       <use xlink:href="#DejaVuSans-30" x="63.623047"/>
       <use xlink:href="#DejaVuSans-b0" x="127.246094"/>
      </g>
     </g>
    </g>
    <g id="xtick_7">
     <g id="line2d_7">
      <path d="M 221.4 301.32 
L 55.08 301.32 
" clip-path="url(#pd2acdef4f0)" style="fill: none; stroke: #b0b0b0; stroke-width: 0.8; stroke-linecap: square"/>
     </g>
     <g id="text_7">
      <!-- 90° -->
      <g transform="translate(32.2175 304.079375) scale(0.1 -0.1)">
       <use xlink:href="#DejaVuSans-39"/>
       <use xlink:href="#DejaVuSans-30" x="63.623047"/>
       <use xlink:href="#DejaVuSans-b0" x="127.246094"/>
      </g>
     </g>
    </g>
   </g>
   <g id="matplotlib.axis_2">
    <g id="ytick_1">
     <g id="line2d_8">
      <path d="M 221.4 301.32 
C 221.4 301.32 221.4 301.32 221.4 301.32 
C 221.4 301.32 221.4 301.32 221.4 301.32 
C 221.4 301.32 221.4 301.32 221.4 301.32 
C 221.4 301.32 221.4 301.32 221.4 301.32 
" clip-path="url(#pd2acdef4f0)" style="fill: none; stroke: #b0b0b0; stroke-width: 0.8; stroke-linecap: square"/>
     </g>
     <g id="text_8">
      <!-- −100 -->
      <g transform="translate(207.666406 315.918437) scale(0.1 -0.1)">
       <defs>
        <path id="DejaVuSans-2212" d="M 678 2272 
L 4684 2272 
L 4684 1741 
L 678 1741 
L 678 2272 
z
" transform="scale(0.015625)"/>
        <path id="DejaVuSans-31" d="M 794 531 
L 1825 531 
L 1825 4091 
L 703 3866 
L 703 4441 
L 1819 4666 
L 2450 4666 
L 2450 531 
L 3481 531 
L 3481 0 
L 794 0 
L 794 531 
z
" transform="scale(0.015625)"/>
       </defs>
       <use xlink:href="#DejaVuSans-2212"/>
       <use xlink:href="#DejaVuSans-31" x="83.789062"/>
       <use xlink:href="#DejaVuSans-30" x="147.412109"/>
       <use xlink:href="#DejaVuSans-30" x="211.035156"/>
      </g>
     </g>
    </g>
    <g id="ytick_2">
     <g id="line2d_9">
      <path d="M 188.136 301.32 
C 188.136 292.501222 191.642982 284.034618 197.8788 277.7988 
C 204.114618 271.562982 212.581222 268.056 221.4 268.056 
C 230.218778 268.056 238.685382 271.562982 244.9212 277.7988 
C 251.157018 284.034618 254.664 292.501222 254.664 301.32 
" clip-path="url(#pd2acdef4f0)" style="fill: none; stroke: #b0b0b0; stroke-width: 0.8; stroke-linecap: square"/>
     </g>
     <g id="text_9">
      <!-- −80 -->
      <g transform="translate(177.583656 315.918437) scale(0.1 -0.1)">
       <defs>
        <path id="DejaVuSans-38" d="M 2034 2216 
Q 1584 2216 1326 1975 
Q 1069 1734 1069 1313 
Q 1069 891 1326 650 
Q 1584 409 2034 409 
Q 2484 409 2743 651 
Q 3003 894 3003 1313 
Q 3003 1734 2745 1975 
Q 2488 2216 2034 2216 
z
M 1403 2484 
Q 997 2584 770 2862 
Q 544 3141 544 3541 
Q 544 4100 942 4425 
Q 1341 4750 2034 4750 
Q 2731 4750 3128 4425 
Q 3525 4100 3525 3541 
Q 3525 3141 3298 2862 
Q 3072 2584 2669 2484 
Q 3125 2378 3379 2068 
Q 3634 1759 3634 1313 
Q 3634 634 3220 271 
Q 2806 -91 2034 -91 
Q 1263 -91 848 271 
Q 434 634 434 1313 
Q 434 1759 690 2068 
Q 947 2378 1403 2484 
z
M 1172 3481 
Q 1172 3119 1398 2916 
Q 1625 2713 2034 2713 
Q 2441 2713 2670 2916 
Q 2900 3119 2900 3481 
Q 2900 3844 2670 4047 
Q 2441 4250 2034 4250 
Q 1625 4250 1398 4047 
Q 1172 3844 1172 3481 
z
" transform="scale(0.015625)"/>
       </defs>
       <use xlink:href="#DejaVuSans-2212"/>
       <use xlink:href="#DejaVuSans-38" x="83.789062"/>
       <use xlink:href="#DejaVuSans-30" x="147.412109"/>
      </g>
     </g>
    </g>
    <g id="ytick_3">
     <g id="line2d_10">
      <path d="M 154.872 301.32 
C 154.872 283.682444 161.885965 266.749235 174.3576 254.2776 
C 186.829235 241.805965 203.762444 234.792 221.4 234.792 
C 239.037556 234.792 255.970765 241.805965 268.4424 254.2776 
C 280.914035 266.749235 287.928 283.682444 287.928 301.32 
" clip-path="url(#pd2acdef4f0)" style="fill: none; stroke: #b0b0b0; stroke-width: 0.8; stroke-linecap: square"/>
     </g>
     <g id="text_10">
      <!-- −60 -->
      <g transform="translate(144.319656 315.918437) scale(0.1 -0.1)">
       <use xlink:href="#DejaVuSans-2212"/>
       <use xlink:href="#DejaVuSans-36" x="83.789062"/>
       <use xlink:href="#DejaVuSans-30" x="147.412109"/>
      </g>
     </g>
    </g>
    <g id="ytick_4">
     <g id="line2d_11">
      <path d="M 121.608 301.32 
C 121.608 274.863667 132.128947 249.463853 150.8364 230.7564 
C 169.543853 212.048947 194.943667 201.528 221.4 201.528 
C 247.856333 201.528 273.256147 212.048947 291.9636 230.7564 
C 310.671053 249.463853 321.192 274.863667 321.192 301.32 
" clip-path="url(#pd2acdef4f0)" style="fill: none; stroke: #b0b0b0; stroke-width: 0.8; stroke-linecap: square"/>
     </g>
     <g id="text_11">
      <!-- −40 -->
      <g transform="translate(111.055656 315.918437) scale(0.1 -0.1)">
       <defs>
        <path id="DejaVuSans-34" d="M 2419 4116 
L 825 1625 
L 2419 1625 
L 2419 4116 
z
M 2253 4666 
L 3047 4666 
L 3047 1625 
L 3713 1625 
L 3713 1100 
L 3047 1100 
L 3047 0 
L 2419 0 
L 2419 1100 
L 313 1100 
L 313 1709 
L 2253 4666 
z
" transform="scale(0.015625)"/>
       </defs>
       <use xlink:href="#DejaVuSans-2212"/>
       <use xlink:href="#DejaVuSans-34" x="83.789062"/>
       <use xlink:href="#DejaVuSans-30" x="147.412109"/>
      </g>
     </g>
    </g>
    <g id="ytick_5">
     <g id="line2d_12">
      <path d="M 88.344 301.32 
C 88.344 266.044889 102.37193 232.178471 127.3152 207.2352 
C 152.258471 182.29193 186.124889 168.264 221.4 168.264 
C 256.675111 168.264 290.541529 182.29193 315.4848 207.2352 
C 340.42807 232.178471 354.456 266.044889 354.456 301.32 
" clip-path="url(#pd2acdef4f0)" style="fill: none; stroke: #b0b0b0; stroke-width: 0.8; stroke-linecap: square"/>
     </g>
     <g id="text_12">
      <!-- −20 -->
      <g transform="translate(77.791656 315.918437) scale(0.1 -0.1)">
       <defs>
        <path id="DejaVuSans-32" d="M 1228 531 
L 3431 531 
L 3431 0 
L 469 0 
L 469 531 
Q 828 903 1448 1529 
Q 2069 2156 2228 2338 
Q 2531 2678 2651 2914 
Q 2772 3150 2772 3378 
Q 2772 3750 2511 3984 
Q 2250 4219 1831 4219 
Q 1534 4219 1204 4116 
Q 875 4013 500 3803 
L 500 4441 
Q 881 4594 1212 4672 
Q 1544 4750 1819 4750 
Q 2544 4750 2975 4387 
Q 3406 4025 3406 3419 
Q 3406 3131 3298 2873 
Q 3191 2616 2906 2266 
Q 2828 2175 2409 1742 
Q 1991 1309 1228 531 
z
" transform="scale(0.015625)"/>
       </defs>
       <use xlink:href="#DejaVuSans-2212"/>
       <use xlink:href="#DejaVuSans-32" x="83.789062"/>
       <use xlink:href="#DejaVuSans-30" x="147.412109"/>
      </g>
     </g>
    </g>
    <g id="ytick_6">
     <g id="line2d_13">
      <path d="M 55.08 301.32 
C 55.08 257.226111 72.614912 214.893088 103.794 183.714 
C 134.973088 152.534912 177.306111 135 221.4 135 
C 265.493889 135 307.826912 152.534912 339.006 183.714 
C 370.185088 214.893088 387.72 257.226111 387.72 301.32 
" clip-path="url(#pd2acdef4f0)" style="fill: none; stroke: #b0b0b0; stroke-width: 0.8; stroke-linecap: square"/>
     </g>
     <g id="text_13">
      <!-- 0 -->
      <g transform="translate(51.89875 315.918437) scale(0.1 -0.1)">
       <use xlink:href="#DejaVuSans-30"/>
      </g>
     </g>
    </g>
   </g>
   <g id="line2d_14">
    <path d="M 242.783741 301.32 
L 242.648973 300.785843 
L 242.232782 300.271947 
L 241.496971 299.801846 
L 240.367977 299.406681 
L 238.715527 299.13254 
L 236.996344 299.050299 
L 234.674269 299.131979 
L 231.412479 299.47514 
L 226.451641 300.290395 
L 224.119335 300.747938 
M 223.661331 300.708999 
L 229.671788 298.973081 
L 235.810252 296.936336 
L 240.210029 295.208251 
L 243.598314 293.641821 
L 246.294161 292.180459 
L 248.461674 290.801727 
L 250.19205 289.499777 
L 251.536524 288.278761 
L 252.521221 287.15036 
L 253.153892 286.133332 
L 253.426144 285.254527 
L 253.395482 284.763446 
L 253.18062 284.364983 
L 252.762716 284.078201 
L 252.114628 283.928343 
L 251.196694 283.95005 
L 249.949023 284.193132 
L 248.2763 284.733816 
L 246.01444 285.699201 
L 242.844931 287.329556 
L 238.011819 290.182554 
L 234.345373 292.522334 
L 228.779751 296.236651 
M 227.88912 296.66739 
L 238.502594 288.729301 
L 243.951622 284.276714 
L 247.519119 281.059934 
L 250.055678 278.509908 
L 251.909096 276.401901 
L 253.252901 274.630115 
L 254.182619 273.142403 
L 254.752105 271.916164 
L 254.989048 270.948662 
L 254.901358 270.25393 
L 254.733189 270.018052 
L 254.478198 269.864064 
L 254.131466 269.799793 
L 253.13233 269.983945 
L 251.641941 270.69562 
L 249.475186 272.165941 
L 246.218129 274.891377 
L 243.876631 277.081411 
L 240.639682 280.308852 
L 235.523107 285.700612 
L 223.16906 299.338632 
L 228.39462 293.386162 
L 237.618347 282.689211 
L 242.215309 277.102876 
L 247.478814 270.196379 
L 250.56603 265.609844 
L 252.559378 262.175348 
L 253.847939 259.488369 
L 254.61147 257.37469 
L 254.941063 255.759451 
L 254.879616 254.625075 
L 254.706147 254.245207 
L 254.435519 253.999903 
L 254.063332 253.901013 
L 253.582223 253.965296 
L 252.980864 254.216238 
L 252.242245 254.687091 
L 251.34066 255.426147 
L 250.236103 256.50645 
L 248.862963 258.045294 
L 247.104381 260.248224 
L 244.723012 263.527325 
L 241.111609 268.925577 
L 232.045142 283.320047 
L 240.795127 268.049285 
L 244.607971 260.927481 
L 246.998582 256.111488 
L 249.929225 249.425533 
L 251.595216 244.721844 
L 252.527251 241.166698 
L 252.94169 238.442381 
L 252.941228 236.421068 
L 252.801347 235.66274 
L 252.571668 235.076833 
L 252.251688 234.673064 
L 251.838251 234.467523 
L 251.324898 234.484652 
L 250.700636 234.760755 
L 249.94765 235.350273 
L 249.036927 236.33765 
L 247.919164 237.861687 
L 246.503481 240.172196 
L 244.597257 243.789169 
L 241.670953 250.121418 
L 234.796427 266.853339 
L 242.497504 244.952152 
L 244.775519 237.650068 
L 246.180356 232.489913 
L 247.122342 228.439889 
L 247.76868 225.085745 
L 248.47894 219.727564 
L 248.657869 215.599991 
L 248.451104 212.395941 
L 247.927247 210.012618 
L 247.555855 209.132868 
L 247.112013 208.479645 
L 246.592936 208.080246 
L 245.992353 207.977873 
L 245.298735 208.240574 
L 244.491675 208.979031 
L 243.533816 210.385501 
L 242.350048 212.83304 
L 240.759176 217.198301 
L 238.11059 226.56112 
L 232.924266 248.197737 
L 238.782721 218.690139 
L 240.359221 208.298666 
L 241.126472 201.32771 
L 241.516344 195.866433 
L 241.678042 191.266418 
L 241.681831 187.227793 
L 241.357155 180.24408 
L 240.713767 174.213892 
L 239.833301 168.818115 
L 238.761924 163.886217 
L 237.528633 159.320128 
L 236.152937 155.064534 
L 234.648678 151.094918 
L 233.026284 147.413925 
L 231.294458 144.052095 
L 229.461824 141.070204 
L 227.53883 138.559629 
L 226.54773 137.516574 
L 225.539844 136.635544 
L 224.517869 135.931512 
L 223.484898 135.417818 
L 222.444373 135.105043 
L 221.4 135 
L 220.355627 135.105043 
L 219.315102 135.417818 
L 218.282131 135.931512 
L 217.260156 136.635544 
L 216.25227 137.516574 
L 215.26117 138.559629 
L 213.338176 141.070204 
L 211.505542 144.052095 
L 209.773716 147.413925 
L 208.151322 151.094918 
L 206.647063 155.064534 
L 205.271367 159.320128 
L 204.038076 163.886217 
L 202.966699 168.818115 
L 202.086233 174.213892 
L 201.442845 180.24408 
L 201.233197 183.586809 
L 201.118169 187.227793 
L 201.121958 191.266418 
L 201.283656 195.866433 
L 201.673528 201.32771 
L 202.440779 208.298666 
L 204.017279 218.690139 
L 209.875734 248.197737 
L 204.68941 226.56112 
L 202.040824 217.198301 
L 200.449952 212.83304 
L 199.266184 210.385501 
L 198.308325 208.979031 
L 197.501265 208.240574 
L 196.807647 207.977873 
L 196.207064 208.080246 
L 195.687987 208.479645 
L 195.244145 209.132868 
L 194.872753 210.012618 
L 194.573645 211.102778 
L 194.348896 212.395941 
L 194.142131 215.599991 
L 194.32106 219.727564 
L 194.59555 222.220592 
L 195.03132 225.085745 
L 195.677658 228.439889 
L 196.619644 232.489913 
L 198.024481 237.650068 
L 200.302496 244.952152 
L 208.003573 266.853339 
L 201.129047 250.121418 
L 198.202743 243.789169 
L 196.296519 240.172196 
L 194.880836 237.861687 
L 193.763073 236.33765 
L 192.85235 235.350273 
L 192.099364 234.760755 
L 191.475102 234.484652 
L 190.961749 234.467523 
L 190.548312 234.673064 
L 190.228332 235.076833 
L 189.998653 235.66274 
L 189.858772 236.421068 
L 189.85831 238.442381 
L 190.272749 241.166698 
L 191.204784 244.721844 
L 192.870775 249.425533 
L 194.118491 252.425365 
L 195.801418 256.111488 
L 198.192029 260.927481 
L 202.004873 268.049285 
L 210.754858 283.320047 
L 209.203748 280.989893 
L 201.688391 268.925577 
L 198.076988 263.527325 
L 195.695619 260.248224 
L 193.937037 258.045294 
L 191.45934 255.426147 
L 189.819136 254.216238 
L 189.217777 253.965296 
L 188.736668 253.901013 
L 188.364481 253.999903 
L 188.093853 254.245207 
L 187.920384 254.625075 
L 187.842059 255.131456 
L 187.973061 256.506976 
L 188.511775 258.366169 
L 189.522339 260.752473 
L 191.132277 263.781995 
L 193.600901 267.716661 
L 197.548011 273.214594 
L 200.584691 277.102876 
L 205.181653 282.689211 
L 219.63094 299.338632 
L 207.276893 285.700612 
L 202.160318 280.308852 
L 196.581871 274.891377 
L 193.324814 272.165941 
L 191.158059 270.69562 
L 189.66767 269.983945 
L 188.668534 269.799793 
L 188.066811 270.018052 
L 187.898642 270.25393 
L 187.810952 270.948662 
L 188.047895 271.916164 
L 188.617381 273.142403 
L 189.547099 274.630115 
L 190.890904 276.401901 
L 192.744322 278.509908 
L 195.280881 281.059934 
L 198.848378 284.276714 
L 204.297406 288.729301 
L 208.45896 291.917784 
L 214.91088 296.66739 
M 214.020249 296.236651 
L 204.788181 290.182554 
L 199.955069 287.329556 
L 196.78556 285.699201 
L 194.5237 284.733816 
L 192.850977 284.193132 
L 191.603306 283.95005 
L 190.685372 283.928343 
L 190.037284 284.078201 
L 189.61938 284.364983 
L 189.404518 284.763446 
L 189.373856 285.254527 
L 189.514425 285.82344 
L 190.02869 286.797834 
L 190.895992 287.89156 
L 192.118632 289.083346 
L 193.716125 290.359179 
L 195.730204 291.712242 
L 198.236306 293.144594 
L 201.36862 294.671975 
L 205.379524 296.336311 
L 210.807983 298.242735 
L 215.847817 299.78233 
L 219.138669 300.708999 
M 218.680665 300.747938 
L 212.791081 299.677761 
L 209.084237 299.210403 
L 205.803656 299.050299 
L 203.611904 299.186302 
L 202.107077 299.496282 
L 201.085832 299.913746 
L 200.435203 300.397325 
L 200.091828 300.918303 
L 200.016259 301.32 
L 200.016259 301.32 
" clip-path="url(#pd2acdef4f0)" style="fill: none; stroke: #0000ff; stroke-width: 1.5; stroke-linecap: square"/>
   </g>
   <g id="patch_3">
    <path d="M 387.72 301.32 
C 387.72 257.226111 370.185088 214.893088 339.006 183.714 
C 307.826912 152.534912 265.493889 135 221.4 135 
C 177.306111 135 134.973088 152.534912 103.794 183.714 
C 72.614912 214.893088 55.08 257.226111 55.08 301.32 
" style="fill: none; stroke: #000000; stroke-width: 0.8; stroke-linejoin: miter; stroke-linecap: square"/>
   </g>
   <g id="patch_4">
    <path d="M 221.4 301.32 
L 55.08 301.32 
" style="fill: none; stroke: #000000; stroke-width: 0.8; stroke-linejoin: miter; stroke-linecap: square"/>
   </g>
   <g id="patch_5">
    <path d="M 221.4 301.32 
L 387.72 301.32 
" style="fill: none; stroke: #000000; stroke-width: 0.8; stroke-linejoin: miter; stroke-linecap: square"/>
   </g>
   <g id="text_14">
    <!-- $LP_{01}$ x-polarized far-field irradiance (normalized to max) -->
    <g transform="translate(53.34 75.882625) scale(0.12 -0.12)">
     <defs>
      <path id="DejaVuSans-Oblique-4c" d="M 1075 4666 
L 1709 4666 
L 909 525 
L 3181 525 
L 3078 0 
L 172 0 
L 1075 4666 
z
" transform="scale(0.015625)"/>
      <path id="DejaVuSans-Oblique-50" d="M 1081 4666 
L 2541 4666 
Q 3178 4666 3512 4369 
Q 3847 4072 3847 3500 
Q 3847 2731 3353 2303 
Q 2859 1875 1966 1875 
L 1172 1875 
L 806 0 
L 172 0 
L 1081 4666 
z
M 1613 4147 
L 1275 2394 
L 2069 2394 
Q 2606 2394 2893 2669 
Q 3181 2944 3181 3456 
Q 3181 3784 2986 3965 
Q 2791 4147 2438 4147 
L 1613 4147 
z
" transform="scale(0.015625)"/>
      <path id="DejaVuSans-20" transform="scale(0.015625)"/>
      <path id="DejaVuSans-78" d="M 3513 3500 
L 2247 1797 
L 3578 0 
L 2900 0 
L 1881 1375 
L 863 0 
L 184 0 
L 1544 1831 
L 300 3500 
L 978 3500 
L 1906 2253 
L 2834 3500 
L 3513 3500 
z
" transform="scale(0.015625)"/>
      <path id="DejaVuSans-70" d="M 1159 525 
L 1159 -1331 
L 581 -1331 
L 581 3500 
L 1159 3500 
L 1159 2969 
Q 1341 3281 1617 3432 
Q 1894 3584 2278 3584 
Q 2916 3584 3314 3078 
Q 3713 2572 3713 1747 
Q 3713 922 3314 415 
Q 2916 -91 2278 -91 
Q 1894 -91 1617 61 
Q 1341 213 1159 525 
z
M 3116 1747 
Q 3116 2381 2855 2742 
Q 2594 3103 2138 3103 
Q 1681 3103 1420 2742 
Q 1159 2381 1159 1747 
Q 1159 1113 1420 752 
Q 1681 391 2138 391 
Q 2594 391 2855 752 
Q 3116 1113 3116 1747 
z
" transform="scale(0.015625)"/>
      <path id="DejaVuSans-6f" d="M 1959 3097 
Q 1497 3097 1228 2736 
Q 959 2375 959 1747 
Q 959 1119 1226 758 
Q 1494 397 1959 397 
Q 2419 397 2687 759 
Q 2956 1122 2956 1747 
Q 2956 2369 2687 2733 
Q 2419 3097 1959 3097 
z
M 1959 3584 
Q 2709 3584 3137 3096 
Q 3566 2609 3566 1747 
Q 3566 888 3137 398 
Q 2709 -91 1959 -91 
Q 1206 -91 779 398 
Q 353 888 353 1747 
Q 353 2609 779 3096 
Q 1206 3584 1959 3584 
z
" transform="scale(0.015625)"/>
      <path id="DejaVuSans-6c" d="M 603 4863 
L 1178 4863 
L 1178 0 
L 603 0 
L 603 4863 
z
" transform="scale(0.015625)"/>
      <path id="DejaVuSans-61" d="M 2194 1759 
Q 1497 1759 1228 1600 
Q 959 1441 959 1056 
Q 959 750 1161 570 
Q 1363 391 1709 391 
Q 2188 391 2477 730 
Q 2766 1069 2766 1631 
L 2766 1759 
L 2194 1759 
z
M 3341 1997 
L 3341 0 
L 2766 0 
L 2766 531 
Q 2569 213 2275 61 
Q 1981 -91 1556 -91 
Q 1019 -91 701 211 
Q 384 513 384 1019 
Q 384 1609 779 1909 
Q 1175 2209 1959 2209 
L 2766 2209 
L 2766 2266 
Q 2766 2663 2505 2880 
Q 2244 3097 1772 3097 
Q 1472 3097 1187 3025 
Q 903 2953 641 2809 
L 641 3341 
Q 956 3463 1253 3523 
Q 1550 3584 1831 3584 
Q 2591 3584 2966 3190 
Q 3341 2797 3341 1997 
z
" transform="scale(0.015625)"/>
      <path id="DejaVuSans-72" d="M 2631 2963 
Q 2534 3019 2420 3045 
Q 2306 3072 2169 3072 
Q 1681 3072 1420 2755 
Q 1159 2438 1159 1844 
L 1159 0 
L 581 0 
L 581 3500 
L 1159 3500 
L 1159 2956 
Q 1341 3275 1631 3429 
Q 1922 3584 2338 3584 
Q 2397 3584 2469 3576 
Q 2541 3569 2628 3553 
L 2631 2963 
z
" transform="scale(0.015625)"/>
      <path id="DejaVuSans-69" d="M 603 3500 
L 1178 3500 
L 1178 0 
L 603 0 
L 603 3500 
z
M 603 4863 
L 1178 4863 
L 1178 4134 
L 603 4134 
L 603 4863 
z
" transform="scale(0.015625)"/>
      <path id="DejaVuSans-7a" d="M 353 3500 
L 3084 3500 
L 3084 2975 
L 922 459 
L 3084 459 
L 3084 0 
L 275 0 
L 275 525 
L 2438 3041 
L 353 3041 
L 353 3500 
z
" transform="scale(0.015625)"/>
      <path id="DejaVuSans-65" d="M 3597 1894 
L 3597 1613 
L 953 1613 
Q 991 1019 1311 708 
Q 1631 397 2203 397 
Q 2534 397 2845 478 
Q 3156 559 3463 722 
L 3463 178 
Q 3153 47 2828 -22 
Q 2503 -91 2169 -91 
Q 1331 -91 842 396 
Q 353 884 353 1716 
Q 353 2575 817 3079 
Q 1281 3584 2069 3584 
Q 2775 3584 3186 3129 
Q 3597 2675 3597 1894 
z
M 3022 2063 
Q 3016 2534 2758 2815 
Q 2500 3097 2075 3097 
Q 1594 3097 1305 2825 
Q 1016 2553 972 2059 
L 3022 2063 
z
" transform="scale(0.015625)"/>
      <path id="DejaVuSans-64" d="M 2906 2969 
L 2906 4863 
L 3481 4863 
L 3481 0 
L 2906 0 
L 2906 525 
Q 2725 213 2448 61 
Q 2172 -91 1784 -91 
Q 1150 -91 751 415 
Q 353 922 353 1747 
Q 353 2572 751 3078 
Q 1150 3584 1784 3584 
Q 2172 3584 2448 3432 
Q 2725 3281 2906 2969 
z
M 947 1747 
Q 947 1113 1208 752 
Q 1469 391 1925 391 
Q 2381 391 2643 752 
Q 2906 1113 2906 1747 
Q 2906 2381 2643 2742 
Q 2381 3103 1925 3103 
Q 1469 3103 1208 2742 
Q 947 2381 947 1747 
z
" transform="scale(0.015625)"/>
      <path id="DejaVuSans-66" d="M 2375 4863 
L 2375 4384 
L 1825 4384 
Q 1516 4384 1395 4259 
Q 1275 4134 1275 3809 
L 1275 3500 
L 2222 3500 
L 2222 3053 
L 1275 3053 
L 1275 0 
L 697 0 
L 697 3053 
L 147 3053 
L 147 3500 
L 697 3500 
L 697 3744 
Q 697 4328 969 4595 
Q 1241 4863 1831 4863 
L 2375 4863 
z
" transform="scale(0.015625)"/>
      <path id="DejaVuSans-6e" d="M 3513 2113 
L 3513 0 
L 2938 0 
L 2938 2094 
Q 2938 2591 2744 2837 
Q 2550 3084 2163 3084 
Q 1697 3084 1428 2787 
Q 1159 2491 1159 1978 
L 1159 0 
L 581 0 
L 581 3500 
L 1159 3500 
L 1159 2956 
Q 1366 3272 1645 3428 
Q 1925 3584 2291 3584 
Q 2894 3584 3203 3211 
Q 3513 2838 3513 2113 
z
" transform="scale(0.015625)"/>
      <path id="DejaVuSans-63" d="M 3122 3366 
L 3122 2828 
Q 2878 2963 2633 3030 
Q 2388 3097 2138 3097 
Q 1578 3097 1268 2742 
Q 959 2388 959 1747 
Q 959 1106 1268 751 
Q 1578 397 2138 397 
Q 2388 397 2633 464 
Q 2878 531 3122 666 
L 3122 134 
Q 2881 22 2623 -34 
Q 2366 -91 2075 -91 
Q 1284 -91 818 406 
Q 353 903 353 1747 
Q 353 2603 823 3093 
Q 1294 3584 2113 3584 
Q 2378 3584 2631 3529 
Q 2884 3475 3122 3366 
z
" transform="scale(0.015625)"/>
      <path id="DejaVuSans-28" d="M 1984 4856 
Q 1566 4138 1362 3434 
Q 1159 2731 1159 2009 
Q 1159 1288 1364 580 
Q 1569 -128 1984 -844 
L 1484 -844 
Q 1016 -109 783 600 
Q 550 1309 550 2009 
Q 550 2706 781 3412 
Q 1013 4119 1484 4856 
L 1984 4856 
z
" transform="scale(0.015625)"/>
      <path id="DejaVuSans-6d" d="M 3328 2828 
Q 3544 3216 3844 3400 
Q 4144 3584 4550 3584 
Q 5097 3584 5394 3201 
Q 5691 2819 5691 2113 
L 5691 0 
L 5113 0 
L 5113 2094 
Q 5113 2597 4934 2840 
Q 4756 3084 4391 3084 
Q 3944 3084 3684 2787 
Q 3425 2491 3425 1978 
L 3425 0 
L 2847 0 
L 2847 2094 
Q 2847 2600 2669 2842 
Q 2491 3084 2119 3084 
Q 1678 3084 1418 2786 
Q 1159 2488 1159 1978 
L 1159 0 
L 581 0 
L 581 3500 
L 1159 3500 
L 1159 2956 
Q 1356 3278 1631 3431 
Q 1906 3584 2284 3584 
Q 2666 3584 2933 3390 
Q 3200 3197 3328 2828 
z
" transform="scale(0.015625)"/>
      <path id="DejaVuSans-74" d="M 1172 4494 
L 1172 3500 
L 2356 3500 
L 2356 3053 
L 1172 3053 
L 1172 1153 
Q 1172 725 1289 603 
Q 1406 481 1766 481 
L 2356 481 
L 2356 0 
L 1766 0 
Q 1100 0 847 248 
Q 594 497 594 1153 
L 594 3053 
L 172 3053 
L 172 3500 
L 594 3500 
L 594 4494 
L 1172 4494 
z
" transform="scale(0.015625)"/>
      <path id="DejaVuSans-29" d="M 513 4856 
L 1013 4856 
Q 1481 4119 1714 3412 
Q 1947 2706 1947 2009 
Q 1947 1309 1714 600 
Q 1481 -109 1013 -844 
L 513 -844 
Q 928 -128 1133 580 
Q 1338 1288 1338 2009 
Q 1338 2731 1133 3434 
Q 928 4138 513 4856 
z
" transform="scale(0.015625)"/>
     </defs>
     <use xlink:href="#DejaVuSans-Oblique-4c" transform="translate(0 0.015625)"/>
     <use xlink:href="#DejaVuSans-Oblique-50" transform="translate(55.712891 0.015625)"/>
     <use xlink:href="#DejaVuSans-30" transform="translate(116.015625 -16.390625) scale(0.7)"/>
     <use xlink:href="#DejaVuSans-31" transform="translate(160.551758 -16.390625) scale(0.7)"/>
     <use xlink:href="#DejaVuSans-20" transform="translate(207.822266 0.015625)"/>
     <use xlink:href="#DejaVuSans-78" transform="translate(239.609375 0.015625)"/>
     <use xlink:href="#DejaVuSans-2d" transform="translate(298.789062 0.015625)"/>
     <use xlink:href="#DejaVuSans-70" transform="translate(334.873047 0.015625)"/>
     <use xlink:href="#DejaVuSans-6f" transform="translate(398.349609 0.015625)"/>
     <use xlink:href="#DejaVuSans-6c" transform="translate(459.53125 0.015625)"/>
     <use xlink:href="#DejaVuSans-61" transform="translate(487.314453 0.015625)"/>
     <use xlink:href="#DejaVuSans-72" transform="translate(548.59375 0.015625)"/>
     <use xlink:href="#DejaVuSans-69" transform="translate(589.707031 0.015625)"/>
     <use xlink:href="#DejaVuSans-7a" transform="translate(617.490234 0.015625)"/>
     <use xlink:href="#DejaVuSans-65" transform="translate(669.980469 0.015625)"/>
     <use xlink:href="#DejaVuSans-64" transform="translate(731.503906 0.015625)"/>
     <use xlink:href="#DejaVuSans-20" transform="translate(794.980469 0.015625)"/>
     <use xlink:href="#DejaVuSans-66" transform="translate(826.767578 0.015625)"/>
     <use xlink:href="#DejaVuSans-61" transform="translate(861.972656 0.015625)"/>
     <use xlink:href="#DejaVuSans-72" transform="translate(923.251953 0.015625)"/>
     <use xlink:href="#DejaVuSans-2d" transform="translate(964.365234 0.015625)"/>
     <use xlink:href="#DejaVuSans-66" transform="translate(1000.449219 0.015625)"/>
     <use xlink:href="#DejaVuSans-69" transform="translate(1035.654297 0.015625)"/>
     <use xlink:href="#DejaVuSans-65" transform="translate(1063.4375 0.015625)"/>
     <use xlink:href="#DejaVuSans-6c" transform="translate(1124.960938 0.015625)"/>
     <use xlink:href="#DejaVuSans-64" transform="translate(1152.744141 0.015625)"/>
     <use xlink:href="#DejaVuSans-20" transform="translate(1216.220703 0.015625)"/>
     <use xlink:href="#DejaVuSans-69" transform="translate(1248.007812 0.015625)"/>
     <use xlink:href="#DejaVuSans-72" transform="translate(1275.791016 0.015625)"/>
     <use xlink:href="#DejaVuSans-72" transform="translate(1316.904297 0.015625)"/>
     <use xlink:href="#DejaVuSans-61" transform="translate(1358.017578 0.015625)"/>
     <use xlink:href="#DejaVuSans-64" transform="translate(1419.296875 0.015625)"/>
     <use xlink:href="#DejaVuSans-69" transform="translate(1482.773438 0.015625)"/>
     <use xlink:href="#DejaVuSans-61" transform="translate(1510.556641 0.015625)"/>
     <use xlink:href="#DejaVuSans-6e" transform="translate(1571.835938 0.015625)"/>
     <use xlink:href="#DejaVuSans-63" transform="translate(1635.214844 0.015625)"/>
     <use xlink:href="#DejaVuSans-65" transform="translate(1690.195312 0.015625)"/>
     <use xlink:href="#DejaVuSans-20" transform="translate(1751.71875 0.015625)"/>
     <use xlink:href="#DejaVuSans-28" transform="translate(1783.505859 0.015625)"/>
     <use xlink:href="#DejaVuSans-6e" transform="translate(1822.519531 0.015625)"/>
     <use xlink:href="#DejaVuSans-6f" transform="translate(1885.898438 0.015625)"/>
     <use xlink:href="#DejaVuSans-72" transform="translate(1947.080078 0.015625)"/>
     <use xlink:href="#DejaVuSans-6d" transform="translate(1988.193359 0.015625)"/>
     <use xlink:href="#DejaVuSans-61" transform="translate(2085.605469 0.015625)"/>
     <use xlink:href="#DejaVuSans-6c" transform="translate(2146.884766 0.015625)"/>
     <use xlink:href="#DejaVuSans-69" transform="translate(2174.667969 0.015625)"/>
     <use xlink:href="#DejaVuSans-7a" transform="translate(2202.451172 0.015625)"/>
     <use xlink:href="#DejaVuSans-65" transform="translate(2254.941406 0.015625)"/>
     <use xlink:href="#DejaVuSans-64" transform="translate(2316.464844 0.015625)"/>
     <use xlink:href="#DejaVuSans-20" transform="translate(2379.941406 0.015625)"/>
     <use xlink:href="#DejaVuSans-74" transform="translate(2411.728516 0.015625)"/>
     <use xlink:href="#DejaVuSans-6f" transform="translate(2450.9375 0.015625)"/>
     <use xlink:href="#DejaVuSans-20" transform="translate(2512.119141 0.015625)"/>
     <use xlink:href="#DejaVuSans-6d" transform="translate(2543.90625 0.015625)"/>
     <use xlink:href="#DejaVuSans-61" transform="translate(2641.318359 0.015625)"/>
     <use xlink:href="#DejaVuSans-78" transform="translate(2702.597656 0.015625)"/>
     <use xlink:href="#DejaVuSans-29" transform="translate(2761.777344 0.015625)"/>
    </g>
    <!-- b=0.53303, V=2.40, ka=20.30 -->
    <g transform="translate(128.38125 89.344375) scale(0.12 -0.12)">
     <defs>
      <path id="DejaVuSans-62" d="M 3116 1747 
Q 3116 2381 2855 2742 
Q 2594 3103 2138 3103 
Q 1681 3103 1420 2742 
Q 1159 2381 1159 1747 
Q 1159 1113 1420 752 
Q 1681 391 2138 391 
Q 2594 391 2855 752 
Q 3116 1113 3116 1747 
z
M 1159 2969 
Q 1341 3281 1617 3432 
Q 1894 3584 2278 3584 
Q 2916 3584 3314 3078 
Q 3713 2572 3713 1747 
Q 3713 922 3314 415 
Q 2916 -91 2278 -91 
Q 1894 -91 1617 61 
Q 1341 213 1159 525 
L 1159 0 
L 581 0 
L 581 4863 
L 1159 4863 
L 1159 2969 
z
" transform="scale(0.015625)"/>
      <path id="DejaVuSans-3d" d="M 678 2906 
L 4684 2906 
L 4684 2381 
L 678 2381 
L 678 2906 
z
M 678 1631 
L 4684 1631 
L 4684 1100 
L 678 1100 
L 678 1631 
z
" transform="scale(0.015625)"/>
      <path id="DejaVuSans-2e" d="M 684 794 
L 1344 794 
L 1344 0 
L 684 0 
L 684 794 
z
" transform="scale(0.015625)"/>
      <path id="DejaVuSans-35" d="M 691 4666 
L 3169 4666 
L 3169 4134 
L 1269 4134 
L 1269 2991 
Q 1406 3038 1543 3061 
Q 1681 3084 1819 3084 
Q 2600 3084 3056 2656 
Q 3513 2228 3513 1497 
Q 3513 744 3044 326 
Q 2575 -91 1722 -91 
Q 1428 -91 1123 -41 
Q 819 9 494 109 
L 494 744 
Q 775 591 1075 516 
Q 1375 441 1709 441 
Q 2250 441 2565 725 
Q 2881 1009 2881 1497 
Q 2881 1984 2565 2268 
Q 2250 2553 1709 2553 
Q 1456 2553 1204 2497 
Q 953 2441 691 2322 
L 691 4666 
z
" transform="scale(0.015625)"/>
      <path id="DejaVuSans-2c" d="M 750 794 
L 1409 794 
L 1409 256 
L 897 -744 
L 494 -744 
L 750 256 
L 750 794 
z
" transform="scale(0.015625)"/>
      <path id="DejaVuSans-56" d="M 1831 0 
L 50 4666 
L 709 4666 
L 2188 738 
L 3669 4666 
L 4325 4666 
L 2547 0 
L 1831 0 
z
" transform="scale(0.015625)"/>
      <path id="DejaVuSans-6b" d="M 581 4863 
L 1159 4863 
L 1159 1991 
L 2875 3500 
L 3609 3500 
L 1753 1863 
L 3688 0 
L 2938 0 
L 1159 1709 
L 1159 0 
L 581 0 
L 581 4863 
z
" transform="scale(0.015625)"/>
     </defs>
     <use xlink:href="#DejaVuSans-62"/>
     <use xlink:href="#DejaVuSans-3d" x="63.476562"/>
     <use xlink:href="#DejaVuSans-30" x="147.265625"/>
     <use xlink:href="#DejaVuSans-2e" x="210.888672"/>
     <use xlink:href="#DejaVuSans-35" x="242.675781"/>
     <use xlink:href="#DejaVuSans-33" x="306.298828"/>
     <use xlink:href="#DejaVuSans-33" x="369.921875"/>
     <use xlink:href="#DejaVuSans-30" x="433.544922"/>
     <use xlink:href="#DejaVuSans-33" x="497.167969"/>
     <use xlink:href="#DejaVuSans-2c" x="560.791016"/>
     <use xlink:href="#DejaVuSans-20" x="592.578125"/>
     <use xlink:href="#DejaVuSans-56" x="624.365234"/>
     <use xlink:href="#DejaVuSans-3d" x="692.773438"/>
     <use xlink:href="#DejaVuSans-32" x="776.5625"/>
     <use xlink:href="#DejaVuSans-2e" x="840.185547"/>
     <use xlink:href="#DejaVuSans-34" x="871.972656"/>
     <use xlink:href="#DejaVuSans-30" x="935.595703"/>
     <use xlink:href="#DejaVuSans-2c" x="999.21875"/>
     <use xlink:href="#DejaVuSans-20" x="1031.005859"/>
     <use xlink:href="#DejaVuSans-6b" x="1062.792969"/>
     <use xlink:href="#DejaVuSans-61" x="1118.953125"/>
     <use xlink:href="#DejaVuSans-3d" x="1180.232422"/>
     <use xlink:href="#DejaVuSans-32" x="1264.021484"/>
     <use xlink:href="#DejaVuSans-30" x="1327.644531"/>
     <use xlink:href="#DejaVuSans-2e" x="1391.267578"/>
     <use xlink:href="#DejaVuSans-33" x="1423.054688"/>
     <use xlink:href="#DejaVuSans-30" x="1486.677734"/>
    </g>
   </g>
  </g>
  <g id="text_15">
   <!-- $\log_{10}|E_x(\theta)/E_x(0)|^2 (dB)$ -->
   <g transform="translate(99.36 330.24) scale(0.1 -0.1)">
    <defs>
     <path id="DejaVuSans-67" d="M 2906 1791 
Q 2906 2416 2648 2759 
Q 2391 3103 1925 3103 
Q 1463 3103 1205 2759 
Q 947 2416 947 1791 
Q 947 1169 1205 825 
Q 1463 481 1925 481 
Q 2391 481 2648 825 
Q 2906 1169 2906 1791 
z
M 3481 434 
Q 3481 -459 3084 -895 
Q 2688 -1331 1869 -1331 
Q 1566 -1331 1297 -1286 
Q 1028 -1241 775 -1147 
L 775 -588 
Q 1028 -725 1275 -790 
Q 1522 -856 1778 -856 
Q 2344 -856 2625 -561 
Q 2906 -266 2906 331 
L 2906 616 
Q 2728 306 2450 153 
Q 2172 0 1784 0 
Q 1141 0 747 490 
Q 353 981 353 1791 
Q 353 2603 747 3093 
Q 1141 3584 1784 3584 
Q 2172 3584 2450 3431 
Q 2728 3278 2906 2969 
L 2906 3500 
L 3481 3500 
L 3481 434 
z
" transform="scale(0.015625)"/>
     <path id="DejaVuSans-7c" d="M 1344 4891 
L 1344 -1509 
L 813 -1509 
L 813 4891 
L 1344 4891 
z
" transform="scale(0.015625)"/>
     <path id="DejaVuSans-Oblique-45" d="M 1081 4666 
L 4031 4666 
L 3928 4134 
L 1606 4134 
L 1338 2753 
L 3566 2753 
L 3463 2222 
L 1234 2222 
L 909 531 
L 3284 531 
L 3181 0 
L 172 0 
L 1081 4666 
z
" transform="scale(0.015625)"/>
     <path id="DejaVuSans-Oblique-78" d="M 3841 3500 
L 2234 1784 
L 3219 0 
L 2559 0 
L 1819 1388 
L 531 0 
L -166 0 
L 1556 1844 
L 641 3500 
L 1300 3500 
L 1972 2234 
L 3144 3500 
L 3841 3500 
z
" transform="scale(0.015625)"/>
     <path id="DejaVuSans-Oblique-3b8" d="M 2913 2219 
L 925 2219 
Q 791 1284 928 888 
Q 1100 400 1566 400 
Q 2034 400 2391 891 
Q 2703 1322 2913 2219 
z
M 3009 2750 
Q 3094 3638 2984 3950 
Q 2813 4444 2353 4444 
Q 1875 4444 1525 3956 
Q 1250 3563 1034 2750 
L 3009 2750 
z
M 2444 4913 
Q 3194 4913 3494 4250 
Q 3794 3591 3566 2422 
Q 3341 1256 2781 594 
Q 2225 -72 1475 -72 
Q 722 -72 425 594 
Q 128 1256 353 2422 
Q 581 3591 1134 4250 
Q 1691 4913 2444 4913 
z
" transform="scale(0.015625)"/>
     <path id="DejaVuSans-2f" d="M 1625 4666 
L 2156 4666 
L 531 -594 
L 0 -594 
L 1625 4666 
z
" transform="scale(0.015625)"/>
     <path id="DejaVuSans-Oblique-64" d="M 2675 525 
Q 2444 222 2128 65 
Q 1813 -91 1428 -91 
Q 903 -91 598 267 
Q 294 625 294 1247 
Q 294 1766 478 2236 
Q 663 2706 1013 3078 
Q 1244 3325 1534 3454 
Q 1825 3584 2144 3584 
Q 2481 3584 2739 3421 
Q 2997 3259 3138 2956 
L 3513 4863 
L 4091 4863 
L 3144 0 
L 2566 0 
L 2675 525 
z
M 891 1350 
Q 891 897 1095 644 
Q 1300 391 1663 391 
Q 1931 391 2161 520 
Q 2391 650 2566 903 
Q 2750 1166 2856 1509 
Q 2963 1853 2963 2188 
Q 2963 2622 2758 2865 
Q 2553 3109 2194 3109 
Q 1922 3109 1687 2981 
Q 1453 2853 1288 2613 
Q 1106 2353 998 2009 
Q 891 1666 891 1350 
z
" transform="scale(0.015625)"/>
     <path id="DejaVuSans-Oblique-42" d="M 1081 4666 
L 2694 4666 
Q 3350 4666 3675 4422 
Q 4000 4178 4000 3688 
Q 4000 3238 3720 2911 
Q 3441 2584 2988 2516 
Q 3375 2428 3569 2181 
Q 3763 1934 3763 1522 
Q 3763 819 3242 409 
Q 2722 0 1819 0 
L 172 0 
L 1081 4666 
z
M 1234 2228 
L 903 519 
L 1919 519 
Q 2491 519 2800 781 
Q 3109 1044 3109 1522 
Q 3109 1891 2904 2059 
Q 2700 2228 2247 2228 
L 1234 2228 
z
M 1606 4147 
L 1331 2741 
L 2272 2741 
Q 2775 2741 3058 2959 
Q 3341 3178 3341 3566 
Q 3341 3869 3150 4008 
Q 2959 4147 2541 4147 
L 1606 4147 
z
" transform="scale(0.015625)"/>
    </defs>
    <use xlink:href="#DejaVuSans-6c" transform="translate(0 0.765625)"/>
    <use xlink:href="#DejaVuSans-6f" transform="translate(27.783203 0.765625)"/>
    <use xlink:href="#DejaVuSans-67" transform="translate(88.964844 0.765625)"/>
    <use xlink:href="#DejaVuSans-31" transform="translate(153.398438 -15.640625) scale(0.7)"/>
    <use xlink:href="#DejaVuSans-30" transform="translate(197.93457 -15.640625) scale(0.7)"/>
    <use xlink:href="#DejaVuSans-7c" transform="translate(261.440754 0.765625)"/>
    <use xlink:href="#DejaVuSans-Oblique-45" transform="translate(295.132161 0.765625)"/>
    <use xlink:href="#DejaVuSans-Oblique-78" transform="translate(358.315754 -15.640625) scale(0.7)"/>
    <use xlink:href="#DejaVuSans-28" transform="translate(402.475911 0.765625)"/>
    <use xlink:href="#DejaVuSans-Oblique-3b8" transform="translate(441.489583 0.765625)"/>
    <use xlink:href="#DejaVuSans-29" transform="translate(502.671223 0.765625)"/>
    <use xlink:href="#DejaVuSans-2f" transform="translate(541.684895 0.765625)"/>
    <use xlink:href="#DejaVuSans-Oblique-45" transform="translate(575.376301 0.765625)"/>
    <use xlink:href="#DejaVuSans-Oblique-78" transform="translate(638.559895 -15.640625) scale(0.7)"/>
    <use xlink:href="#DejaVuSans-28" transform="translate(682.720051 0.765625)"/>
    <use xlink:href="#DejaVuSans-30" transform="translate(721.733723 0.765625)"/>
    <use xlink:href="#DejaVuSans-29" transform="translate(785.35677 0.765625)"/>
    <use xlink:href="#DejaVuSans-7c" transform="translate(824.370442 0.765625)"/>
    <use xlink:href="#DejaVuSans-32" transform="translate(859.018879 39.046875) scale(0.7)"/>
    <use xlink:href="#DejaVuSans-28" transform="translate(906.289387 0.765625)"/>
    <use xlink:href="#DejaVuSans-Oblique-64" transform="translate(945.303059 0.765625)"/>
    <use xlink:href="#DejaVuSans-Oblique-42" transform="translate(1008.779622 0.765625)"/>
    <use xlink:href="#DejaVuSans-29" transform="translate(1077.383137 0.765625)"/>
   </g>
  </g>
 </g>
 <defs>
  <clipPath id="pd2acdef4f0">
   <path d="M 387.72 301.32 
C 387.72 257.226111 370.185088 214.893088 339.006 183.714 
C 307.826912 152.534912 265.493889 135 221.4 135 
C 177.306111 135 134.973088 152.534912 103.794 183.714 
C 72.614912 214.893088 55.08 257.226111 55.08 301.32 
L 221.4 301.32 
C 221.4 301.32 221.4 301.32 221.4 301.32 
C 221.4 301.32 221.4 301.32 221.4 301.32 
C 221.4 301.32 221.4 301.32 221.4 301.32 
C 221.4 301.32 221.4 301.32 221.4 301.32 
z
"/>
  </clipPath>
 </defs>
</svg>
