<?xml version="1.0" encoding="utf-8" standalone="no"?>
<!DOCTYPE svg PUBLIC "-//W3C//DTD SVG 1.1//EN"
  "http://www.w3.org/Graphics/SVG/1.1/DTD/svg11.dtd">
<svg xmlns:xlink="http://www.w3.org/1999/xlink" width="720pt" height="432pt" viewBox="0 0 720 432" xmlns="http://www.w3.org/2000/svg" version="1.1">
 <metadata>
  <rdf:RDF xmlns:dc="http://purl.org/dc/elements/1.1/" xmlns:cc="http://creativecommons.org/ns#" xmlns:rdf="http://www.w3.org/1999/02/22-rdf-syntax-ns#">
   <cc:Work>
    <dc:type rdf:resource="http://purl.org/dc/dcmitype/StillImage"/>
    <dc:date>2024-05-04T17:48:29.963625</dc:date>
    <dc:format>image/svg+xml</dc:format>
    <dc:creator>
     <cc:Agent>
      <dc:title>Matplotlib v3.8.3, https://matplotlib.org/</dc:title>
     </cc:Agent>
    </dc:creator>
   </cc:Work>
  </rdf:RDF>
 </metadata>
 <defs>
  <style type="text/css">*{stroke-linejoin: round; stroke-linecap: butt}</style>
 </defs>
 <g id="figure_1">
  <g id="patch_1">
   <path d="M 0 432 
L 720 432 
L 720 0 
L 0 0 
z
" style="fill: #ffffff"/>
  </g>
  <g id="axes_1">
   <g id="patch_2">
    <path d="M 90 384.48 
L 648 384.48 
L 648 51.84 
L 90 51.84 
z
" style="fill: #ffffff"/>
   </g>
   <g id="patch_3">
    <path d="M 136.5 384.48 
L 136.5 51.84 
L 601.5 51.84 
L 601.5 384.48 
z
" clip-path="url(#p0a1a3abc34)" style="fill: #00ffff; opacity: 0.5; stroke: #00ffff; stroke-linejoin: miter"/>
   </g>
   <g id="matplotlib.axis_1">
    <g id="xtick_1">
     <g id="line2d_1">
      <defs>
       <path id="m3378e2cccb" d="M 0 0 
L 0 3.5 
" style="stroke: #000000; stroke-width: 0.8"/>
      </defs>
      <g>
       <use xlink:href="#m3378e2cccb" x="136.5" y="384.48" style="stroke: #000000; stroke-width: 0.8"/>
      </g>
     </g>
     <g id="text_1">
      <!-- −1.0 -->
      <g transform="translate(124.358594 399.078438) scale(0.1 -0.1)">
       <defs>
        <path id="DejaVuSans-2212" d="M 678 2272 
L 4684 2272 
L 4684 1741 
L 678 1741 
L 678 2272 
z
" transform="scale(0.015625)"/>
        <path id="DejaVuSans-31" d="M 794 531 
L 1825 531 
L 1825 4091 
L 703 3866 
L 703 4441 
L 1819 4666 
L 2450 4666 
L 2450 531 
L 3481 531 
L 3481 0 
L 794 0 
L 794 531 
z
" transform="scale(0.015625)"/>
        <path id="DejaVuSans-2e" d="M 684 794 
L 1344 794 
L 1344 0 
L 684 0 
L 684 794 
z
" transform="scale(0.015625)"/>
        <path id="DejaVuSans-30" d="M 2034 4250 
Q 1547 4250 1301 3770 
Q 1056 3291 1056 2328 
Q 1056 1369 1301 889 
Q 1547 409 2034 409 
Q 2525 409 2770 889 
Q 3016 1369 3016 2328 
Q 3016 3291 2770 3770 
Q 2525 4250 2034 4250 
z
M 2034 4750 
Q 2819 4750 3233 4129 
Q 3647 3509 3647 2328 
Q 3647 1150 3233 529 
Q 2819 -91 2034 -91 
Q 1250 -91 836 529 
Q 422 1150 422 2328 
Q 422 3509 836 4129 
Q 1250 4750 2034 4750 
z
" transform="scale(0.015625)"/>
       </defs>
       <use xlink:href="#DejaVuSans-2212"/>
       <use xlink:href="#DejaVuSans-31" x="83.789062"/>
       <use xlink:href="#DejaVuSans-2e" x="147.412109"/>
       <use xlink:href="#DejaVuSans-30" x="179.199219"/>
      </g>
     </g>
    </g>
    <g id="xtick_2">
     <g id="line2d_2">
      <g>
       <use xlink:href="#m3378e2cccb" x="252.75" y="384.48" style="stroke: #000000; stroke-width: 0.8"/>
      </g>
     </g>
     <g id="text_2">
      <!-- −0.5 -->
      <g transform="translate(240.608594 399.078438) scale(0.1 -0.1)">
       <defs>
        <path id="DejaVuSans-35" d="M 691 4666 
L 3169 4666 
L 3169 4134 
L 1269 4134 
L 1269 2991 
Q 1406 3038 1543 3061 
Q 1681 3084 1819 3084 
Q 2600 3084 3056 2656 
Q 3513 2228 3513 1497 
Q 3513 744 3044 326 
Q 2575 -91 1722 -91 
Q 1428 -91 1123 -41 
Q 819 9 494 109 
L 494 744 
Q 775 591 1075 516 
Q 1375 441 1709 441 
Q 2250 441 2565 725 
Q 2881 1009 2881 1497 
Q 2881 1984 2565 2268 
Q 2250 2553 1709 2553 
Q 1456 2553 1204 2497 
Q 953 2441 691 2322 
L 691 4666 
z
" transform="scale(0.015625)"/>
       </defs>
       <use xlink:href="#DejaVuSans-2212"/>
       <use xlink:href="#DejaVuSans-30" x="83.789062"/>
       <use xlink:href="#DejaVuSans-2e" x="147.412109"/>
       <use xlink:href="#DejaVuSans-35" x="179.199219"/>
      </g>
     </g>
    </g>
    <g id="xtick_3">
     <g id="line2d_3">
      <g>
       <use xlink:href="#m3378e2cccb" x="369" y="384.48" style="stroke: #000000; stroke-width: 0.8"/>
      </g>
     </g>
     <g id="text_3">
      <!-- 0.0 -->
      <g transform="translate(361.048437 399.078438) scale(0.1 -0.1)">
       <use xlink:href="#DejaVuSans-30"/>
       <use xlink:href="#DejaVuSans-2e" x="63.623047"/>
       <use xlink:href="#DejaVuSans-30" x="95.410156"/>
      </g>
     </g>
    </g>
    <g id="xtick_4">
     <g id="line2d_4">
      <g>
       <use xlink:href="#m3378e2cccb" x="485.25" y="384.48" style="stroke: #000000; stroke-width: 0.8"/>
      </g>
     </g>
     <g id="text_4">
      <!-- 0.5 -->
      <g transform="translate(477.298437 399.078438) scale(0.1 -0.1)">
       <use xlink:href="#DejaVuSans-30"/>
       <use xlink:href="#DejaVuSans-2e" x="63.623047"/>
       <use xlink:href="#DejaVuSans-35" x="95.410156"/>
      </g>
     </g>
    </g>
    <g id="xtick_5">
     <g id="line2d_5">
      <g>
       <use xlink:href="#m3378e2cccb" x="601.5" y="384.48" style="stroke: #000000; stroke-width: 0.8"/>
      </g>
     </g>
     <g id="text_5">
      <!-- 1.0 -->
      <g transform="translate(593.548437 399.078438) scale(0.1 -0.1)">
       <use xlink:href="#DejaVuSans-31"/>
       <use xlink:href="#DejaVuSans-2e" x="63.623047"/>
       <use xlink:href="#DejaVuSans-30" x="95.410156"/>
      </g>
     </g>
    </g>
    <g id="text_6">
     <!-- r / r$_{core}$ -->
     <g transform="translate(352.15 412.756563) scale(0.1 -0.1)">
      <defs>
       <path id="DejaVuSans-72" d="M 2631 2963 
Q 2534 3019 2420 3045 
Q 2306 3072 2169 3072 
Q 1681 3072 1420 2755 
Q 1159 2438 1159 1844 
L 1159 0 
L 581 0 
L 581 3500 
L 1159 3500 
L 1159 2956 
Q 1341 3275 1631 3429 
Q 1922 3584 2338 3584 
Q 2397 3584 2469 3576 
Q 2541 3569 2628 3553 
L 2631 2963 
z
" transform="scale(0.015625)"/>
       <path id="DejaVuSans-20" transform="scale(0.015625)"/>
       <path id="DejaVuSans-2f" d="M 1625 4666 
L 2156 4666 
L 531 -594 
L 0 -594 
L 1625 4666 
z
" transform="scale(0.015625)"/>
       <path id="DejaVuSans-Oblique-63" d="M 3431 3366 
L 3316 2797 
Q 3109 2947 2876 3022 
Q 2644 3097 2394 3097 
Q 2119 3097 1870 3000 
Q 1622 2903 1453 2725 
Q 1184 2453 1037 2087 
Q 891 1722 891 1331 
Q 891 859 1127 628 
Q 1363 397 1844 397 
Q 2081 397 2348 469 
Q 2616 541 2906 684 
L 2797 116 
Q 2547 13 2283 -39 
Q 2019 -91 1741 -91 
Q 1044 -91 669 257 
Q 294 606 294 1253 
Q 294 1797 489 2255 
Q 684 2713 1069 3078 
Q 1331 3328 1684 3456 
Q 2038 3584 2456 3584 
Q 2700 3584 2940 3529 
Q 3181 3475 3431 3366 
z
" transform="scale(0.015625)"/>
       <path id="DejaVuSans-Oblique-6f" d="M 1625 -91 
Q 1009 -91 651 289 
Q 294 669 294 1325 
Q 294 1706 417 2101 
Q 541 2497 738 2766 
Q 1047 3184 1428 3384 
Q 1809 3584 2291 3584 
Q 2888 3584 3255 3212 
Q 3622 2841 3622 2241 
Q 3622 1825 3500 1412 
Q 3378 1000 3181 728 
Q 2875 309 2494 109 
Q 2113 -91 1625 -91 
z
M 891 1344 
Q 891 869 1089 633 
Q 1288 397 1691 397 
Q 2269 397 2648 901 
Q 3028 1406 3028 2181 
Q 3028 2634 2825 2865 
Q 2622 3097 2228 3097 
Q 1903 3097 1650 2945 
Q 1397 2794 1197 2484 
Q 1050 2253 970 1956 
Q 891 1659 891 1344 
z
" transform="scale(0.015625)"/>
       <path id="DejaVuSans-Oblique-72" d="M 2853 2969 
Q 2766 3016 2653 3041 
Q 2541 3066 2413 3066 
Q 1953 3066 1609 2717 
Q 1266 2369 1153 1784 
L 800 0 
L 225 0 
L 909 3500 
L 1484 3500 
L 1375 2956 
Q 1603 3259 1920 3421 
Q 2238 3584 2597 3584 
Q 2691 3584 2781 3573 
Q 2872 3563 2963 3538 
L 2853 2969 
z
" transform="scale(0.015625)"/>
       <path id="DejaVuSans-Oblique-65" d="M 3078 2063 
Q 3088 2113 3092 2166 
Q 3097 2219 3097 2272 
Q 3097 2653 2873 2875 
Q 2650 3097 2266 3097 
Q 1838 3097 1509 2826 
Q 1181 2556 1013 2059 
L 3078 2063 
z
M 3578 1613 
L 903 1613 
Q 884 1494 878 1425 
Q 872 1356 872 1306 
Q 872 872 1139 634 
Q 1406 397 1894 397 
Q 2269 397 2603 481 
Q 2938 566 3225 728 
L 3116 159 
Q 2806 34 2476 -28 
Q 2147 -91 1806 -91 
Q 1078 -91 686 257 
Q 294 606 294 1247 
Q 294 1794 489 2264 
Q 684 2734 1063 3103 
Q 1306 3334 1642 3459 
Q 1978 3584 2356 3584 
Q 2950 3584 3301 3228 
Q 3653 2872 3653 2272 
Q 3653 2128 3634 1964 
Q 3616 1800 3578 1613 
z
" transform="scale(0.015625)"/>
      </defs>
      <use xlink:href="#DejaVuSans-72" transform="translate(0 0.09375)"/>
      <use xlink:href="#DejaVuSans-20" transform="translate(41.113281 0.09375)"/>
      <use xlink:href="#DejaVuSans-2f" transform="translate(72.900391 0.09375)"/>
      <use xlink:href="#DejaVuSans-20" transform="translate(106.591797 0.09375)"/>
      <use xlink:href="#DejaVuSans-72" transform="translate(138.378906 0.09375)"/>
      <use xlink:href="#DejaVuSans-Oblique-63" transform="translate(180.449219 -16.3125) scale(0.7)"/>
      <use xlink:href="#DejaVuSans-Oblique-6f" transform="translate(218.935547 -16.3125) scale(0.7)"/>
      <use xlink:href="#DejaVuSans-Oblique-72" transform="translate(261.762695 -16.3125) scale(0.7)"/>
      <use xlink:href="#DejaVuSans-Oblique-65" transform="translate(290.541992 -16.3125) scale(0.7)"/>
     </g>
    </g>
   </g>
   <g id="matplotlib.axis_2">
    <g id="ytick_1">
     <g id="line2d_6">
      <defs>
       <path id="m4a1c70e219" d="M 0 0 
L -3.5 0 
" style="stroke: #000000; stroke-width: 0.8"/>
      </defs>
      <g>
       <use xlink:href="#m4a1c70e219" x="90" y="384.48" style="stroke: #000000; stroke-width: 0.8"/>
      </g>
     </g>
     <g id="text_7">
      <!-- 0 -->
      <g transform="translate(76.6375 388.279219) scale(0.1 -0.1)">
       <use xlink:href="#DejaVuSans-30"/>
      </g>
     </g>
    </g>
    <g id="ytick_2">
     <g id="line2d_7">
      <g>
       <use xlink:href="#m4a1c70e219" x="90" y="317.952" style="stroke: #000000; stroke-width: 0.8"/>
      </g>
     </g>
     <g id="text_8">
      <!-- 2 -->
      <g transform="translate(76.6375 321.751219) scale(0.1 -0.1)">
       <defs>
        <path id="DejaVuSans-32" d="M 1228 531 
L 3431 531 
L 3431 0 
L 469 0 
L 469 531 
Q 828 903 1448 1529 
Q 2069 2156 2228 2338 
Q 2531 2678 2651 2914 
Q 2772 3150 2772 3378 
Q 2772 3750 2511 3984 
Q 2250 4219 1831 4219 
Q 1534 4219 1204 4116 
Q 875 4013 500 3803 
L 500 4441 
Q 881 4594 1212 4672 
Q 1544 4750 1819 4750 
Q 2544 4750 2975 4387 
Q 3406 4025 3406 3419 
Q 3406 3131 3298 2873 
Q 3191 2616 2906 2266 
Q 2828 2175 2409 1742 
Q 1991 1309 1228 531 
z
" transform="scale(0.015625)"/>
       </defs>
       <use xlink:href="#DejaVuSans-32"/>
      </g>
     </g>
    </g>
    <g id="ytick_3">
     <g id="line2d_8">
      <g>
       <use xlink:href="#m4a1c70e219" x="90" y="251.424" style="stroke: #000000; stroke-width: 0.8"/>
      </g>
     </g>
     <g id="text_9">
      <!-- 4 -->
      <g transform="translate(76.6375 255.223219) scale(0.1 -0.1)">
       <defs>
        <path id="DejaVuSans-34" d="M 2419 4116 
L 825 1625 
L 2419 1625 
L 2419 4116 
z
M 2253 4666 
L 3047 4666 
L 3047 1625 
L 3713 1625 
L 3713 1100 
L 3047 1100 
L 3047 0 
L 2419 0 
L 2419 1100 
L 313 1100 
L 313 1709 
L 2253 4666 
z
" transform="scale(0.015625)"/>
       </defs>
       <use xlink:href="#DejaVuSans-34"/>
      </g>
     </g>
    </g>
    <g id="ytick_4">
     <g id="line2d_9">
      <g>
       <use xlink:href="#m4a1c70e219" x="90" y="184.896" style="stroke: #000000; stroke-width: 0.8"/>
      </g>
     </g>
     <g id="text_10">
      <!-- 6 -->
      <g transform="translate(76.6375 188.695219) scale(0.1 -0.1)">
       <defs>
        <path id="DejaVuSans-36" d="M 2113 2584 
Q 1688 2584 1439 2293 
Q 1191 2003 1191 1497 
Q 1191 994 1439 701 
Q 1688 409 2113 409 
Q 2538 409 2786 701 
Q 3034 994 3034 1497 
Q 3034 2003 2786 2293 
Q 2538 2584 2113 2584 
z
M 3366 4563 
L 3366 3988 
Q 3128 4100 2886 4159 
Q 2644 4219 2406 4219 
Q 1781 4219 1451 3797 
Q 1122 3375 1075 2522 
Q 1259 2794 1537 2939 
Q 1816 3084 2150 3084 
Q 2853 3084 3261 2657 
Q 3669 2231 3669 1497 
Q 3669 778 3244 343 
Q 2819 -91 2113 -91 
Q 1303 -91 875 529 
Q 447 1150 447 2328 
Q 447 3434 972 4092 
Q 1497 4750 2381 4750 
Q 2619 4750 2861 4703 
Q 3103 4656 3366 4563 
z
" transform="scale(0.015625)"/>
       </defs>
       <use xlink:href="#DejaVuSans-36"/>
      </g>
     </g>
    </g>
    <g id="ytick_5">
     <g id="line2d_10">
      <g>
       <use xlink:href="#m4a1c70e219" x="90" y="118.368" style="stroke: #000000; stroke-width: 0.8"/>
      </g>
     </g>
     <g id="text_11">
      <!-- 8 -->
      <g transform="translate(76.6375 122.167219) scale(0.1 -0.1)">
       <defs>
        <path id="DejaVuSans-38" d="M 2034 2216 
Q 1584 2216 1326 1975 
Q 1069 1734 1069 1313 
Q 1069 891 1326 650 
Q 1584 409 2034 409 
Q 2484 409 2743 651 
Q 3003 894 3003 1313 
Q 3003 1734 2745 1975 
Q 2488 2216 2034 2216 
z
M 1403 2484 
Q 997 2584 770 2862 
Q 544 3141 544 3541 
Q 544 4100 942 4425 
Q 1341 4750 2034 4750 
Q 2731 4750 3128 4425 
Q 3525 4100 3525 3541 
Q 3525 3141 3298 2862 
Q 3072 2584 2669 2484 
Q 3125 2378 3379 2068 
Q 3634 1759 3634 1313 
Q 3634 634 3220 271 
Q 2806 -91 2034 -91 
Q 1263 -91 848 271 
Q 434 634 434 1313 
Q 434 1759 690 2068 
Q 947 2378 1403 2484 
z
M 1172 3481 
Q 1172 3119 1398 2916 
Q 1625 2713 2034 2713 
Q 2441 2713 2670 2916 
Q 2900 3119 2900 3481 
Q 2900 3844 2670 4047 
Q 2441 4250 2034 4250 
Q 1625 4250 1398 4047 
Q 1172 3844 1172 3481 
z
" transform="scale(0.015625)"/>
       </defs>
       <use xlink:href="#DejaVuSans-38"/>
      </g>
     </g>
    </g>
    <g id="ytick_6">
     <g id="line2d_11">
      <g>
       <use xlink:href="#m4a1c70e219" x="90" y="51.84" style="stroke: #000000; stroke-width: 0.8"/>
      </g>
     </g>
     <g id="text_12">
      <!-- 10 -->
      <g transform="translate(70.275 55.639219) scale(0.1 -0.1)">
       <use xlink:href="#DejaVuSans-31"/>
       <use xlink:href="#DejaVuSans-30" x="63.623047"/>
      </g>
     </g>
    </g>
    <g id="text_13">
     <!-- Normalized Irradiance -->
     <g transform="translate(64.195312 273.288906) rotate(-90) scale(0.1 -0.1)">
      <defs>
       <path id="DejaVuSans-4e" d="M 628 4666 
L 1478 4666 
L 3547 763 
L 3547 4666 
L 4159 4666 
L 4159 0 
L 3309 0 
L 1241 3903 
L 1241 0 
L 628 0 
L 628 4666 
z
" transform="scale(0.015625)"/>
       <path id="DejaVuSans-6f" d="M 1959 3097 
Q 1497 3097 1228 2736 
Q 959 2375 959 1747 
Q 959 1119 1226 758 
Q 1494 397 1959 397 
Q 2419 397 2687 759 
Q 2956 1122 2956 1747 
Q 2956 2369 2687 2733 
Q 2419 3097 1959 3097 
z
M 1959 3584 
Q 2709 3584 3137 3096 
Q 3566 2609 3566 1747 
Q 3566 888 3137 398 
Q 2709 -91 1959 -91 
Q 1206 -91 779 398 
Q 353 888 353 1747 
Q 353 2609 779 3096 
Q 1206 3584 1959 3584 
z
" transform="scale(0.015625)"/>
       <path id="DejaVuSans-6d" d="M 3328 2828 
Q 3544 3216 3844 3400 
Q 4144 3584 4550 3584 
Q 5097 3584 5394 3201 
Q 5691 2819 5691 2113 
L 5691 0 
L 5113 0 
L 5113 2094 
Q 5113 2597 4934 2840 
Q 4756 3084 4391 3084 
Q 3944 3084 3684 2787 
Q 3425 2491 3425 1978 
L 3425 0 
L 2847 0 
L 2847 2094 
Q 2847 2600 2669 2842 
Q 2491 3084 2119 3084 
Q 1678 3084 1418 2786 
Q 1159 2488 1159 1978 
L 1159 0 
L 581 0 
L 581 3500 
L 1159 3500 
L 1159 2956 
Q 1356 3278 1631 3431 
Q 1906 3584 2284 3584 
Q 2666 3584 2933 3390 
Q 3200 3197 3328 2828 
z
" transform="scale(0.015625)"/>
       <path id="DejaVuSans-61" d="M 2194 1759 
Q 1497 1759 1228 1600 
Q 959 1441 959 1056 
Q 959 750 1161 570 
Q 1363 391 1709 391 
Q 2188 391 2477 730 
Q 2766 1069 2766 1631 
L 2766 1759 
L 2194 1759 
z
M 3341 1997 
L 3341 0 
L 2766 0 
L 2766 531 
Q 2569 213 2275 61 
Q 1981 -91 1556 -91 
Q 1019 -91 701 211 
Q 384 513 384 1019 
Q 384 1609 779 1909 
Q 1175 2209 1959 2209 
L 2766 2209 
L 2766 2266 
Q 2766 2663 2505 2880 
Q 2244 3097 1772 3097 
Q 1472 3097 1187 3025 
Q 903 2953 641 2809 
L 641 3341 
Q 956 3463 1253 3523 
Q 1550 3584 1831 3584 
Q 2591 3584 2966 3190 
Q 3341 2797 3341 1997 
z
" transform="scale(0.015625)"/>
       <path id="DejaVuSans-6c" d="M 603 4863 
L 1178 4863 
L 1178 0 
L 603 0 
L 603 4863 
z
" transform="scale(0.015625)"/>
       <path id="DejaVuSans-69" d="M 603 3500 
L 1178 3500 
L 1178 0 
L 603 0 
L 603 3500 
z
M 603 4863 
L 1178 4863 
L 1178 4134 
L 603 4134 
L 603 4863 
z
" transform="scale(0.015625)"/>
       <path id="DejaVuSans-7a" d="M 353 3500 
L 3084 3500 
L 3084 2975 
L 922 459 
L 3084 459 
L 3084 0 
L 275 0 
L 275 525 
L 2438 3041 
L 353 3041 
L 353 3500 
z
" transform="scale(0.015625)"/>
       <path id="DejaVuSans-65" d="M 3597 1894 
L 3597 1613 
L 953 1613 
Q 991 1019 1311 708 
Q 1631 397 2203 397 
Q 2534 397 2845 478 
Q 3156 559 3463 722 
L 3463 178 
Q 3153 47 2828 -22 
Q 2503 -91 2169 -91 
Q 1331 -91 842 396 
Q 353 884 353 1716 
Q 353 2575 817 3079 
Q 1281 3584 2069 3584 
Q 2775 3584 3186 3129 
Q 3597 2675 3597 1894 
z
M 3022 2063 
Q 3016 2534 2758 2815 
Q 2500 3097 2075 3097 
Q 1594 3097 1305 2825 
Q 1016 2553 972 2059 
L 3022 2063 
z
" transform="scale(0.015625)"/>
       <path id="DejaVuSans-64" d="M 2906 2969 
L 2906 4863 
L 3481 4863 
L 3481 0 
L 2906 0 
L 2906 525 
Q 2725 213 2448 61 
Q 2172 -91 1784 -91 
Q 1150 -91 751 415 
Q 353 922 353 1747 
Q 353 2572 751 3078 
Q 1150 3584 1784 3584 
Q 2172 3584 2448 3432 
Q 2725 3281 2906 2969 
z
M 947 1747 
Q 947 1113 1208 752 
Q 1469 391 1925 391 
Q 2381 391 2643 752 
Q 2906 1113 2906 1747 
Q 2906 2381 2643 2742 
Q 2381 3103 1925 3103 
Q 1469 3103 1208 2742 
Q 947 2381 947 1747 
z
" transform="scale(0.015625)"/>
       <path id="DejaVuSans-49" d="M 628 4666 
L 1259 4666 
L 1259 0 
L 628 0 
L 628 4666 
z
" transform="scale(0.015625)"/>
       <path id="DejaVuSans-6e" d="M 3513 2113 
L 3513 0 
L 2938 0 
L 2938 2094 
Q 2938 2591 2744 2837 
Q 2550 3084 2163 3084 
Q 1697 3084 1428 2787 
Q 1159 2491 1159 1978 
L 1159 0 
L 581 0 
L 581 3500 
L 1159 3500 
L 1159 2956 
Q 1366 3272 1645 3428 
Q 1925 3584 2291 3584 
Q 2894 3584 3203 3211 
Q 3513 2838 3513 2113 
z
" transform="scale(0.015625)"/>
       <path id="DejaVuSans-63" d="M 3122 3366 
L 3122 2828 
Q 2878 2963 2633 3030 
Q 2388 3097 2138 3097 
Q 1578 3097 1268 2742 
Q 959 2388 959 1747 
Q 959 1106 1268 751 
Q 1578 397 2138 397 
Q 2388 397 2633 464 
Q 2878 531 3122 666 
L 3122 134 
Q 2881 22 2623 -34 
Q 2366 -91 2075 -91 
Q 1284 -91 818 406 
Q 353 903 353 1747 
Q 353 2603 823 3093 
Q 1294 3584 2113 3584 
Q 2378 3584 2631 3529 
Q 2884 3475 3122 3366 
z
" transform="scale(0.015625)"/>
      </defs>
      <use xlink:href="#DejaVuSans-4e"/>
      <use xlink:href="#DejaVuSans-6f" x="74.804688"/>
      <use xlink:href="#DejaVuSans-72" x="135.986328"/>
      <use xlink:href="#DejaVuSans-6d" x="175.349609"/>
      <use xlink:href="#DejaVuSans-61" x="272.761719"/>
      <use xlink:href="#DejaVuSans-6c" x="334.041016"/>
      <use xlink:href="#DejaVuSans-69" x="361.824219"/>
      <use xlink:href="#DejaVuSans-7a" x="389.607422"/>
      <use xlink:href="#DejaVuSans-65" x="442.097656"/>
      <use xlink:href="#DejaVuSans-64" x="503.621094"/>
      <use xlink:href="#DejaVuSans-20" x="567.097656"/>
      <use xlink:href="#DejaVuSans-49" x="598.884766"/>
      <use xlink:href="#DejaVuSans-72" x="628.376953"/>
      <use xlink:href="#DejaVuSans-72" x="667.740234"/>
      <use xlink:href="#DejaVuSans-61" x="708.853516"/>
      <use xlink:href="#DejaVuSans-64" x="770.132812"/>
      <use xlink:href="#DejaVuSans-69" x="833.609375"/>
      <use xlink:href="#DejaVuSans-61" x="861.392578"/>
      <use xlink:href="#DejaVuSans-6e" x="922.671875"/>
      <use xlink:href="#DejaVuSans-63" x="986.050781"/>
      <use xlink:href="#DejaVuSans-65" x="1041.03125"/>
     </g>
    </g>
   </g>
   <g id="line2d_12">
    <path d="M 90 383.777494 
L 95.636364 383.505089 
L 101.272727 383.126513 
L 106.909091 382.600144 
L 112.545455 381.867933 
L 118.181818 380.848874 
L 123.818182 379.429847 
L 129.454545 377.452787 
L 135.090909 374.696663 
L 140.727273 371.117801 
L 146.363636 367.268689 
L 152 363.355717 
L 157.636364 359.573556 
L 163.272727 356.118868 
L 168.909091 353.179842 
L 174.545455 350.925657 
L 180.181818 349.49639 
L 185.818182 348.993879 
L 191.454545 349.474054 
L 197.090909 350.941146 
L 202.727273 353.344147 
L 208.363636 356.575787 
L 214 360.474173 
L 219.636364 364.827118 
L 225.272727 369.379071 
L 230.909091 373.840414 
L 236.545455 377.898795 
L 242.181818 381.232042 
L 247.818182 383.522127 
L 253.454545 384.469585 
L 259.090909 383.80775 
L 264.727273 381.316161 
L 270.363636 376.832519 
L 276 370.262614 
L 281.636364 361.587734 
L 287.272727 350.869146 
L 292.909091 338.249389 
L 298.545455 323.950226 
L 304.181818 308.26727 
L 309.818182 291.561428 
L 315.454545 274.247461 
L 321.090909 256.780088 
L 326.727273 239.638158 
L 332.363636 223.307536 
L 338 208.263379 
L 343.636364 194.952543 
L 349.272727 183.776837 
L 354.909091 175.077836 
L 360.545455 169.123875 
L 366.181818 166.09978 
L 371.818182 166.09978 
L 377.454545 169.123875 
L 383.090909 175.077836 
L 388.727273 183.776837 
L 394.363636 194.952543 
L 400 208.263379 
L 405.636364 223.307536 
L 411.272727 239.638158 
L 416.909091 256.780088 
L 422.545455 274.247461 
L 428.181818 291.561428 
L 433.818182 308.26727 
L 439.454545 323.950226 
L 445.090909 338.249389 
L 450.727273 350.869146 
L 456.363636 361.587734 
L 462 370.262614 
L 467.636364 376.832519 
L 473.272727 381.316161 
L 478.909091 383.80775 
L 484.545455 384.469585 
L 490.181818 383.522127 
L 495.818182 381.232042 
L 501.454545 377.898795 
L 507.090909 373.840414 
L 512.727273 369.379071 
L 518.363636 364.827118 
L 524 360.474173 
L 529.636364 356.575787 
L 535.272727 353.344147 
L 540.909091 350.941146 
L 546.545455 349.474054 
L 552.181818 348.993879 
L 557.818182 349.49639 
L 563.454545 350.925657 
L 569.090909 353.179842 
L 574.727273 356.118868 
L 580.363636 359.573556 
L 586 363.355717 
L 591.636364 367.268689 
L 597.272727 371.117801 
L 602.909091 374.696663 
L 608.545455 377.452787 
L 614.181818 379.429847 
L 619.818182 380.848874 
L 625.454545 381.867933 
L 631.090909 382.600144 
L 636.727273 383.126513 
L 642.363636 383.505089 
L 648 383.777494 
" clip-path="url(#p0a1a3abc34)" style="fill: none; stroke: #1f77b4; stroke-width: 1.5; stroke-linecap: square"/>
   </g>
   <g id="line2d_13">
    <path d="M 90 378.835386 
L 95.636364 377.854554 
L 101.272727 376.700329 
L 106.909091 375.341407 
L 112.545455 373.740684 
L 118.181818 371.854151 
L 123.818182 369.629558 
L 129.454545 367.004821 
L 135.090909 363.906103 
L 140.727273 360.737436 
L 146.363636 358.848546 
L 152 358.563704 
L 157.636364 359.960905 
L 163.272727 362.90029 
L 168.909091 367.030432 
L 174.545455 371.821917 
L 180.181818 376.625354 
L 185.818182 380.747794 
L 191.454545 383.538956 
L 197.090909 384.47699 
L 202.727273 383.243092 
L 208.363636 379.775041 
L 214 374.291826 
L 219.636364 367.284598 
L 225.272727 359.472997 
L 230.909091 351.730031 
L 236.545455 344.982554 
L 242.181818 340.097738 
L 247.818182 337.768088 
L 253.454545 338.408441 
L 259.090909 342.077722 
L 264.727273 348.436081 
L 270.363636 356.74454 
L 276 365.90991 
L 281.636364 374.572742 
L 287.272727 381.23125 
L 292.909091 384.389809 
L 298.545455 382.717456 
L 304.181818 375.200064 
L 309.818182 361.269872 
L 315.454545 340.897797 
L 321.090909 314.637315 
L 326.727273 283.613406 
L 332.363636 249.455496 
L 338 214.17914 
L 343.636364 180.026489 
L 349.272727 149.280097 
L 354.909091 124.067561 
L 360.545455 106.175757 
L 366.181818 96.892728 
L 371.818182 96.892728 
L 377.454545 106.175757 
L 383.090909 124.067561 
L 388.727273 149.280097 
L 394.363636 180.026489 
L 400 214.17914 
L 405.636364 249.455496 
L 411.272727 283.613406 
L 416.909091 314.637315 
L 422.545455 340.897797 
L 428.181818 361.269872 
L 433.818182 375.200064 
L 439.454545 382.717456 
L 445.090909 384.389809 
L 450.727273 381.23125 
L 456.363636 374.572742 
L 462 365.90991 
L 467.636364 356.74454 
L 473.272727 348.436081 
L 478.909091 342.077722 
L 484.545455 338.408441 
L 490.181818 337.768088 
L 495.818182 340.097738 
L 501.454545 344.982554 
L 507.090909 351.730031 
L 512.727273 359.472997 
L 518.363636 367.284598 
L 524 374.291826 
L 529.636364 379.775041 
L 535.272727 383.243092 
L 540.909091 384.47699 
L 546.545455 383.538956 
L 552.181818 380.747794 
L 557.818182 376.625354 
L 563.454545 371.821917 
L 569.090909 367.030432 
L 574.727273 362.90029 
L 580.363636 359.960905 
L 586 358.563704 
L 591.636364 358.848546 
L 597.272727 360.737436 
L 602.909091 363.906103 
L 608.545455 367.004821 
L 614.181818 369.629558 
L 619.818182 371.854151 
L 625.454545 373.740684 
L 631.090909 375.341407 
L 636.727273 376.700329 
L 642.363636 377.854554 
L 648 378.835386 
" clip-path="url(#p0a1a3abc34)" style="fill: none; stroke: #ff7f0e; stroke-width: 1.5; stroke-linecap: square"/>
   </g>
   <g id="line2d_14">
    <path d="M 90 382.753292 
L 95.636364 382.215625 
L 101.272727 381.509021 
L 106.909091 380.579839 
L 112.545455 379.357192 
L 118.181818 377.747324 
L 123.818182 375.626115 
L 129.454545 372.829091 
L 135.090909 369.138076 
L 140.727273 364.662701 
L 146.363636 360.395343 
L 152 356.723842 
L 157.636364 353.963779 
L 163.272727 352.36691 
L 168.909091 352.096834 
L 174.545455 353.210827 
L 180.181818 355.649561 
L 185.818182 359.23585 
L 191.454545 363.682861 
L 197.090909 368.611508 
L 202.727273 373.575996 
L 208.363636 378.095801 
L 214 381.691802 
L 219.636364 383.923904 
L 225.272727 384.427254 
L 230.909091 382.944214 
L 236.545455 379.349453 
L 242.181818 373.666015 
L 247.818182 366.070825 
L 253.454545 356.888865 
L 259.090909 346.576114 
L 264.727273 335.69218 
L 270.363636 324.864358 
L 276 314.745569 
L 281.636364 305.969103 
L 287.272727 299.103438 
L 292.909091 294.61045 
L 298.545455 292.810143 
L 304.181818 293.854626 
L 309.818182 297.713403 
L 315.454545 304.171259 
L 321.090909 312.83913 
L 326.727273 323.177361 
L 332.363636 334.529903 
L 338 346.167111 
L 343.636364 357.334225 
L 349.272727 367.30212 
L 354.909091 375.416753 
L 360.545455 381.143781 
L 366.181818 384.105171 
L 371.818182 384.105171 
L 377.454545 381.143781 
L 383.090909 375.416753 
L 388.727273 367.30212 
L 394.363636 357.334225 
L 400 346.167111 
L 405.636364 334.529903 
L 411.272727 323.177361 
L 416.909091 312.83913 
L 422.545455 304.171259 
L 428.181818 297.713403 
L 433.818182 293.854626 
L 439.454545 292.810143 
L 445.090909 294.61045 
L 450.727273 299.103438 
L 456.363636 305.969103 
L 462 314.745569 
L 467.636364 324.864358 
L 473.272727 335.69218 
L 478.909091 346.576114 
L 484.545455 356.888865 
L 490.181818 366.070825 
L 495.818182 373.666015 
L 501.454545 379.349453 
L 507.090909 382.944214 
L 512.727273 384.427254 
L 518.363636 383.923904 
L 524 381.691802 
L 529.636364 378.095801 
L 535.272727 373.575996 
L 540.909091 368.611508 
L 546.545455 363.682861 
L 552.181818 359.23585 
L 557.818182 355.649561 
L 563.454545 353.210827 
L 569.090909 352.096834 
L 574.727273 352.36691 
L 580.363636 353.963779 
L 586 356.723842 
L 591.636364 360.395343 
L 597.272727 364.662701 
L 602.909091 369.138076 
L 608.545455 372.829091 
L 614.181818 375.626115 
L 619.818182 377.747324 
L 625.454545 379.357192 
L 631.090909 380.579839 
L 636.727273 381.509021 
L 642.363636 382.215625 
L 648 382.753292 
" clip-path="url(#p0a1a3abc34)" style="fill: none; stroke: #2ca02c; stroke-width: 1.5; stroke-linecap: square"/>
   </g>
   <g id="line2d_15">
    <path d="M 90 380.284719 
L 95.636364 379.380947 
L 101.272727 378.276294 
L 106.909091 376.924417 
L 112.545455 375.267795 
L 118.181818 373.234898 
L 123.818182 370.736581 
L 129.454545 367.6615 
L 135.090909 363.870253 
L 140.727273 359.696155 
L 146.363636 356.512474 
L 152 354.743656 
L 157.636364 354.617688 
L 163.272727 356.183597 
L 168.909091 359.298658 
L 174.545455 363.63636 
L 180.181818 368.714748 
L 185.818182 373.942526 
L 191.454545 378.678263 
L 197.090909 382.296578 
L 202.727273 384.254287 
L 208.363636 384.149433 
L 214 381.766799 
L 219.636364 377.104913 
L 225.272727 370.381503 
L 230.909091 362.016681 
L 236.545455 352.595497 
L 242.181818 342.813744 
L 247.818182 333.412676 
L 253.454545 325.109467 
L 259.090909 318.530657 
L 264.727273 314.155469 
L 270.363636 312.274727 
L 276 312.969385 
L 281.636364 316.110464 
L 287.272727 321.379892 
L 292.909091 328.309439 
L 298.545455 336.333036 
L 304.181818 344.846406 
L 309.818182 353.267271 
L 315.454545 361.089504 
L 321.090909 367.925468 
L 326.727273 373.532287 
L 332.363636 377.819774 
L 338 380.839914 
L 343.636364 382.760011 
L 349.272727 383.823479 
L 354.909091 384.303641 
L 360.545455 384.456661 
L 366.181818 384.479709 
L 371.818182 384.479709 
L 377.454545 384.456661 
L 383.090909 384.303641 
L 388.727273 383.823479 
L 394.363636 382.760011 
L 400 380.839914 
L 405.636364 377.819774 
L 411.272727 373.532287 
L 416.909091 367.925468 
L 422.545455 361.089504 
L 428.181818 353.267271 
L 433.818182 344.846406 
L 439.454545 336.333036 
L 445.090909 328.309439 
L 450.727273 321.379892 
L 456.363636 316.110464 
L 462 312.969385 
L 467.636364 312.274727 
L 473.272727 314.155469 
L 478.909091 318.530657 
L 484.545455 325.109467 
L 490.181818 333.412676 
L 495.818182 342.813744 
L 501.454545 352.595497 
L 507.090909 362.016681 
L 512.727273 370.381503 
L 518.363636 377.104913 
L 524 381.766799 
L 529.636364 384.149433 
L 535.272727 384.254287 
L 540.909091 382.296578 
L 546.545455 378.678263 
L 552.181818 373.942526 
L 557.818182 368.714748 
L 563.454545 363.63636 
L 569.090909 359.298658 
L 574.727273 356.183597 
L 580.363636 354.617688 
L 586 354.743656 
L 591.636364 356.512474 
L 597.272727 359.696155 
L 602.909091 363.870253 
L 608.545455 367.6615 
L 614.181818 370.736581 
L 619.818182 373.234898 
L 625.454545 375.267795 
L 631.090909 376.924417 
L 636.727273 378.276294 
L 642.363636 379.380947 
L 648 380.284719 
" clip-path="url(#p0a1a3abc34)" style="fill: none; stroke: #d62728; stroke-width: 1.5; stroke-linecap: square"/>
   </g>
   <g id="line2d_16">
    <path d="M 136.5 384.48 
L 136.5 51.84 
" clip-path="url(#p0a1a3abc34)" style="fill: none; stroke-dasharray: 1.5,2.475; stroke-dashoffset: 0; stroke: #000000; stroke-width: 1.5"/>
   </g>
   <g id="line2d_17">
    <path d="M 601.5 384.48 
L 601.5 51.84 
" clip-path="url(#p0a1a3abc34)" style="fill: none; stroke-dasharray: 1.5,2.475; stroke-dashoffset: 0; stroke: #000000; stroke-width: 1.5"/>
   </g>
   <g id="patch_4">
    <path d="M 90 384.48 
L 90 51.84 
" style="fill: none; stroke: #000000; stroke-width: 0.8; stroke-linejoin: miter; stroke-linecap: square"/>
   </g>
   <g id="patch_5">
    <path d="M 648 384.48 
L 648 51.84 
" style="fill: none; stroke: #000000; stroke-width: 0.8; stroke-linejoin: miter; stroke-linecap: square"/>
   </g>
   <g id="patch_6">
    <path d="M 90 384.48 
L 648 384.48 
" style="fill: none; stroke: #000000; stroke-width: 0.8; stroke-linejoin: miter; stroke-linecap: square"/>
   </g>
   <g id="patch_7">
    <path d="M 90 51.84 
L 648 51.84 
" style="fill: none; stroke: #000000; stroke-width: 0.8; stroke-linejoin: miter; stroke-linecap: square"/>
   </g>
   <g id="text_14">
    <!--  LP$_{02}$ -->
    <g transform="translate(354.131818 164.020093) scale(0.1 -0.1)">
     <defs>
      <path id="DejaVuSans-4c" d="M 628 4666 
L 1259 4666 
L 1259 531 
L 3531 531 
L 3531 0 
L 628 0 
L 628 4666 
z
" transform="scale(0.015625)"/>
      <path id="DejaVuSans-50" d="M 1259 4147 
L 1259 2394 
L 2053 2394 
Q 2494 2394 2734 2622 
Q 2975 2850 2975 3272 
Q 2975 3691 2734 3919 
Q 2494 4147 2053 4147 
L 1259 4147 
z
M 628 4666 
L 2053 4666 
Q 2838 4666 3239 4311 
Q 3641 3956 3641 3272 
Q 3641 2581 3239 2228 
Q 2838 1875 2053 1875 
L 1259 1875 
L 1259 0 
L 628 0 
L 628 4666 
z
" transform="scale(0.015625)"/>
     </defs>
     <use xlink:href="#DejaVuSans-20" transform="translate(0 0.09375)"/>
     <use xlink:href="#DejaVuSans-4c" transform="translate(31.787109 0.09375)"/>
     <use xlink:href="#DejaVuSans-50" transform="translate(87.5 0.09375)"/>
     <use xlink:href="#DejaVuSans-30" transform="translate(148.759766 -16.3125) scale(0.7)"/>
     <use xlink:href="#DejaVuSans-32" transform="translate(193.295898 -16.3125) scale(0.7)"/>
    </g>
   </g>
   <g id="text_15">
    <!--  LP$_{03}$ -->
    <g transform="translate(354.131818 94.81304) scale(0.1 -0.1)">
     <defs>
      <path id="DejaVuSans-33" d="M 2597 2516 
Q 3050 2419 3304 2112 
Q 3559 1806 3559 1356 
Q 3559 666 3084 287 
Q 2609 -91 1734 -91 
Q 1441 -91 1130 -33 
Q 819 25 488 141 
L 488 750 
Q 750 597 1062 519 
Q 1375 441 1716 441 
Q 2309 441 2620 675 
Q 2931 909 2931 1356 
Q 2931 1769 2642 2001 
Q 2353 2234 1838 2234 
L 1294 2234 
L 1294 2753 
L 1863 2753 
Q 2328 2753 2575 2939 
Q 2822 3125 2822 3475 
Q 2822 3834 2567 4026 
Q 2313 4219 1838 4219 
Q 1578 4219 1281 4162 
Q 984 4106 628 3988 
L 628 4550 
Q 988 4650 1302 4700 
Q 1616 4750 1894 4750 
Q 2613 4750 3031 4423 
Q 3450 4097 3450 3541 
Q 3450 3153 3228 2886 
Q 3006 2619 2597 2516 
z
" transform="scale(0.015625)"/>
     </defs>
     <use xlink:href="#DejaVuSans-20" transform="translate(0 0.09375)"/>
     <use xlink:href="#DejaVuSans-4c" transform="translate(31.787109 0.09375)"/>
     <use xlink:href="#DejaVuSans-50" transform="translate(87.5 0.09375)"/>
     <use xlink:href="#DejaVuSans-30" transform="translate(148.759766 -16.3125) scale(0.7)"/>
     <use xlink:href="#DejaVuSans-33" transform="translate(193.295898 -16.3125) scale(0.7)"/>
    </g>
   </g>
   <g id="text_16">
    <!--  LP$_{12}$ -->
    <g transform="translate(286.495455 290.730455) scale(0.1 -0.1)">
     <use xlink:href="#DejaVuSans-20" transform="translate(0 0.09375)"/>
     <use xlink:href="#DejaVuSans-4c" transform="translate(31.787109 0.09375)"/>
     <use xlink:href="#DejaVuSans-50" transform="translate(87.5 0.09375)"/>
     <use xlink:href="#DejaVuSans-31" transform="translate(148.759766 -16.3125) scale(0.7)"/>
     <use xlink:href="#DejaVuSans-32" transform="translate(193.295898 -16.3125) scale(0.7)"/>
    </g>
   </g>
   <g id="text_17">
    <!--  LP$_{22}$ -->
    <g transform="translate(258.313636 310.19504) scale(0.1 -0.1)">
     <use xlink:href="#DejaVuSans-20" transform="translate(0 0.09375)"/>
     <use xlink:href="#DejaVuSans-4c" transform="translate(31.787109 0.09375)"/>
     <use xlink:href="#DejaVuSans-50" transform="translate(87.5 0.09375)"/>
     <use xlink:href="#DejaVuSans-32" transform="translate(148.759766 -16.3125) scale(0.7)"/>
     <use xlink:href="#DejaVuSans-32" transform="translate(193.295898 -16.3125) scale(0.7)"/>
    </g>
   </g>
   <g id="text_18">
    <!-- Step-index fiber, V=8.00 -->
    <g transform="translate(294.797813 45.84) scale(0.12 -0.12)">
     <defs>
      <path id="DejaVuSans-53" d="M 3425 4513 
L 3425 3897 
Q 3066 4069 2747 4153 
Q 2428 4238 2131 4238 
Q 1616 4238 1336 4038 
Q 1056 3838 1056 3469 
Q 1056 3159 1242 3001 
Q 1428 2844 1947 2747 
L 2328 2669 
Q 3034 2534 3370 2195 
Q 3706 1856 3706 1288 
Q 3706 609 3251 259 
Q 2797 -91 1919 -91 
Q 1588 -91 1214 -16 
Q 841 59 441 206 
L 441 856 
Q 825 641 1194 531 
Q 1563 422 1919 422 
Q 2459 422 2753 634 
Q 3047 847 3047 1241 
Q 3047 1584 2836 1778 
Q 2625 1972 2144 2069 
L 1759 2144 
Q 1053 2284 737 2584 
Q 422 2884 422 3419 
Q 422 4038 858 4394 
Q 1294 4750 2059 4750 
Q 2388 4750 2728 4690 
Q 3069 4631 3425 4513 
z
" transform="scale(0.015625)"/>
      <path id="DejaVuSans-74" d="M 1172 4494 
L 1172 3500 
L 2356 3500 
L 2356 3053 
L 1172 3053 
L 1172 1153 
Q 1172 725 1289 603 
Q 1406 481 1766 481 
L 2356 481 
L 2356 0 
L 1766 0 
Q 1100 0 847 248 
Q 594 497 594 1153 
L 594 3053 
L 172 3053 
L 172 3500 
L 594 3500 
L 594 4494 
L 1172 4494 
z
" transform="scale(0.015625)"/>
      <path id="DejaVuSans-70" d="M 1159 525 
L 1159 -1331 
L 581 -1331 
L 581 3500 
L 1159 3500 
L 1159 2969 
Q 1341 3281 1617 3432 
Q 1894 3584 2278 3584 
Q 2916 3584 3314 3078 
Q 3713 2572 3713 1747 
Q 3713 922 3314 415 
Q 2916 -91 2278 -91 
Q 1894 -91 1617 61 
Q 1341 213 1159 525 
z
M 3116 1747 
Q 3116 2381 2855 2742 
Q 2594 3103 2138 3103 
Q 1681 3103 1420 2742 
Q 1159 2381 1159 1747 
Q 1159 1113 1420 752 
Q 1681 391 2138 391 
Q 2594 391 2855 752 
Q 3116 1113 3116 1747 
z
" transform="scale(0.015625)"/>
      <path id="DejaVuSans-2d" d="M 313 2009 
L 1997 2009 
L 1997 1497 
L 313 1497 
L 313 2009 
z
" transform="scale(0.015625)"/>
      <path id="DejaVuSans-78" d="M 3513 3500 
L 2247 1797 
L 3578 0 
L 2900 0 
L 1881 1375 
L 863 0 
L 184 0 
L 1544 1831 
L 300 3500 
L 978 3500 
L 1906 2253 
L 2834 3500 
L 3513 3500 
z
" transform="scale(0.015625)"/>
      <path id="DejaVuSans-66" d="M 2375 4863 
L 2375 4384 
L 1825 4384 
Q 1516 4384 1395 4259 
Q 1275 4134 1275 3809 
L 1275 3500 
L 2222 3500 
L 2222 3053 
L 1275 3053 
L 1275 0 
L 697 0 
L 697 3053 
L 147 3053 
L 147 3500 
L 697 3500 
L 697 3744 
Q 697 4328 969 4595 
Q 1241 4863 1831 4863 
L 2375 4863 
z
" transform="scale(0.015625)"/>
      <path id="DejaVuSans-62" d="M 3116 1747 
Q 3116 2381 2855 2742 
Q 2594 3103 2138 3103 
Q 1681 3103 1420 2742 
Q 1159 2381 1159 1747 
Q 1159 1113 1420 752 
Q 1681 391 2138 391 
Q 2594 391 2855 752 
Q 3116 1113 3116 1747 
z
M 1159 2969 
Q 1341 3281 1617 3432 
Q 1894 3584 2278 3584 
Q 2916 3584 3314 3078 
Q 3713 2572 3713 1747 
Q 3713 922 3314 415 
Q 2916 -91 2278 -91 
Q 1894 -91 1617 61 
Q 1341 213 1159 525 
L 1159 0 
L 581 0 
L 581 4863 
L 1159 4863 
L 1159 2969 
z
" transform="scale(0.015625)"/>
      <path id="DejaVuSans-2c" d="M 750 794 
L 1409 794 
L 1409 256 
L 897 -744 
L 494 -744 
L 750 256 
L 750 794 
z
" transform="scale(0.015625)"/>
      <path id="DejaVuSans-56" d="M 1831 0 
L 50 4666 
L 709 4666 
L 2188 738 
L 3669 4666 
L 4325 4666 
L 2547 0 
L 1831 0 
z
" transform="scale(0.015625)"/>
      <path id="DejaVuSans-3d" d="M 678 2906 
L 4684 2906 
L 4684 2381 
L 678 2381 
L 678 2906 
z
M 678 1631 
L 4684 1631 
L 4684 1100 
L 678 1100 
L 678 1631 
z
" transform="scale(0.015625)"/>
     </defs>
     <use xlink:href="#DejaVuSans-53"/>
     <use xlink:href="#DejaVuSans-74" x="63.476562"/>
     <use xlink:href="#DejaVuSans-65" x="102.685547"/>
     <use xlink:href="#DejaVuSans-70" x="164.208984"/>
     <use xlink:href="#DejaVuSans-2d" x="227.685547"/>
     <use xlink:href="#DejaVuSans-69" x="263.769531"/>
     <use xlink:href="#DejaVuSans-6e" x="291.552734"/>
     <use xlink:href="#DejaVuSans-64" x="354.931641"/>
     <use xlink:href="#DejaVuSans-65" x="418.408203"/>
     <use xlink:href="#DejaVuSans-78" x="478.181641"/>
     <use xlink:href="#DejaVuSans-20" x="537.361328"/>
     <use xlink:href="#DejaVuSans-66" x="569.148438"/>
     <use xlink:href="#DejaVuSans-69" x="604.353516"/>
     <use xlink:href="#DejaVuSans-62" x="632.136719"/>
     <use xlink:href="#DejaVuSans-65" x="695.613281"/>
     <use xlink:href="#DejaVuSans-72" x="757.136719"/>
     <use xlink:href="#DejaVuSans-2c" x="798.25"/>
     <use xlink:href="#DejaVuSans-20" x="830.037109"/>
     <use xlink:href="#DejaVuSans-56" x="861.824219"/>
     <use xlink:href="#DejaVuSans-3d" x="930.232422"/>
     <use xlink:href="#DejaVuSans-38" x="1014.021484"/>
     <use xlink:href="#DejaVuSans-2e" x="1077.644531"/>
     <use xlink:href="#DejaVuSans-30" x="1109.431641"/>
     <use xlink:href="#DejaVuSans-30" x="1173.054688"/>
    </g>
   </g>
  </g>
 </g>
 <defs>
  <clipPath id="p0a1a3abc34">
   <rect x="90" y="51.84" width="558" height="332.64"/>
  </clipPath>
 </defs>
</svg>
