<?xml version="1.0" encoding="utf-8" standalone="no"?>
<!DOCTYPE svg PUBLIC "-//W3C//DTD SVG 1.1//EN"
  "http://www.w3.org/Graphics/SVG/1.1/DTD/svg11.dtd">
<svg xmlns:xlink="http://www.w3.org/1999/xlink" width="576pt" height="324pt" viewBox="0 0 576 324" xmlns="http://www.w3.org/2000/svg" version="1.1">
 <metadata>
  <rdf:RDF xmlns:dc="http://purl.org/dc/elements/1.1/" xmlns:cc="http://creativecommons.org/ns#" xmlns:rdf="http://www.w3.org/1999/02/22-rdf-syntax-ns#">
   <cc:Work>
    <dc:type rdf:resource="http://purl.org/dc/dcmitype/StillImage"/>
    <dc:date>2024-05-04T17:24:31.795194</dc:date>
    <dc:format>image/svg+xml</dc:format>
    <dc:creator>
     <cc:Agent>
      <dc:title>Matplotlib v3.8.3, https://matplotlib.org/</dc:title>
     </cc:Agent>
    </dc:creator>
   </cc:Work>
  </rdf:RDF>
 </metadata>
 <defs>
  <style type="text/css">*{stroke-linejoin: round; stroke-linecap: butt}</style>
 </defs>
 <g id="figure_1">
  <g id="patch_1">
   <path d="M 0 324 
L 576 324 
L 576 0 
L 0 0 
z
" style="fill: #ffffff"/>
  </g>
  <g id="axes_1">
   <g id="patch_2">
    <path d="M 72 288.36 
L 518.4 288.36 
L 518.4 38.88 
L 72 38.88 
z
" style="fill: #ffffff"/>
   </g>
   <g id="patch_3">
    <path d="M 193.745455 288.36 
L 193.745455 38.88 
L 396.654545 38.88 
L 396.654545 288.36 
z
" clip-path="url(#pfb78436a42)" style="fill: #00ffff; opacity: 0.5; stroke: #00ffff; stroke-linejoin: miter"/>
   </g>
   <g id="matplotlib.axis_1">
    <g id="xtick_1">
     <g id="line2d_1">
      <defs>
       <path id="mb6230cb4e7" d="M 0 0 
L 0 3.5 
" style="stroke: #000000; stroke-width: 0.8"/>
      </defs>
      <g>
       <use xlink:href="#mb6230cb4e7" x="92.290909" y="288.36" style="stroke: #000000; stroke-width: 0.8"/>
      </g>
     </g>
     <g id="text_1">
      <!-- −1.00 -->
      <g transform="translate(76.968253 302.958438) scale(0.1 -0.1)">
       <defs>
        <path id="DejaVuSans-2212" d="M 678 2272 
L 4684 2272 
L 4684 1741 
L 678 1741 
L 678 2272 
z
" transform="scale(0.015625)"/>
        <path id="DejaVuSans-31" d="M 794 531 
L 1825 531 
L 1825 4091 
L 703 3866 
L 703 4441 
L 1819 4666 
L 2450 4666 
L 2450 531 
L 3481 531 
L 3481 0 
L 794 0 
L 794 531 
z
" transform="scale(0.015625)"/>
        <path id="DejaVuSans-2e" d="M 684 794 
L 1344 794 
L 1344 0 
L 684 0 
L 684 794 
z
" transform="scale(0.015625)"/>
        <path id="DejaVuSans-30" d="M 2034 4250 
Q 1547 4250 1301 3770 
Q 1056 3291 1056 2328 
Q 1056 1369 1301 889 
Q 1547 409 2034 409 
Q 2525 409 2770 889 
Q 3016 1369 3016 2328 
Q 3016 3291 2770 3770 
Q 2525 4250 2034 4250 
z
M 2034 4750 
Q 2819 4750 3233 4129 
Q 3647 3509 3647 2328 
Q 3647 1150 3233 529 
Q 2819 -91 2034 -91 
Q 1250 -91 836 529 
Q 422 1150 422 2328 
Q 422 3509 836 4129 
Q 1250 4750 2034 4750 
z
" transform="scale(0.015625)"/>
       </defs>
       <use xlink:href="#DejaVuSans-2212"/>
       <use xlink:href="#DejaVuSans-31" x="83.789062"/>
       <use xlink:href="#DejaVuSans-2e" x="147.412109"/>
       <use xlink:href="#DejaVuSans-30" x="179.199219"/>
       <use xlink:href="#DejaVuSans-30" x="242.822266"/>
      </g>
     </g>
    </g>
    <g id="xtick_2">
     <g id="line2d_2">
      <g>
       <use xlink:href="#mb6230cb4e7" x="143.018182" y="288.36" style="stroke: #000000; stroke-width: 0.8"/>
      </g>
     </g>
     <g id="text_2">
      <!-- −0.75 -->
      <g transform="translate(127.695526 302.958438) scale(0.1 -0.1)">
       <defs>
        <path id="DejaVuSans-37" d="M 525 4666 
L 3525 4666 
L 3525 4397 
L 1831 0 
L 1172 0 
L 2766 4134 
L 525 4134 
L 525 4666 
z
" transform="scale(0.015625)"/>
        <path id="DejaVuSans-35" d="M 691 4666 
L 3169 4666 
L 3169 4134 
L 1269 4134 
L 1269 2991 
Q 1406 3038 1543 3061 
Q 1681 3084 1819 3084 
Q 2600 3084 3056 2656 
Q 3513 2228 3513 1497 
Q 3513 744 3044 326 
Q 2575 -91 1722 -91 
Q 1428 -91 1123 -41 
Q 819 9 494 109 
L 494 744 
Q 775 591 1075 516 
Q 1375 441 1709 441 
Q 2250 441 2565 725 
Q 2881 1009 2881 1497 
Q 2881 1984 2565 2268 
Q 2250 2553 1709 2553 
Q 1456 2553 1204 2497 
Q 953 2441 691 2322 
L 691 4666 
z
" transform="scale(0.015625)"/>
       </defs>
       <use xlink:href="#DejaVuSans-2212"/>
       <use xlink:href="#DejaVuSans-30" x="83.789062"/>
       <use xlink:href="#DejaVuSans-2e" x="147.412109"/>
       <use xlink:href="#DejaVuSans-37" x="179.199219"/>
       <use xlink:href="#DejaVuSans-35" x="242.822266"/>
      </g>
     </g>
    </g>
    <g id="xtick_3">
     <g id="line2d_3">
      <g>
       <use xlink:href="#mb6230cb4e7" x="193.745455" y="288.36" style="stroke: #000000; stroke-width: 0.8"/>
      </g>
     </g>
     <g id="text_3">
      <!-- −0.50 -->
      <g transform="translate(178.422798 302.958438) scale(0.1 -0.1)">
       <use xlink:href="#DejaVuSans-2212"/>
       <use xlink:href="#DejaVuSans-30" x="83.789062"/>
       <use xlink:href="#DejaVuSans-2e" x="147.412109"/>
       <use xlink:href="#DejaVuSans-35" x="179.199219"/>
       <use xlink:href="#DejaVuSans-30" x="242.822266"/>
      </g>
     </g>
    </g>
    <g id="xtick_4">
     <g id="line2d_4">
      <g>
       <use xlink:href="#mb6230cb4e7" x="244.472727" y="288.36" style="stroke: #000000; stroke-width: 0.8"/>
      </g>
     </g>
     <g id="text_4">
      <!-- −0.25 -->
      <g transform="translate(229.150071 302.958438) scale(0.1 -0.1)">
       <defs>
        <path id="DejaVuSans-32" d="M 1228 531 
L 3431 531 
L 3431 0 
L 469 0 
L 469 531 
Q 828 903 1448 1529 
Q 2069 2156 2228 2338 
Q 2531 2678 2651 2914 
Q 2772 3150 2772 3378 
Q 2772 3750 2511 3984 
Q 2250 4219 1831 4219 
Q 1534 4219 1204 4116 
Q 875 4013 500 3803 
L 500 4441 
Q 881 4594 1212 4672 
Q 1544 4750 1819 4750 
Q 2544 4750 2975 4387 
Q 3406 4025 3406 3419 
Q 3406 3131 3298 2873 
Q 3191 2616 2906 2266 
Q 2828 2175 2409 1742 
Q 1991 1309 1228 531 
z
" transform="scale(0.015625)"/>
       </defs>
       <use xlink:href="#DejaVuSans-2212"/>
       <use xlink:href="#DejaVuSans-30" x="83.789062"/>
       <use xlink:href="#DejaVuSans-2e" x="147.412109"/>
       <use xlink:href="#DejaVuSans-32" x="179.199219"/>
       <use xlink:href="#DejaVuSans-35" x="242.822266"/>
      </g>
     </g>
    </g>
    <g id="xtick_5">
     <g id="line2d_5">
      <g>
       <use xlink:href="#mb6230cb4e7" x="295.2" y="288.36" style="stroke: #000000; stroke-width: 0.8"/>
      </g>
     </g>
     <g id="text_5">
      <!-- 0.00 -->
      <g transform="translate(284.067187 302.958438) scale(0.1 -0.1)">
       <use xlink:href="#DejaVuSans-30"/>
       <use xlink:href="#DejaVuSans-2e" x="63.623047"/>
       <use xlink:href="#DejaVuSans-30" x="95.410156"/>
       <use xlink:href="#DejaVuSans-30" x="159.033203"/>
      </g>
     </g>
    </g>
    <g id="xtick_6">
     <g id="line2d_6">
      <g>
       <use xlink:href="#mb6230cb4e7" x="345.927273" y="288.36" style="stroke: #000000; stroke-width: 0.8"/>
      </g>
     </g>
     <g id="text_6">
      <!-- 0.25 -->
      <g transform="translate(334.79446 302.958438) scale(0.1 -0.1)">
       <use xlink:href="#DejaVuSans-30"/>
       <use xlink:href="#DejaVuSans-2e" x="63.623047"/>
       <use xlink:href="#DejaVuSans-32" x="95.410156"/>
       <use xlink:href="#DejaVuSans-35" x="159.033203"/>
      </g>
     </g>
    </g>
    <g id="xtick_7">
     <g id="line2d_7">
      <g>
       <use xlink:href="#mb6230cb4e7" x="396.654545" y="288.36" style="stroke: #000000; stroke-width: 0.8"/>
      </g>
     </g>
     <g id="text_7">
      <!-- 0.50 -->
      <g transform="translate(385.521733 302.958438) scale(0.1 -0.1)">
       <use xlink:href="#DejaVuSans-30"/>
       <use xlink:href="#DejaVuSans-2e" x="63.623047"/>
       <use xlink:href="#DejaVuSans-35" x="95.410156"/>
       <use xlink:href="#DejaVuSans-30" x="159.033203"/>
      </g>
     </g>
    </g>
    <g id="xtick_8">
     <g id="line2d_8">
      <g>
       <use xlink:href="#mb6230cb4e7" x="447.381818" y="288.36" style="stroke: #000000; stroke-width: 0.8"/>
      </g>
     </g>
     <g id="text_8">
      <!-- 0.75 -->
      <g transform="translate(436.249006 302.958438) scale(0.1 -0.1)">
       <use xlink:href="#DejaVuSans-30"/>
       <use xlink:href="#DejaVuSans-2e" x="63.623047"/>
       <use xlink:href="#DejaVuSans-37" x="95.410156"/>
       <use xlink:href="#DejaVuSans-35" x="159.033203"/>
      </g>
     </g>
    </g>
    <g id="xtick_9">
     <g id="line2d_9">
      <g>
       <use xlink:href="#mb6230cb4e7" x="498.109091" y="288.36" style="stroke: #000000; stroke-width: 0.8"/>
      </g>
     </g>
     <g id="text_9">
      <!-- 1.00 -->
      <g transform="translate(486.976278 302.958438) scale(0.1 -0.1)">
       <use xlink:href="#DejaVuSans-31"/>
       <use xlink:href="#DejaVuSans-2e" x="63.623047"/>
       <use xlink:href="#DejaVuSans-30" x="95.410156"/>
       <use xlink:href="#DejaVuSans-30" x="159.033203"/>
      </g>
     </g>
    </g>
    <g id="text_10">
     <!-- Position (x/d) -->
     <g transform="translate(262.427344 316.636563) scale(0.1 -0.1)">
      <defs>
       <path id="DejaVuSans-50" d="M 1259 4147 
L 1259 2394 
L 2053 2394 
Q 2494 2394 2734 2622 
Q 2975 2850 2975 3272 
Q 2975 3691 2734 3919 
Q 2494 4147 2053 4147 
L 1259 4147 
z
M 628 4666 
L 2053 4666 
Q 2838 4666 3239 4311 
Q 3641 3956 3641 3272 
Q 3641 2581 3239 2228 
Q 2838 1875 2053 1875 
L 1259 1875 
L 1259 0 
L 628 0 
L 628 4666 
z
" transform="scale(0.015625)"/>
       <path id="DejaVuSans-6f" d="M 1959 3097 
Q 1497 3097 1228 2736 
Q 959 2375 959 1747 
Q 959 1119 1226 758 
Q 1494 397 1959 397 
Q 2419 397 2687 759 
Q 2956 1122 2956 1747 
Q 2956 2369 2687 2733 
Q 2419 3097 1959 3097 
z
M 1959 3584 
Q 2709 3584 3137 3096 
Q 3566 2609 3566 1747 
Q 3566 888 3137 398 
Q 2709 -91 1959 -91 
Q 1206 -91 779 398 
Q 353 888 353 1747 
Q 353 2609 779 3096 
Q 1206 3584 1959 3584 
z
" transform="scale(0.015625)"/>
       <path id="DejaVuSans-73" d="M 2834 3397 
L 2834 2853 
Q 2591 2978 2328 3040 
Q 2066 3103 1784 3103 
Q 1356 3103 1142 2972 
Q 928 2841 928 2578 
Q 928 2378 1081 2264 
Q 1234 2150 1697 2047 
L 1894 2003 
Q 2506 1872 2764 1633 
Q 3022 1394 3022 966 
Q 3022 478 2636 193 
Q 2250 -91 1575 -91 
Q 1294 -91 989 -36 
Q 684 19 347 128 
L 347 722 
Q 666 556 975 473 
Q 1284 391 1588 391 
Q 1994 391 2212 530 
Q 2431 669 2431 922 
Q 2431 1156 2273 1281 
Q 2116 1406 1581 1522 
L 1381 1569 
Q 847 1681 609 1914 
Q 372 2147 372 2553 
Q 372 3047 722 3315 
Q 1072 3584 1716 3584 
Q 2034 3584 2315 3537 
Q 2597 3491 2834 3397 
z
" transform="scale(0.015625)"/>
       <path id="DejaVuSans-69" d="M 603 3500 
L 1178 3500 
L 1178 0 
L 603 0 
L 603 3500 
z
M 603 4863 
L 1178 4863 
L 1178 4134 
L 603 4134 
L 603 4863 
z
" transform="scale(0.015625)"/>
       <path id="DejaVuSans-74" d="M 1172 4494 
L 1172 3500 
L 2356 3500 
L 2356 3053 
L 1172 3053 
L 1172 1153 
Q 1172 725 1289 603 
Q 1406 481 1766 481 
L 2356 481 
L 2356 0 
L 1766 0 
Q 1100 0 847 248 
Q 594 497 594 1153 
L 594 3053 
L 172 3053 
L 172 3500 
L 594 3500 
L 594 4494 
L 1172 4494 
z
" transform="scale(0.015625)"/>
       <path id="DejaVuSans-6e" d="M 3513 2113 
L 3513 0 
L 2938 0 
L 2938 2094 
Q 2938 2591 2744 2837 
Q 2550 3084 2163 3084 
Q 1697 3084 1428 2787 
Q 1159 2491 1159 1978 
L 1159 0 
L 581 0 
L 581 3500 
L 1159 3500 
L 1159 2956 
Q 1366 3272 1645 3428 
Q 1925 3584 2291 3584 
Q 2894 3584 3203 3211 
Q 3513 2838 3513 2113 
z
" transform="scale(0.015625)"/>
       <path id="DejaVuSans-20" transform="scale(0.015625)"/>
       <path id="DejaVuSans-28" d="M 1984 4856 
Q 1566 4138 1362 3434 
Q 1159 2731 1159 2009 
Q 1159 1288 1364 580 
Q 1569 -128 1984 -844 
L 1484 -844 
Q 1016 -109 783 600 
Q 550 1309 550 2009 
Q 550 2706 781 3412 
Q 1013 4119 1484 4856 
L 1984 4856 
z
" transform="scale(0.015625)"/>
       <path id="DejaVuSans-78" d="M 3513 3500 
L 2247 1797 
L 3578 0 
L 2900 0 
L 1881 1375 
L 863 0 
L 184 0 
L 1544 1831 
L 300 3500 
L 978 3500 
L 1906 2253 
L 2834 3500 
L 3513 3500 
z
" transform="scale(0.015625)"/>
       <path id="DejaVuSans-2f" d="M 1625 4666 
L 2156 4666 
L 531 -594 
L 0 -594 
L 1625 4666 
z
" transform="scale(0.015625)"/>
       <path id="DejaVuSans-64" d="M 2906 2969 
L 2906 4863 
L 3481 4863 
L 3481 0 
L 2906 0 
L 2906 525 
Q 2725 213 2448 61 
Q 2172 -91 1784 -91 
Q 1150 -91 751 415 
Q 353 922 353 1747 
Q 353 2572 751 3078 
Q 1150 3584 1784 3584 
Q 2172 3584 2448 3432 
Q 2725 3281 2906 2969 
z
M 947 1747 
Q 947 1113 1208 752 
Q 1469 391 1925 391 
Q 2381 391 2643 752 
Q 2906 1113 2906 1747 
Q 2906 2381 2643 2742 
Q 2381 3103 1925 3103 
Q 1469 3103 1208 2742 
Q 947 2381 947 1747 
z
" transform="scale(0.015625)"/>
       <path id="DejaVuSans-29" d="M 513 4856 
L 1013 4856 
Q 1481 4119 1714 3412 
Q 1947 2706 1947 2009 
Q 1947 1309 1714 600 
Q 1481 -109 1013 -844 
L 513 -844 
Q 928 -128 1133 580 
Q 1338 1288 1338 2009 
Q 1338 2731 1133 3434 
Q 928 4138 513 4856 
z
" transform="scale(0.015625)"/>
      </defs>
      <use xlink:href="#DejaVuSans-50"/>
      <use xlink:href="#DejaVuSans-6f" x="56.677734"/>
      <use xlink:href="#DejaVuSans-73" x="117.859375"/>
      <use xlink:href="#DejaVuSans-69" x="169.958984"/>
      <use xlink:href="#DejaVuSans-74" x="197.742188"/>
      <use xlink:href="#DejaVuSans-69" x="236.951172"/>
      <use xlink:href="#DejaVuSans-6f" x="264.734375"/>
      <use xlink:href="#DejaVuSans-6e" x="325.916016"/>
      <use xlink:href="#DejaVuSans-20" x="389.294922"/>
      <use xlink:href="#DejaVuSans-28" x="421.082031"/>
      <use xlink:href="#DejaVuSans-78" x="460.095703"/>
      <use xlink:href="#DejaVuSans-2f" x="519.275391"/>
      <use xlink:href="#DejaVuSans-64" x="552.966797"/>
      <use xlink:href="#DejaVuSans-29" x="616.443359"/>
     </g>
    </g>
   </g>
   <g id="matplotlib.axis_2">
    <g id="ytick_1">
     <g id="line2d_10">
      <defs>
       <path id="m5e9c39f62c" d="M 0 0 
L -3.5 0 
" style="stroke: #000000; stroke-width: 0.8"/>
      </defs>
      <g>
       <use xlink:href="#m5e9c39f62c" x="72" y="277.154001" style="stroke: #000000; stroke-width: 0.8"/>
      </g>
     </g>
     <g id="text_11">
      <!-- −1.00 -->
      <g transform="translate(34.354687 280.953219) scale(0.1 -0.1)">
       <use xlink:href="#DejaVuSans-2212"/>
       <use xlink:href="#DejaVuSans-31" x="83.789062"/>
       <use xlink:href="#DejaVuSans-2e" x="147.412109"/>
       <use xlink:href="#DejaVuSans-30" x="179.199219"/>
       <use xlink:href="#DejaVuSans-30" x="242.822266"/>
      </g>
     </g>
    </g>
    <g id="ytick_2">
     <g id="line2d_11">
      <g>
       <use xlink:href="#m5e9c39f62c" x="72" y="248.781697" style="stroke: #000000; stroke-width: 0.8"/>
      </g>
     </g>
     <g id="text_12">
      <!-- −0.75 -->
      <g transform="translate(34.354687 252.580916) scale(0.1 -0.1)">
       <use xlink:href="#DejaVuSans-2212"/>
       <use xlink:href="#DejaVuSans-30" x="83.789062"/>
       <use xlink:href="#DejaVuSans-2e" x="147.412109"/>
       <use xlink:href="#DejaVuSans-37" x="179.199219"/>
       <use xlink:href="#DejaVuSans-35" x="242.822266"/>
      </g>
     </g>
    </g>
    <g id="ytick_3">
     <g id="line2d_12">
      <g>
       <use xlink:href="#m5e9c39f62c" x="72" y="220.409394" style="stroke: #000000; stroke-width: 0.8"/>
      </g>
     </g>
     <g id="text_13">
      <!-- −0.50 -->
      <g transform="translate(34.354687 224.208613) scale(0.1 -0.1)">
       <use xlink:href="#DejaVuSans-2212"/>
       <use xlink:href="#DejaVuSans-30" x="83.789062"/>
       <use xlink:href="#DejaVuSans-2e" x="147.412109"/>
       <use xlink:href="#DejaVuSans-35" x="179.199219"/>
       <use xlink:href="#DejaVuSans-30" x="242.822266"/>
      </g>
     </g>
    </g>
    <g id="ytick_4">
     <g id="line2d_13">
      <g>
       <use xlink:href="#m5e9c39f62c" x="72" y="192.037091" style="stroke: #000000; stroke-width: 0.8"/>
      </g>
     </g>
     <g id="text_14">
      <!-- −0.25 -->
      <g transform="translate(34.354687 195.83631) scale(0.1 -0.1)">
       <use xlink:href="#DejaVuSans-2212"/>
       <use xlink:href="#DejaVuSans-30" x="83.789062"/>
       <use xlink:href="#DejaVuSans-2e" x="147.412109"/>
       <use xlink:href="#DejaVuSans-32" x="179.199219"/>
       <use xlink:href="#DejaVuSans-35" x="242.822266"/>
      </g>
     </g>
    </g>
    <g id="ytick_5">
     <g id="line2d_14">
      <g>
       <use xlink:href="#m5e9c39f62c" x="72" y="163.664788" style="stroke: #000000; stroke-width: 0.8"/>
      </g>
     </g>
     <g id="text_15">
      <!-- 0.00 -->
      <g transform="translate(42.734375 167.464007) scale(0.1 -0.1)">
       <use xlink:href="#DejaVuSans-30"/>
       <use xlink:href="#DejaVuSans-2e" x="63.623047"/>
       <use xlink:href="#DejaVuSans-30" x="95.410156"/>
       <use xlink:href="#DejaVuSans-30" x="159.033203"/>
      </g>
     </g>
    </g>
    <g id="ytick_6">
     <g id="line2d_15">
      <g>
       <use xlink:href="#m5e9c39f62c" x="72" y="135.292485" style="stroke: #000000; stroke-width: 0.8"/>
      </g>
     </g>
     <g id="text_16">
      <!-- 0.25 -->
      <g transform="translate(42.734375 139.091704) scale(0.1 -0.1)">
       <use xlink:href="#DejaVuSans-30"/>
       <use xlink:href="#DejaVuSans-2e" x="63.623047"/>
       <use xlink:href="#DejaVuSans-32" x="95.410156"/>
       <use xlink:href="#DejaVuSans-35" x="159.033203"/>
      </g>
     </g>
    </g>
    <g id="ytick_7">
     <g id="line2d_16">
      <g>
       <use xlink:href="#m5e9c39f62c" x="72" y="106.920182" style="stroke: #000000; stroke-width: 0.8"/>
      </g>
     </g>
     <g id="text_17">
      <!-- 0.50 -->
      <g transform="translate(42.734375 110.719401) scale(0.1 -0.1)">
       <use xlink:href="#DejaVuSans-30"/>
       <use xlink:href="#DejaVuSans-2e" x="63.623047"/>
       <use xlink:href="#DejaVuSans-35" x="95.410156"/>
       <use xlink:href="#DejaVuSans-30" x="159.033203"/>
      </g>
     </g>
    </g>
    <g id="ytick_8">
     <g id="line2d_17">
      <g>
       <use xlink:href="#m5e9c39f62c" x="72" y="78.547879" style="stroke: #000000; stroke-width: 0.8"/>
      </g>
     </g>
     <g id="text_18">
      <!-- 0.75 -->
      <g transform="translate(42.734375 82.347098) scale(0.1 -0.1)">
       <use xlink:href="#DejaVuSans-30"/>
       <use xlink:href="#DejaVuSans-2e" x="63.623047"/>
       <use xlink:href="#DejaVuSans-37" x="95.410156"/>
       <use xlink:href="#DejaVuSans-35" x="159.033203"/>
      </g>
     </g>
    </g>
    <g id="ytick_9">
     <g id="line2d_18">
      <g>
       <use xlink:href="#m5e9c39f62c" x="72" y="50.175576" style="stroke: #000000; stroke-width: 0.8"/>
      </g>
     </g>
     <g id="text_19">
      <!-- 1.00 -->
      <g transform="translate(42.734375 53.974794) scale(0.1 -0.1)">
       <use xlink:href="#DejaVuSans-31"/>
       <use xlink:href="#DejaVuSans-2e" x="63.623047"/>
       <use xlink:href="#DejaVuSans-30" x="95.410156"/>
       <use xlink:href="#DejaVuSans-30" x="159.033203"/>
      </g>
     </g>
    </g>
    <g id="text_20">
     <!-- $|E_y(x)|^2$ [Normalized] -->
     <g transform="translate(27.254687 215.57) rotate(-90) scale(0.1 -0.1)">
      <defs>
       <path id="DejaVuSans-7c" d="M 1344 4891 
L 1344 -1509 
L 813 -1509 
L 813 4891 
L 1344 4891 
z
" transform="scale(0.015625)"/>
       <path id="DejaVuSans-Oblique-45" d="M 1081 4666 
L 4031 4666 
L 3928 4134 
L 1606 4134 
L 1338 2753 
L 3566 2753 
L 3463 2222 
L 1234 2222 
L 909 531 
L 3284 531 
L 3181 0 
L 172 0 
L 1081 4666 
z
" transform="scale(0.015625)"/>
       <path id="DejaVuSans-Oblique-79" d="M 1588 -325 
Q 1188 -997 936 -1164 
Q 684 -1331 294 -1331 
L -159 -1331 
L -63 -850 
L 269 -850 
Q 509 -850 678 -719 
Q 847 -588 1056 -206 
L 1234 128 
L 459 3500 
L 1069 3500 
L 1650 819 
L 3256 3500 
L 3859 3500 
L 1588 -325 
z
" transform="scale(0.015625)"/>
       <path id="DejaVuSans-Oblique-78" d="M 3841 3500 
L 2234 1784 
L 3219 0 
L 2559 0 
L 1819 1388 
L 531 0 
L -166 0 
L 1556 1844 
L 641 3500 
L 1300 3500 
L 1972 2234 
L 3144 3500 
L 3841 3500 
z
" transform="scale(0.015625)"/>
       <path id="DejaVuSans-5b" d="M 550 4863 
L 1875 4863 
L 1875 4416 
L 1125 4416 
L 1125 -397 
L 1875 -397 
L 1875 -844 
L 550 -844 
L 550 4863 
z
" transform="scale(0.015625)"/>
       <path id="DejaVuSans-4e" d="M 628 4666 
L 1478 4666 
L 3547 763 
L 3547 4666 
L 4159 4666 
L 4159 0 
L 3309 0 
L 1241 3903 
L 1241 0 
L 628 0 
L 628 4666 
z
" transform="scale(0.015625)"/>
       <path id="DejaVuSans-72" d="M 2631 2963 
Q 2534 3019 2420 3045 
Q 2306 3072 2169 3072 
Q 1681 3072 1420 2755 
Q 1159 2438 1159 1844 
L 1159 0 
L 581 0 
L 581 3500 
L 1159 3500 
L 1159 2956 
Q 1341 3275 1631 3429 
Q 1922 3584 2338 3584 
Q 2397 3584 2469 3576 
Q 2541 3569 2628 3553 
L 2631 2963 
z
" transform="scale(0.015625)"/>
       <path id="DejaVuSans-6d" d="M 3328 2828 
Q 3544 3216 3844 3400 
Q 4144 3584 4550 3584 
Q 5097 3584 5394 3201 
Q 5691 2819 5691 2113 
L 5691 0 
L 5113 0 
L 5113 2094 
Q 5113 2597 4934 2840 
Q 4756 3084 4391 3084 
Q 3944 3084 3684 2787 
Q 3425 2491 3425 1978 
L 3425 0 
L 2847 0 
L 2847 2094 
Q 2847 2600 2669 2842 
Q 2491 3084 2119 3084 
Q 1678 3084 1418 2786 
Q 1159 2488 1159 1978 
L 1159 0 
L 581 0 
L 581 3500 
L 1159 3500 
L 1159 2956 
Q 1356 3278 1631 3431 
Q 1906 3584 2284 3584 
Q 2666 3584 2933 3390 
Q 3200 3197 3328 2828 
z
" transform="scale(0.015625)"/>
       <path id="DejaVuSans-61" d="M 2194 1759 
Q 1497 1759 1228 1600 
Q 959 1441 959 1056 
Q 959 750 1161 570 
Q 1363 391 1709 391 
Q 2188 391 2477 730 
Q 2766 1069 2766 1631 
L 2766 1759 
L 2194 1759 
z
M 3341 1997 
L 3341 0 
L 2766 0 
L 2766 531 
Q 2569 213 2275 61 
Q 1981 -91 1556 -91 
Q 1019 -91 701 211 
Q 384 513 384 1019 
Q 384 1609 779 1909 
Q 1175 2209 1959 2209 
L 2766 2209 
L 2766 2266 
Q 2766 2663 2505 2880 
Q 2244 3097 1772 3097 
Q 1472 3097 1187 3025 
Q 903 2953 641 2809 
L 641 3341 
Q 956 3463 1253 3523 
Q 1550 3584 1831 3584 
Q 2591 3584 2966 3190 
Q 3341 2797 3341 1997 
z
" transform="scale(0.015625)"/>
       <path id="DejaVuSans-6c" d="M 603 4863 
L 1178 4863 
L 1178 0 
L 603 0 
L 603 4863 
z
" transform="scale(0.015625)"/>
       <path id="DejaVuSans-7a" d="M 353 3500 
L 3084 3500 
L 3084 2975 
L 922 459 
L 3084 459 
L 3084 0 
L 275 0 
L 275 525 
L 2438 3041 
L 353 3041 
L 353 3500 
z
" transform="scale(0.015625)"/>
       <path id="DejaVuSans-65" d="M 3597 1894 
L 3597 1613 
L 953 1613 
Q 991 1019 1311 708 
Q 1631 397 2203 397 
Q 2534 397 2845 478 
Q 3156 559 3463 722 
L 3463 178 
Q 3153 47 2828 -22 
Q 2503 -91 2169 -91 
Q 1331 -91 842 396 
Q 353 884 353 1716 
Q 353 2575 817 3079 
Q 1281 3584 2069 3584 
Q 2775 3584 3186 3129 
Q 3597 2675 3597 1894 
z
M 3022 2063 
Q 3016 2534 2758 2815 
Q 2500 3097 2075 3097 
Q 1594 3097 1305 2825 
Q 1016 2553 972 2059 
L 3022 2063 
z
" transform="scale(0.015625)"/>
       <path id="DejaVuSans-5d" d="M 1947 4863 
L 1947 -844 
L 622 -844 
L 622 -397 
L 1369 -397 
L 1369 4416 
L 622 4416 
L 622 4863 
L 1947 4863 
z
" transform="scale(0.015625)"/>
      </defs>
      <use xlink:href="#DejaVuSans-7c" transform="translate(0 0.765625)"/>
      <use xlink:href="#DejaVuSans-Oblique-45" transform="translate(33.691406 0.765625)"/>
      <use xlink:href="#DejaVuSans-Oblique-79" transform="translate(96.875 -15.640625) scale(0.7)"/>
      <use xlink:href="#DejaVuSans-28" transform="translate(141.035156 0.765625)"/>
      <use xlink:href="#DejaVuSans-Oblique-78" transform="translate(180.048828 0.765625)"/>
      <use xlink:href="#DejaVuSans-29" transform="translate(239.228516 0.765625)"/>
      <use xlink:href="#DejaVuSans-7c" transform="translate(278.242188 0.765625)"/>
      <use xlink:href="#DejaVuSans-32" transform="translate(312.890625 39.046875) scale(0.7)"/>
      <use xlink:href="#DejaVuSans-20" transform="translate(360.161133 0.765625)"/>
      <use xlink:href="#DejaVuSans-5b" transform="translate(391.948242 0.765625)"/>
      <use xlink:href="#DejaVuSans-4e" transform="translate(430.961914 0.765625)"/>
      <use xlink:href="#DejaVuSans-6f" transform="translate(505.766602 0.765625)"/>
      <use xlink:href="#DejaVuSans-72" transform="translate(566.948242 0.765625)"/>
      <use xlink:href="#DejaVuSans-6d" transform="translate(608.061523 0.765625)"/>
      <use xlink:href="#DejaVuSans-61" transform="translate(705.473633 0.765625)"/>
      <use xlink:href="#DejaVuSans-6c" transform="translate(766.75293 0.765625)"/>
      <use xlink:href="#DejaVuSans-69" transform="translate(794.536133 0.765625)"/>
      <use xlink:href="#DejaVuSans-7a" transform="translate(822.319336 0.765625)"/>
      <use xlink:href="#DejaVuSans-65" transform="translate(874.80957 0.765625)"/>
      <use xlink:href="#DejaVuSans-64" transform="translate(936.333008 0.765625)"/>
      <use xlink:href="#DejaVuSans-5d" transform="translate(999.80957 0.765625)"/>
     </g>
    </g>
   </g>
   <g id="line2d_19">
    <path d="M 92.290909 163.6516 
L 96.390083 163.647025 
L 100.489256 163.640863 
L 104.58843 163.632563 
L 108.687603 163.621383 
L 112.786777 163.606325 
L 116.88595 163.586043 
L 120.985124 163.558726 
L 125.084298 163.521931 
L 129.183471 163.472371 
L 133.282645 163.405618 
L 137.381818 163.315708 
L 141.480992 163.194606 
L 145.580165 163.031492 
L 149.679339 162.811791 
L 153.778512 162.515872 
L 157.877686 162.117294 
L 161.97686 161.580443 
L 166.076033 160.857348 
L 170.175207 159.8834 
L 174.27438 158.571573 
L 178.373554 156.804651 
L 182.472727 154.424755 
L 186.571901 151.219232 
L 190.671074 146.901659 
L 194.770248 141.147911 
L 198.869421 134.9616 
L 202.968595 128.865156 
L 207.067769 122.877668 
L 211.166942 117.01788 
L 215.266116 111.304139 
L 219.365289 105.754335 
L 223.464463 100.385844 
L 227.563636 95.215473 
L 231.66281 90.259411 
L 235.761983 85.533175 
L 239.861157 81.051563 
L 243.960331 76.828605 
L 248.059504 72.877523 
L 252.158678 69.210689 
L 256.257851 65.839582 
L 260.357025 62.774757 
L 264.456198 60.02581 
L 268.555372 57.601348 
L 272.654545 55.508961 
L 276.753719 53.755201 
L 280.852893 52.345557 
L 284.952066 51.284445 
L 289.05124 50.575186 
L 293.150413 50.22 
L 297.249587 50.22 
L 301.34876 50.575186 
L 305.447934 51.284445 
L 309.547107 52.345557 
L 313.646281 53.755201 
L 317.745455 55.508961 
L 321.844628 57.601348 
L 325.943802 60.02581 
L 330.042975 62.774757 
L 334.142149 65.839582 
L 338.241322 69.210689 
L 342.340496 72.877523 
L 346.439669 76.828605 
L 350.538843 81.051563 
L 354.638017 85.533175 
L 358.73719 90.259411 
L 362.836364 95.215473 
L 366.935537 100.385844 
L 371.034711 105.754335 
L 375.133884 111.304139 
L 379.233058 117.01788 
L 383.332231 122.877668 
L 387.431405 128.865156 
L 391.530579 134.9616 
L 395.629752 141.147911 
L 399.728926 146.901659 
L 403.828099 151.219232 
L 407.927273 154.424755 
L 412.026446 156.804651 
L 416.12562 158.571573 
L 420.224793 159.8834 
L 424.323967 160.857348 
L 428.42314 161.580443 
L 432.522314 162.117294 
L 436.621488 162.515872 
L 440.720661 162.811791 
L 444.819835 163.031492 
L 448.919008 163.194606 
L 453.018182 163.315708 
L 457.117355 163.405618 
L 461.216529 163.472371 
L 465.315702 163.521931 
L 469.414876 163.558726 
L 473.51405 163.586043 
L 477.613223 163.606325 
L 481.712397 163.621383 
L 485.81157 163.632563 
L 489.910744 163.640863 
L 494.009917 163.647025 
L 498.109091 163.6516 
" clip-path="url(#pfb78436a42)" style="fill: none; stroke: #0000ff; stroke-width: 1.5; stroke-linecap: square"/>
   </g>
   <g id="line2d_20">
    <path d="M 92.290909 163.70401 
L 96.390083 163.716772 
L 100.489256 163.733687 
L 104.58843 163.756105 
L 108.687603 163.785818 
L 112.786777 163.825198 
L 116.88595 163.877392 
L 120.985124 163.946569 
L 125.084298 164.038255 
L 129.183471 164.159774 
L 133.282645 164.320832 
L 137.381818 164.534296 
L 141.480992 164.817216 
L 145.580165 165.192193 
L 149.679339 165.68918 
L 153.778512 166.347877 
L 157.877686 167.2209 
L 161.97686 168.377987 
L 166.076033 169.911567 
L 170.175207 171.944143 
L 174.27438 174.638078 
L 178.373554 178.208566 
L 182.472727 182.940818 
L 186.571901 189.21285 
L 190.671074 197.525674 
L 194.770248 208.420439 
L 198.869421 219.764955 
L 202.968595 230.410462 
L 207.067769 240.224317 
L 211.166942 249.084239 
L 215.266116 256.879833 
L 219.365289 263.513966 
L 223.464463 268.903976 
L 227.563636 272.982703 
L 231.66281 275.699328 
L 235.761983 277.02 
L 239.861157 276.928264 
L 243.960331 275.425263 
L 248.059504 272.529724 
L 252.158678 268.277727 
L 256.257851 262.72225 
L 260.357025 255.932515 
L 264.456198 247.993123 
L 268.555372 239.002998 
L 272.654545 229.074158 
L 276.753719 218.330315 
L 280.852893 206.90534 
L 284.952066 194.941586 
L 289.05124 182.588122 
L 293.150413 169.998874 
L 297.249587 157.330703 
L 301.34876 144.741454 
L 305.447934 132.387991 
L 309.547107 120.424237 
L 313.646281 108.999261 
L 317.745455 98.255419 
L 321.844628 88.326578 
L 325.943802 79.336453 
L 330.042975 71.397061 
L 334.142149 64.607326 
L 338.241322 59.05185 
L 342.340496 54.799852 
L 346.439669 51.904313 
L 350.538843 50.401312 
L 354.638017 50.309576 
L 358.73719 51.630248 
L 362.836364 54.346873 
L 366.935537 58.425601 
L 371.034711 63.815611 
L 375.133884 70.449743 
L 379.233058 78.245337 
L 383.332231 87.105259 
L 387.431405 96.919114 
L 391.530579 107.564621 
L 395.629752 118.909138 
L 399.728926 129.803902 
L 403.828099 138.116727 
L 407.927273 144.388759 
L 412.026446 149.121011 
L 416.12562 152.691498 
L 420.224793 155.385434 
L 424.323967 157.41801 
L 428.42314 158.951589 
L 432.522314 160.108677 
L 436.621488 160.9817 
L 440.720661 161.640396 
L 444.819835 162.137383 
L 448.919008 162.51236 
L 453.018182 162.79528 
L 457.117355 163.008744 
L 461.216529 163.169802 
L 465.315702 163.291321 
L 469.414876 163.383007 
L 473.51405 163.452184 
L 477.613223 163.504378 
L 481.712397 163.543759 
L 485.81157 163.573471 
L 489.910744 163.59589 
L 494.009917 163.612804 
L 498.109091 163.625566 
" clip-path="url(#pfb78436a42)" style="fill: none; stroke: #ff0000; stroke-width: 1.5; stroke-linecap: square"/>
   </g>
   <g id="line2d_21">
    <path d="M 92.290909 163.784107 
L 96.390083 163.818451 
L 100.489256 163.862681 
L 104.58843 163.919642 
L 108.687603 163.992999 
L 112.786777 164.08747 
L 116.88595 164.209134 
L 120.985124 164.365818 
L 125.084298 164.567601 
L 129.183471 164.827465 
L 133.282645 165.162127 
L 137.381818 165.593118 
L 141.480992 166.148165 
L 145.580165 166.862975 
L 149.679339 167.783534 
L 153.778512 168.969066 
L 157.877686 170.495838 
L 161.97686 172.462074 
L 166.076033 174.994267 
L 170.175207 178.255321 
L 174.27438 182.455031 
L 178.373554 187.863576 
L 182.472727 194.828906 
L 186.571901 203.799122 
L 190.671074 215.351308 
L 194.770248 230.045531 
L 198.869421 244.410586 
L 202.968595 256.533197 
L 207.067769 266.076699 
L 211.166942 272.776053 
L 215.266116 276.445207 
L 219.365289 276.982263 
L 223.464463 274.372305 
L 227.563636 268.687816 
L 231.66281 260.086664 
L 235.761983 248.807718 
L 239.861157 235.164211 
L 243.960331 219.535048 
L 248.059504 202.354275 
L 252.158678 184.099031 
L 256.257851 165.276294 
L 260.357025 146.408804 
L 264.456198 128.02054 
L 268.555372 110.622176 
L 272.654545 94.696893 
L 276.753719 80.686963 
L 280.852893 68.981464 
L 284.952066 59.905477 
L 289.05124 53.711057 
L 293.150413 50.570235 
L 297.249587 50.570235 
L 301.34876 53.711057 
L 305.447934 59.905477 
L 309.547107 68.981464 
L 313.646281 80.686963 
L 317.745455 94.696893 
L 321.844628 110.622176 
L 325.943802 128.02054 
L 330.042975 146.408804 
L 334.142149 165.276294 
L 338.241322 184.099031 
L 342.340496 202.354275 
L 346.439669 219.535048 
L 350.538843 235.164211 
L 354.638017 248.807718 
L 358.73719 260.086664 
L 362.836364 268.687816 
L 366.935537 274.372305 
L 371.034711 276.982263 
L 375.133884 276.445207 
L 379.233058 272.776053 
L 383.332231 266.076699 
L 387.431405 256.533197 
L 391.530579 244.410586 
L 395.629752 230.045531 
L 399.728926 215.351308 
L 403.828099 203.799122 
L 407.927273 194.828906 
L 412.026446 187.863576 
L 416.12562 182.455031 
L 420.224793 178.255321 
L 424.323967 174.994267 
L 428.42314 172.462074 
L 432.522314 170.495838 
L 436.621488 168.969066 
L 440.720661 167.783534 
L 444.819835 166.862975 
L 448.919008 166.148165 
L 453.018182 165.593118 
L 457.117355 165.162127 
L 461.216529 164.827465 
L 465.315702 164.567601 
L 469.414876 164.365818 
L 473.51405 164.209134 
L 477.613223 164.08747 
L 481.712397 163.992999 
L 485.81157 163.919642 
L 489.910744 163.862681 
L 494.009917 163.818451 
L 498.109091 163.784107 
" clip-path="url(#pfb78436a42)" style="fill: none; stroke: #ffa500; stroke-width: 1.5; stroke-linecap: square"/>
   </g>
   <g id="line2d_22">
    <path d="M 92.290909 163.664788 
L 96.390083 163.664788 
L 100.489256 163.664788 
L 104.58843 163.664788 
L 108.687603 163.664788 
L 112.786777 163.664788 
L 116.88595 163.664788 
L 120.985124 163.664788 
L 125.084298 163.664788 
L 129.183471 163.664788 
L 133.282645 163.664788 
L 137.381818 163.664788 
L 141.480992 163.664788 
L 145.580165 163.664788 
L 149.679339 163.664788 
L 153.778512 163.664788 
L 157.877686 163.664788 
L 161.97686 163.664788 
L 166.076033 163.664788 
L 170.175207 163.664788 
L 174.27438 163.664788 
L 178.373554 163.664788 
L 182.472727 163.664788 
L 186.571901 163.664788 
L 190.671074 163.664788 
L 194.770248 163.664788 
L 198.869421 163.664788 
L 202.968595 163.664788 
L 207.067769 163.664787 
L 211.166942 163.664784 
L 215.266116 163.664767 
L 219.365289 163.664691 
L 223.464463 163.664365 
L 227.563636 163.663092 
L 231.66281 163.658527 
L 235.761983 163.643488 
L 239.861157 163.598005 
L 243.960331 163.471813 
L 248.059504 163.150875 
L 252.158678 162.403458 
L 256.257851 160.811677 
L 260.357025 157.716942 
L 264.456198 152.237277 
L 268.555372 143.43019 
L 272.654545 130.643915 
L 276.753719 114.001723 
L 280.852893 94.82659 
L 284.952066 75.72681 
L 289.05124 60.132821 
L 293.150413 51.327624 
L 297.249587 51.327624 
L 301.34876 60.132821 
L 305.447934 75.72681 
L 309.547107 94.82659 
L 313.646281 114.001723 
L 317.745455 130.643915 
L 321.844628 143.43019 
L 325.943802 152.237277 
L 330.042975 157.716942 
L 334.142149 160.811677 
L 338.241322 162.403458 
L 342.340496 163.150875 
L 346.439669 163.471813 
L 350.538843 163.598005 
L 354.638017 163.643488 
L 358.73719 163.658527 
L 362.836364 163.663092 
L 366.935537 163.664365 
L 371.034711 163.664691 
L 375.133884 163.664767 
L 379.233058 163.664784 
L 383.332231 163.664787 
L 387.431405 163.664788 
L 391.530579 163.664788 
L 395.629752 163.664788 
L 399.728926 163.664788 
L 403.828099 163.664788 
L 407.927273 163.664788 
L 412.026446 163.664788 
L 416.12562 163.664788 
L 420.224793 163.664788 
L 424.323967 163.664788 
L 428.42314 163.664788 
L 432.522314 163.664788 
L 436.621488 163.664788 
L 440.720661 163.664788 
L 444.819835 163.664788 
L 448.919008 163.664788 
L 453.018182 163.664788 
L 457.117355 163.664788 
L 461.216529 163.664788 
L 465.315702 163.664788 
L 469.414876 163.664788 
L 473.51405 163.664788 
L 477.613223 163.664788 
L 481.712397 163.664788 
L 485.81157 163.664788 
L 489.910744 163.664788 
L 494.009917 163.664788 
L 498.109091 163.664788 
" clip-path="url(#pfb78436a42)" style="fill: none; stroke-dasharray: 1.5,2.475; stroke-dashoffset: 0; stroke: #0000ff; stroke-width: 1.5"/>
   </g>
   <g id="line2d_23">
    <path d="M 92.290909 163.664788 
L 498.109091 163.664788 
" clip-path="url(#pfb78436a42)" style="fill: none; stroke: #000000; stroke-width: 1.5; stroke-linecap: square"/>
   </g>
   <g id="patch_4">
    <path d="M 72 288.36 
L 72 38.88 
" style="fill: none; stroke: #000000; stroke-width: 0.8; stroke-linejoin: miter; stroke-linecap: square"/>
   </g>
   <g id="patch_5">
    <path d="M 518.4 288.36 
L 518.4 38.88 
" style="fill: none; stroke: #000000; stroke-width: 0.8; stroke-linejoin: miter; stroke-linecap: square"/>
   </g>
   <g id="patch_6">
    <path d="M 72 288.36 
L 518.4 288.36 
" style="fill: none; stroke: #000000; stroke-width: 0.8; stroke-linejoin: miter; stroke-linecap: square"/>
   </g>
   <g id="patch_7">
    <path d="M 72 38.88 
L 518.4 38.88 
" style="fill: none; stroke: #000000; stroke-width: 0.8; stroke-linejoin: miter; stroke-linecap: square"/>
   </g>
   <g id="text_21">
    <!-- m=0 -->
    <g style="fill: #0000ff" transform="translate(209.978182 84.222339) scale(0.1 -0.1)">
     <defs>
      <path id="DejaVuSans-3d" d="M 678 2906 
L 4684 2906 
L 4684 2381 
L 678 2381 
L 678 2906 
z
M 678 1631 
L 4684 1631 
L 4684 1100 
L 678 1100 
L 678 1631 
z
" transform="scale(0.015625)"/>
     </defs>
     <use xlink:href="#DejaVuSans-6d"/>
     <use xlink:href="#DejaVuSans-3d" x="97.412109"/>
     <use xlink:href="#DejaVuSans-30" x="181.201172"/>
    </g>
   </g>
   <g id="text_22">
    <!-- m=1 -->
    <g style="fill: #ff0000" transform="translate(274.909091 243.107237) scale(0.1 -0.1)">
     <use xlink:href="#DejaVuSans-6d"/>
     <use xlink:href="#DejaVuSans-3d" x="97.412109"/>
     <use xlink:href="#DejaVuSans-31" x="181.201172"/>
    </g>
   </g>
   <g id="text_23">
    <!-- m=2 -->
    <g style="fill: #ffa500" transform="translate(345.927273 220.409394) scale(0.1 -0.1)">
     <use xlink:href="#DejaVuSans-6d"/>
     <use xlink:href="#DejaVuSans-3d" x="97.412109"/>
     <use xlink:href="#DejaVuSans-32" x="181.201172"/>
    </g>
   </g>
   <g id="text_24">
    <!-- waveguide bottom -->
    <g transform="translate(189.67875 136.956235) rotate(-90) scale(0.08 -0.08)">
     <defs>
      <path id="DejaVuSans-77" d="M 269 3500 
L 844 3500 
L 1563 769 
L 2278 3500 
L 2956 3500 
L 3675 769 
L 4391 3500 
L 4966 3500 
L 4050 0 
L 3372 0 
L 2619 2869 
L 1863 0 
L 1184 0 
L 269 3500 
z
" transform="scale(0.015625)"/>
      <path id="DejaVuSans-76" d="M 191 3500 
L 800 3500 
L 1894 563 
L 2988 3500 
L 3597 3500 
L 2284 0 
L 1503 0 
L 191 3500 
z
" transform="scale(0.015625)"/>
      <path id="DejaVuSans-67" d="M 2906 1791 
Q 2906 2416 2648 2759 
Q 2391 3103 1925 3103 
Q 1463 3103 1205 2759 
Q 947 2416 947 1791 
Q 947 1169 1205 825 
Q 1463 481 1925 481 
Q 2391 481 2648 825 
Q 2906 1169 2906 1791 
z
M 3481 434 
Q 3481 -459 3084 -895 
Q 2688 -1331 1869 -1331 
Q 1566 -1331 1297 -1286 
Q 1028 -1241 775 -1147 
L 775 -588 
Q 1028 -725 1275 -790 
Q 1522 -856 1778 -856 
Q 2344 -856 2625 -561 
Q 2906 -266 2906 331 
L 2906 616 
Q 2728 306 2450 153 
Q 2172 0 1784 0 
Q 1141 0 747 490 
Q 353 981 353 1791 
Q 353 2603 747 3093 
Q 1141 3584 1784 3584 
Q 2172 3584 2450 3431 
Q 2728 3278 2906 2969 
L 2906 3500 
L 3481 3500 
L 3481 434 
z
" transform="scale(0.015625)"/>
      <path id="DejaVuSans-75" d="M 544 1381 
L 544 3500 
L 1119 3500 
L 1119 1403 
Q 1119 906 1312 657 
Q 1506 409 1894 409 
Q 2359 409 2629 706 
Q 2900 1003 2900 1516 
L 2900 3500 
L 3475 3500 
L 3475 0 
L 2900 0 
L 2900 538 
Q 2691 219 2414 64 
Q 2138 -91 1772 -91 
Q 1169 -91 856 284 
Q 544 659 544 1381 
z
M 1991 3584 
L 1991 3584 
z
" transform="scale(0.015625)"/>
      <path id="DejaVuSans-62" d="M 3116 1747 
Q 3116 2381 2855 2742 
Q 2594 3103 2138 3103 
Q 1681 3103 1420 2742 
Q 1159 2381 1159 1747 
Q 1159 1113 1420 752 
Q 1681 391 2138 391 
Q 2594 391 2855 752 
Q 3116 1113 3116 1747 
z
M 1159 2969 
Q 1341 3281 1617 3432 
Q 1894 3584 2278 3584 
Q 2916 3584 3314 3078 
Q 3713 2572 3713 1747 
Q 3713 922 3314 415 
Q 2916 -91 2278 -91 
Q 1894 -91 1617 61 
Q 1341 213 1159 525 
L 1159 0 
L 581 0 
L 581 4863 
L 1159 4863 
L 1159 2969 
z
" transform="scale(0.015625)"/>
     </defs>
     <use xlink:href="#DejaVuSans-77"/>
     <use xlink:href="#DejaVuSans-61" x="81.787109"/>
     <use xlink:href="#DejaVuSans-76" x="143.066406"/>
     <use xlink:href="#DejaVuSans-65" x="202.246094"/>
     <use xlink:href="#DejaVuSans-67" x="263.769531"/>
     <use xlink:href="#DejaVuSans-75" x="327.246094"/>
     <use xlink:href="#DejaVuSans-69" x="390.625"/>
     <use xlink:href="#DejaVuSans-64" x="418.408203"/>
     <use xlink:href="#DejaVuSans-65" x="481.884766"/>
     <use xlink:href="#DejaVuSans-20" x="543.408203"/>
     <use xlink:href="#DejaVuSans-62" x="575.195312"/>
     <use xlink:href="#DejaVuSans-6f" x="638.671875"/>
     <use xlink:href="#DejaVuSans-74" x="699.853516"/>
     <use xlink:href="#DejaVuSans-74" x="739.0625"/>
     <use xlink:href="#DejaVuSans-6f" x="778.271484"/>
     <use xlink:href="#DejaVuSans-6d" x="839.453125"/>
    </g>
   </g>
   <g id="text_25">
    <!-- waveguide top -->
    <g transform="translate(402.733295 278.817751) rotate(-90) scale(0.08 -0.08)">
     <defs>
      <path id="DejaVuSans-70" d="M 1159 525 
L 1159 -1331 
L 581 -1331 
L 581 3500 
L 1159 3500 
L 1159 2969 
Q 1341 3281 1617 3432 
Q 1894 3584 2278 3584 
Q 2916 3584 3314 3078 
Q 3713 2572 3713 1747 
Q 3713 922 3314 415 
Q 2916 -91 2278 -91 
Q 1894 -91 1617 61 
Q 1341 213 1159 525 
z
M 3116 1747 
Q 3116 2381 2855 2742 
Q 2594 3103 2138 3103 
Q 1681 3103 1420 2742 
Q 1159 2381 1159 1747 
Q 1159 1113 1420 752 
Q 1681 391 2138 391 
Q 2594 391 2855 752 
Q 3116 1113 3116 1747 
z
" transform="scale(0.015625)"/>
     </defs>
     <use xlink:href="#DejaVuSans-77"/>
     <use xlink:href="#DejaVuSans-61" x="81.787109"/>
     <use xlink:href="#DejaVuSans-76" x="143.066406"/>
     <use xlink:href="#DejaVuSans-65" x="202.246094"/>
     <use xlink:href="#DejaVuSans-67" x="263.769531"/>
     <use xlink:href="#DejaVuSans-75" x="327.246094"/>
     <use xlink:href="#DejaVuSans-69" x="390.625"/>
     <use xlink:href="#DejaVuSans-64" x="418.408203"/>
     <use xlink:href="#DejaVuSans-65" x="481.884766"/>
     <use xlink:href="#DejaVuSans-20" x="543.408203"/>
     <use xlink:href="#DejaVuSans-74" x="575.195312"/>
     <use xlink:href="#DejaVuSans-6f" x="614.404297"/>
     <use xlink:href="#DejaVuSans-70" x="675.585938"/>
    </g>
   </g>
   <g id="text_26">
    <!-- Modal Fields in symmetric planar waveguide V=15.00 -->
    <g transform="translate(133.455938 32.88) scale(0.12 -0.12)">
     <defs>
      <path id="DejaVuSans-4d" d="M 628 4666 
L 1569 4666 
L 2759 1491 
L 3956 4666 
L 4897 4666 
L 4897 0 
L 4281 0 
L 4281 4097 
L 3078 897 
L 2444 897 
L 1241 4097 
L 1241 0 
L 628 0 
L 628 4666 
z
" transform="scale(0.015625)"/>
      <path id="DejaVuSans-46" d="M 628 4666 
L 3309 4666 
L 3309 4134 
L 1259 4134 
L 1259 2759 
L 3109 2759 
L 3109 2228 
L 1259 2228 
L 1259 0 
L 628 0 
L 628 4666 
z
" transform="scale(0.015625)"/>
      <path id="DejaVuSans-79" d="M 2059 -325 
Q 1816 -950 1584 -1140 
Q 1353 -1331 966 -1331 
L 506 -1331 
L 506 -850 
L 844 -850 
Q 1081 -850 1212 -737 
Q 1344 -625 1503 -206 
L 1606 56 
L 191 3500 
L 800 3500 
L 1894 763 
L 2988 3500 
L 3597 3500 
L 2059 -325 
z
" transform="scale(0.015625)"/>
      <path id="DejaVuSans-63" d="M 3122 3366 
L 3122 2828 
Q 2878 2963 2633 3030 
Q 2388 3097 2138 3097 
Q 1578 3097 1268 2742 
Q 959 2388 959 1747 
Q 959 1106 1268 751 
Q 1578 397 2138 397 
Q 2388 397 2633 464 
Q 2878 531 3122 666 
L 3122 134 
Q 2881 22 2623 -34 
Q 2366 -91 2075 -91 
Q 1284 -91 818 406 
Q 353 903 353 1747 
Q 353 2603 823 3093 
Q 1294 3584 2113 3584 
Q 2378 3584 2631 3529 
Q 2884 3475 3122 3366 
z
" transform="scale(0.015625)"/>
      <path id="DejaVuSans-56" d="M 1831 0 
L 50 4666 
L 709 4666 
L 2188 738 
L 3669 4666 
L 4325 4666 
L 2547 0 
L 1831 0 
z
" transform="scale(0.015625)"/>
     </defs>
     <use xlink:href="#DejaVuSans-4d"/>
     <use xlink:href="#DejaVuSans-6f" x="86.279297"/>
     <use xlink:href="#DejaVuSans-64" x="147.460938"/>
     <use xlink:href="#DejaVuSans-61" x="210.9375"/>
     <use xlink:href="#DejaVuSans-6c" x="272.216797"/>
     <use xlink:href="#DejaVuSans-20" x="300"/>
     <use xlink:href="#DejaVuSans-46" x="331.787109"/>
     <use xlink:href="#DejaVuSans-69" x="382.056641"/>
     <use xlink:href="#DejaVuSans-65" x="409.839844"/>
     <use xlink:href="#DejaVuSans-6c" x="471.363281"/>
     <use xlink:href="#DejaVuSans-64" x="499.146484"/>
     <use xlink:href="#DejaVuSans-73" x="562.623047"/>
     <use xlink:href="#DejaVuSans-20" x="614.722656"/>
     <use xlink:href="#DejaVuSans-69" x="646.509766"/>
     <use xlink:href="#DejaVuSans-6e" x="674.292969"/>
     <use xlink:href="#DejaVuSans-20" x="737.671875"/>
     <use xlink:href="#DejaVuSans-73" x="769.458984"/>
     <use xlink:href="#DejaVuSans-79" x="821.558594"/>
     <use xlink:href="#DejaVuSans-6d" x="880.738281"/>
     <use xlink:href="#DejaVuSans-6d" x="978.150391"/>
     <use xlink:href="#DejaVuSans-65" x="1075.5625"/>
     <use xlink:href="#DejaVuSans-74" x="1137.085938"/>
     <use xlink:href="#DejaVuSans-72" x="1176.294922"/>
     <use xlink:href="#DejaVuSans-69" x="1217.408203"/>
     <use xlink:href="#DejaVuSans-63" x="1245.191406"/>
     <use xlink:href="#DejaVuSans-20" x="1300.171875"/>
     <use xlink:href="#DejaVuSans-70" x="1331.958984"/>
     <use xlink:href="#DejaVuSans-6c" x="1395.435547"/>
     <use xlink:href="#DejaVuSans-61" x="1423.21875"/>
     <use xlink:href="#DejaVuSans-6e" x="1484.498047"/>
     <use xlink:href="#DejaVuSans-61" x="1547.876953"/>
     <use xlink:href="#DejaVuSans-72" x="1609.15625"/>
     <use xlink:href="#DejaVuSans-20" x="1650.269531"/>
     <use xlink:href="#DejaVuSans-77" x="1682.056641"/>
     <use xlink:href="#DejaVuSans-61" x="1763.84375"/>
     <use xlink:href="#DejaVuSans-76" x="1825.123047"/>
     <use xlink:href="#DejaVuSans-65" x="1884.302734"/>
     <use xlink:href="#DejaVuSans-67" x="1945.826172"/>
     <use xlink:href="#DejaVuSans-75" x="2009.302734"/>
     <use xlink:href="#DejaVuSans-69" x="2072.681641"/>
     <use xlink:href="#DejaVuSans-64" x="2100.464844"/>
     <use xlink:href="#DejaVuSans-65" x="2163.941406"/>
     <use xlink:href="#DejaVuSans-20" x="2225.464844"/>
     <use xlink:href="#DejaVuSans-56" x="2257.251953"/>
     <use xlink:href="#DejaVuSans-3d" x="2325.660156"/>
     <use xlink:href="#DejaVuSans-31" x="2409.449219"/>
     <use xlink:href="#DejaVuSans-35" x="2473.072266"/>
     <use xlink:href="#DejaVuSans-2e" x="2536.695312"/>
     <use xlink:href="#DejaVuSans-30" x="2568.482422"/>
     <use xlink:href="#DejaVuSans-30" x="2632.105469"/>
    </g>
   </g>
  </g>
 </g>
 <defs>
  <clipPath id="pfb78436a42">
   <rect x="72" y="38.88" width="446.4" height="249.48"/>
  </clipPath>
 </defs>
</svg>
