<?xml version="1.0" encoding="utf-8" standalone="no"?>
<!DOCTYPE svg PUBLIC "-//W3C//DTD SVG 1.1//EN"
  "http://www.w3.org/Graphics/SVG/1.1/DTD/svg11.dtd">
<svg xmlns:xlink="http://www.w3.org/1999/xlink" width="576pt" height="324pt" viewBox="0 0 576 324" xmlns="http://www.w3.org/2000/svg" version="1.1">
 <metadata>
  <rdf:RDF xmlns:dc="http://purl.org/dc/elements/1.1/" xmlns:cc="http://creativecommons.org/ns#" xmlns:rdf="http://www.w3.org/1999/02/22-rdf-syntax-ns#">
   <cc:Work>
    <dc:type rdf:resource="http://purl.org/dc/dcmitype/StillImage"/>
    <dc:date>2024-05-05T12:12:12.539775</dc:date>
    <dc:format>image/svg+xml</dc:format>
    <dc:creator>
     <cc:Agent>
      <dc:title>Matplotlib v3.8.3, https://matplotlib.org/</dc:title>
     </cc:Agent>
    </dc:creator>
   </cc:Work>
  </rdf:RDF>
 </metadata>
 <defs>
  <style type="text/css">*{stroke-linejoin: round; stroke-linecap: butt}</style>
 </defs>
 <g id="figure_1">
  <g id="patch_1">
   <path d="M 0 324 
L 576 324 
L 576 0 
L 0 0 
z
" style="fill: #ffffff"/>
  </g>
  <g id="axes_1">
   <g id="patch_2">
    <path d="M 72 288.36 
L 518.4 288.36 
L 518.4 38.88 
L 72 38.88 
z
" style="fill: #ffffff"/>
   </g>
   <g id="matplotlib.axis_1">
    <g id="xtick_1">
     <g id="line2d_1">
      <defs>
       <path id="mce1bb726dc" d="M 0 0 
L 0 3.5 
" style="stroke: #000000; stroke-width: 0.8"/>
      </defs>
      <g>
       <use xlink:href="#mce1bb726dc" x="72" y="288.36" style="stroke: #000000; stroke-width: 0.8"/>
      </g>
     </g>
     <g id="text_1">
      <!-- 0 -->
      <g transform="translate(68.81875 302.958438) scale(0.1 -0.1)">
       <defs>
        <path id="DejaVuSans-30" d="M 2034 4250 
Q 1547 4250 1301 3770 
Q 1056 3291 1056 2328 
Q 1056 1369 1301 889 
Q 1547 409 2034 409 
Q 2525 409 2770 889 
Q 3016 1369 3016 2328 
Q 3016 3291 2770 3770 
Q 2525 4250 2034 4250 
z
M 2034 4750 
Q 2819 4750 3233 4129 
Q 3647 3509 3647 2328 
Q 3647 1150 3233 529 
Q 2819 -91 2034 -91 
Q 1250 -91 836 529 
Q 422 1150 422 2328 
Q 422 3509 836 4129 
Q 1250 4750 2034 4750 
z
" transform="scale(0.015625)"/>
       </defs>
       <use xlink:href="#DejaVuSans-30"/>
      </g>
     </g>
    </g>
    <g id="xtick_2">
     <g id="line2d_2">
      <g>
       <use xlink:href="#mce1bb726dc" x="146.4" y="288.36" style="stroke: #000000; stroke-width: 0.8"/>
      </g>
     </g>
     <g id="text_2">
      <!-- 2 -->
      <g transform="translate(143.21875 302.958438) scale(0.1 -0.1)">
       <defs>
        <path id="DejaVuSans-32" d="M 1228 531 
L 3431 531 
L 3431 0 
L 469 0 
L 469 531 
Q 828 903 1448 1529 
Q 2069 2156 2228 2338 
Q 2531 2678 2651 2914 
Q 2772 3150 2772 3378 
Q 2772 3750 2511 3984 
Q 2250 4219 1831 4219 
Q 1534 4219 1204 4116 
Q 875 4013 500 3803 
L 500 4441 
Q 881 4594 1212 4672 
Q 1544 4750 1819 4750 
Q 2544 4750 2975 4387 
Q 3406 4025 3406 3419 
Q 3406 3131 3298 2873 
Q 3191 2616 2906 2266 
Q 2828 2175 2409 1742 
Q 1991 1309 1228 531 
z
" transform="scale(0.015625)"/>
       </defs>
       <use xlink:href="#DejaVuSans-32"/>
      </g>
     </g>
    </g>
    <g id="xtick_3">
     <g id="line2d_3">
      <g>
       <use xlink:href="#mce1bb726dc" x="220.8" y="288.36" style="stroke: #000000; stroke-width: 0.8"/>
      </g>
     </g>
     <g id="text_3">
      <!-- 4 -->
      <g transform="translate(217.61875 302.958438) scale(0.1 -0.1)">
       <defs>
        <path id="DejaVuSans-34" d="M 2419 4116 
L 825 1625 
L 2419 1625 
L 2419 4116 
z
M 2253 4666 
L 3047 4666 
L 3047 1625 
L 3713 1625 
L 3713 1100 
L 3047 1100 
L 3047 0 
L 2419 0 
L 2419 1100 
L 313 1100 
L 313 1709 
L 2253 4666 
z
" transform="scale(0.015625)"/>
       </defs>
       <use xlink:href="#DejaVuSans-34"/>
      </g>
     </g>
    </g>
    <g id="xtick_4">
     <g id="line2d_4">
      <g>
       <use xlink:href="#mce1bb726dc" x="295.2" y="288.36" style="stroke: #000000; stroke-width: 0.8"/>
      </g>
     </g>
     <g id="text_4">
      <!-- 6 -->
      <g transform="translate(292.01875 302.958438) scale(0.1 -0.1)">
       <defs>
        <path id="DejaVuSans-36" d="M 2113 2584 
Q 1688 2584 1439 2293 
Q 1191 2003 1191 1497 
Q 1191 994 1439 701 
Q 1688 409 2113 409 
Q 2538 409 2786 701 
Q 3034 994 3034 1497 
Q 3034 2003 2786 2293 
Q 2538 2584 2113 2584 
z
M 3366 4563 
L 3366 3988 
Q 3128 4100 2886 4159 
Q 2644 4219 2406 4219 
Q 1781 4219 1451 3797 
Q 1122 3375 1075 2522 
Q 1259 2794 1537 2939 
Q 1816 3084 2150 3084 
Q 2853 3084 3261 2657 
Q 3669 2231 3669 1497 
Q 3669 778 3244 343 
Q 2819 -91 2113 -91 
Q 1303 -91 875 529 
Q 447 1150 447 2328 
Q 447 3434 972 4092 
Q 1497 4750 2381 4750 
Q 2619 4750 2861 4703 
Q 3103 4656 3366 4563 
z
" transform="scale(0.015625)"/>
       </defs>
       <use xlink:href="#DejaVuSans-36"/>
      </g>
     </g>
    </g>
    <g id="xtick_5">
     <g id="line2d_5">
      <g>
       <use xlink:href="#mce1bb726dc" x="369.6" y="288.36" style="stroke: #000000; stroke-width: 0.8"/>
      </g>
     </g>
     <g id="text_5">
      <!-- 8 -->
      <g transform="translate(366.41875 302.958438) scale(0.1 -0.1)">
       <defs>
        <path id="DejaVuSans-38" d="M 2034 2216 
Q 1584 2216 1326 1975 
Q 1069 1734 1069 1313 
Q 1069 891 1326 650 
Q 1584 409 2034 409 
Q 2484 409 2743 651 
Q 3003 894 3003 1313 
Q 3003 1734 2745 1975 
Q 2488 2216 2034 2216 
z
M 1403 2484 
Q 997 2584 770 2862 
Q 544 3141 544 3541 
Q 544 4100 942 4425 
Q 1341 4750 2034 4750 
Q 2731 4750 3128 4425 
Q 3525 4100 3525 3541 
Q 3525 3141 3298 2862 
Q 3072 2584 2669 2484 
Q 3125 2378 3379 2068 
Q 3634 1759 3634 1313 
Q 3634 634 3220 271 
Q 2806 -91 2034 -91 
Q 1263 -91 848 271 
Q 434 634 434 1313 
Q 434 1759 690 2068 
Q 947 2378 1403 2484 
z
M 1172 3481 
Q 1172 3119 1398 2916 
Q 1625 2713 2034 2713 
Q 2441 2713 2670 2916 
Q 2900 3119 2900 3481 
Q 2900 3844 2670 4047 
Q 2441 4250 2034 4250 
Q 1625 4250 1398 4047 
Q 1172 3844 1172 3481 
z
" transform="scale(0.015625)"/>
       </defs>
       <use xlink:href="#DejaVuSans-38"/>
      </g>
     </g>
    </g>
    <g id="xtick_6">
     <g id="line2d_6">
      <g>
       <use xlink:href="#mce1bb726dc" x="444" y="288.36" style="stroke: #000000; stroke-width: 0.8"/>
      </g>
     </g>
     <g id="text_6">
      <!-- 10 -->
      <g transform="translate(437.6375 302.958438) scale(0.1 -0.1)">
       <defs>
        <path id="DejaVuSans-31" d="M 794 531 
L 1825 531 
L 1825 4091 
L 703 3866 
L 703 4441 
L 1819 4666 
L 2450 4666 
L 2450 531 
L 3481 531 
L 3481 0 
L 794 0 
L 794 531 
z
" transform="scale(0.015625)"/>
       </defs>
       <use xlink:href="#DejaVuSans-31"/>
       <use xlink:href="#DejaVuSans-30" x="63.623047"/>
      </g>
     </g>
    </g>
    <g id="xtick_7">
     <g id="line2d_7">
      <g>
       <use xlink:href="#mce1bb726dc" x="518.4" y="288.36" style="stroke: #000000; stroke-width: 0.8"/>
      </g>
     </g>
     <g id="text_7">
      <!-- 12 -->
      <g transform="translate(512.0375 302.958438) scale(0.1 -0.1)">
       <use xlink:href="#DejaVuSans-31"/>
       <use xlink:href="#DejaVuSans-32" x="63.623047"/>
      </g>
     </g>
    </g>
    <g id="text_8">
     <!-- V-parameter -->
     <g transform="translate(263.872656 316.636563) scale(0.1 -0.1)">
      <defs>
       <path id="DejaVuSans-56" d="M 1831 0 
L 50 4666 
L 709 4666 
L 2188 738 
L 3669 4666 
L 4325 4666 
L 2547 0 
L 1831 0 
z
" transform="scale(0.015625)"/>
       <path id="DejaVuSans-2d" d="M 313 2009 
L 1997 2009 
L 1997 1497 
L 313 1497 
L 313 2009 
z
" transform="scale(0.015625)"/>
       <path id="DejaVuSans-70" d="M 1159 525 
L 1159 -1331 
L 581 -1331 
L 581 3500 
L 1159 3500 
L 1159 2969 
Q 1341 3281 1617 3432 
Q 1894 3584 2278 3584 
Q 2916 3584 3314 3078 
Q 3713 2572 3713 1747 
Q 3713 922 3314 415 
Q 2916 -91 2278 -91 
Q 1894 -91 1617 61 
Q 1341 213 1159 525 
z
M 3116 1747 
Q 3116 2381 2855 2742 
Q 2594 3103 2138 3103 
Q 1681 3103 1420 2742 
Q 1159 2381 1159 1747 
Q 1159 1113 1420 752 
Q 1681 391 2138 391 
Q 2594 391 2855 752 
Q 3116 1113 3116 1747 
z
" transform="scale(0.015625)"/>
       <path id="DejaVuSans-61" d="M 2194 1759 
Q 1497 1759 1228 1600 
Q 959 1441 959 1056 
Q 959 750 1161 570 
Q 1363 391 1709 391 
Q 2188 391 2477 730 
Q 2766 1069 2766 1631 
L 2766 1759 
L 2194 1759 
z
M 3341 1997 
L 3341 0 
L 2766 0 
L 2766 531 
Q 2569 213 2275 61 
Q 1981 -91 1556 -91 
Q 1019 -91 701 211 
Q 384 513 384 1019 
Q 384 1609 779 1909 
Q 1175 2209 1959 2209 
L 2766 2209 
L 2766 2266 
Q 2766 2663 2505 2880 
Q 2244 3097 1772 3097 
Q 1472 3097 1187 3025 
Q 903 2953 641 2809 
L 641 3341 
Q 956 3463 1253 3523 
Q 1550 3584 1831 3584 
Q 2591 3584 2966 3190 
Q 3341 2797 3341 1997 
z
" transform="scale(0.015625)"/>
       <path id="DejaVuSans-72" d="M 2631 2963 
Q 2534 3019 2420 3045 
Q 2306 3072 2169 3072 
Q 1681 3072 1420 2755 
Q 1159 2438 1159 1844 
L 1159 0 
L 581 0 
L 581 3500 
L 1159 3500 
L 1159 2956 
Q 1341 3275 1631 3429 
Q 1922 3584 2338 3584 
Q 2397 3584 2469 3576 
Q 2541 3569 2628 3553 
L 2631 2963 
z
" transform="scale(0.015625)"/>
       <path id="DejaVuSans-6d" d="M 3328 2828 
Q 3544 3216 3844 3400 
Q 4144 3584 4550 3584 
Q 5097 3584 5394 3201 
Q 5691 2819 5691 2113 
L 5691 0 
L 5113 0 
L 5113 2094 
Q 5113 2597 4934 2840 
Q 4756 3084 4391 3084 
Q 3944 3084 3684 2787 
Q 3425 2491 3425 1978 
L 3425 0 
L 2847 0 
L 2847 2094 
Q 2847 2600 2669 2842 
Q 2491 3084 2119 3084 
Q 1678 3084 1418 2786 
Q 1159 2488 1159 1978 
L 1159 0 
L 581 0 
L 581 3500 
L 1159 3500 
L 1159 2956 
Q 1356 3278 1631 3431 
Q 1906 3584 2284 3584 
Q 2666 3584 2933 3390 
Q 3200 3197 3328 2828 
z
" transform="scale(0.015625)"/>
       <path id="DejaVuSans-65" d="M 3597 1894 
L 3597 1613 
L 953 1613 
Q 991 1019 1311 708 
Q 1631 397 2203 397 
Q 2534 397 2845 478 
Q 3156 559 3463 722 
L 3463 178 
Q 3153 47 2828 -22 
Q 2503 -91 2169 -91 
Q 1331 -91 842 396 
Q 353 884 353 1716 
Q 353 2575 817 3079 
Q 1281 3584 2069 3584 
Q 2775 3584 3186 3129 
Q 3597 2675 3597 1894 
z
M 3022 2063 
Q 3016 2534 2758 2815 
Q 2500 3097 2075 3097 
Q 1594 3097 1305 2825 
Q 1016 2553 972 2059 
L 3022 2063 
z
" transform="scale(0.015625)"/>
       <path id="DejaVuSans-74" d="M 1172 4494 
L 1172 3500 
L 2356 3500 
L 2356 3053 
L 1172 3053 
L 1172 1153 
Q 1172 725 1289 603 
Q 1406 481 1766 481 
L 2356 481 
L 2356 0 
L 1766 0 
Q 1100 0 847 248 
Q 594 497 594 1153 
L 594 3053 
L 172 3053 
L 172 3500 
L 594 3500 
L 594 4494 
L 1172 4494 
z
" transform="scale(0.015625)"/>
      </defs>
      <use xlink:href="#DejaVuSans-56"/>
      <use xlink:href="#DejaVuSans-2d" x="62.533203"/>
      <use xlink:href="#DejaVuSans-70" x="98.617188"/>
      <use xlink:href="#DejaVuSans-61" x="162.09375"/>
      <use xlink:href="#DejaVuSans-72" x="223.373047"/>
      <use xlink:href="#DejaVuSans-61" x="264.486328"/>
      <use xlink:href="#DejaVuSans-6d" x="325.765625"/>
      <use xlink:href="#DejaVuSans-65" x="423.177734"/>
      <use xlink:href="#DejaVuSans-74" x="484.701172"/>
      <use xlink:href="#DejaVuSans-65" x="523.910156"/>
      <use xlink:href="#DejaVuSans-72" x="585.433594"/>
     </g>
    </g>
   </g>
   <g id="matplotlib.axis_2">
    <g id="ytick_1">
     <g id="line2d_8">
      <defs>
       <path id="ma14dbffcf0" d="M 0 0 
L -3.5 0 
" style="stroke: #000000; stroke-width: 0.8"/>
      </defs>
      <g>
       <use xlink:href="#ma14dbffcf0" x="72" y="277.061297" style="stroke: #000000; stroke-width: 0.8"/>
      </g>
     </g>
     <g id="text_9">
      <!-- 0.0 -->
      <g transform="translate(49.096875 280.860515) scale(0.1 -0.1)">
       <defs>
        <path id="DejaVuSans-2e" d="M 684 794 
L 1344 794 
L 1344 0 
L 684 0 
L 684 794 
z
" transform="scale(0.015625)"/>
       </defs>
       <use xlink:href="#DejaVuSans-30"/>
       <use xlink:href="#DejaVuSans-2e" x="63.623047"/>
       <use xlink:href="#DejaVuSans-30" x="95.410156"/>
      </g>
     </g>
    </g>
    <g id="ytick_2">
     <g id="line2d_9">
      <g>
       <use xlink:href="#ma14dbffcf0" x="72" y="229.419513" style="stroke: #000000; stroke-width: 0.8"/>
      </g>
     </g>
     <g id="text_10">
      <!-- 0.2 -->
      <g transform="translate(49.096875 233.218732) scale(0.1 -0.1)">
       <use xlink:href="#DejaVuSans-30"/>
       <use xlink:href="#DejaVuSans-2e" x="63.623047"/>
       <use xlink:href="#DejaVuSans-32" x="95.410156"/>
      </g>
     </g>
    </g>
    <g id="ytick_3">
     <g id="line2d_10">
      <g>
       <use xlink:href="#ma14dbffcf0" x="72" y="181.777729" style="stroke: #000000; stroke-width: 0.8"/>
      </g>
     </g>
     <g id="text_11">
      <!-- 0.4 -->
      <g transform="translate(49.096875 185.576948) scale(0.1 -0.1)">
       <use xlink:href="#DejaVuSans-30"/>
       <use xlink:href="#DejaVuSans-2e" x="63.623047"/>
       <use xlink:href="#DejaVuSans-34" x="95.410156"/>
      </g>
     </g>
    </g>
    <g id="ytick_4">
     <g id="line2d_11">
      <g>
       <use xlink:href="#ma14dbffcf0" x="72" y="134.135946" style="stroke: #000000; stroke-width: 0.8"/>
      </g>
     </g>
     <g id="text_12">
      <!-- 0.6 -->
      <g transform="translate(49.096875 137.935165) scale(0.1 -0.1)">
       <use xlink:href="#DejaVuSans-30"/>
       <use xlink:href="#DejaVuSans-2e" x="63.623047"/>
       <use xlink:href="#DejaVuSans-36" x="95.410156"/>
      </g>
     </g>
    </g>
    <g id="ytick_5">
     <g id="line2d_12">
      <g>
       <use xlink:href="#ma14dbffcf0" x="72" y="86.494162" style="stroke: #000000; stroke-width: 0.8"/>
      </g>
     </g>
     <g id="text_13">
      <!-- 0.8 -->
      <g transform="translate(49.096875 90.293381) scale(0.1 -0.1)">
       <use xlink:href="#DejaVuSans-30"/>
       <use xlink:href="#DejaVuSans-2e" x="63.623047"/>
       <use xlink:href="#DejaVuSans-38" x="95.410156"/>
      </g>
     </g>
    </g>
    <g id="text_14">
     <!-- Propagation Constant b -->
     <g transform="translate(43.017187 222.433281) rotate(-90) scale(0.1 -0.1)">
      <defs>
       <path id="DejaVuSans-50" d="M 1259 4147 
L 1259 2394 
L 2053 2394 
Q 2494 2394 2734 2622 
Q 2975 2850 2975 3272 
Q 2975 3691 2734 3919 
Q 2494 4147 2053 4147 
L 1259 4147 
z
M 628 4666 
L 2053 4666 
Q 2838 4666 3239 4311 
Q 3641 3956 3641 3272 
Q 3641 2581 3239 2228 
Q 2838 1875 2053 1875 
L 1259 1875 
L 1259 0 
L 628 0 
L 628 4666 
z
" transform="scale(0.015625)"/>
       <path id="DejaVuSans-6f" d="M 1959 3097 
Q 1497 3097 1228 2736 
Q 959 2375 959 1747 
Q 959 1119 1226 758 
Q 1494 397 1959 397 
Q 2419 397 2687 759 
Q 2956 1122 2956 1747 
Q 2956 2369 2687 2733 
Q 2419 3097 1959 3097 
z
M 1959 3584 
Q 2709 3584 3137 3096 
Q 3566 2609 3566 1747 
Q 3566 888 3137 398 
Q 2709 -91 1959 -91 
Q 1206 -91 779 398 
Q 353 888 353 1747 
Q 353 2609 779 3096 
Q 1206 3584 1959 3584 
z
" transform="scale(0.015625)"/>
       <path id="DejaVuSans-67" d="M 2906 1791 
Q 2906 2416 2648 2759 
Q 2391 3103 1925 3103 
Q 1463 3103 1205 2759 
Q 947 2416 947 1791 
Q 947 1169 1205 825 
Q 1463 481 1925 481 
Q 2391 481 2648 825 
Q 2906 1169 2906 1791 
z
M 3481 434 
Q 3481 -459 3084 -895 
Q 2688 -1331 1869 -1331 
Q 1566 -1331 1297 -1286 
Q 1028 -1241 775 -1147 
L 775 -588 
Q 1028 -725 1275 -790 
Q 1522 -856 1778 -856 
Q 2344 -856 2625 -561 
Q 2906 -266 2906 331 
L 2906 616 
Q 2728 306 2450 153 
Q 2172 0 1784 0 
Q 1141 0 747 490 
Q 353 981 353 1791 
Q 353 2603 747 3093 
Q 1141 3584 1784 3584 
Q 2172 3584 2450 3431 
Q 2728 3278 2906 2969 
L 2906 3500 
L 3481 3500 
L 3481 434 
z
" transform="scale(0.015625)"/>
       <path id="DejaVuSans-69" d="M 603 3500 
L 1178 3500 
L 1178 0 
L 603 0 
L 603 3500 
z
M 603 4863 
L 1178 4863 
L 1178 4134 
L 603 4134 
L 603 4863 
z
" transform="scale(0.015625)"/>
       <path id="DejaVuSans-6e" d="M 3513 2113 
L 3513 0 
L 2938 0 
L 2938 2094 
Q 2938 2591 2744 2837 
Q 2550 3084 2163 3084 
Q 1697 3084 1428 2787 
Q 1159 2491 1159 1978 
L 1159 0 
L 581 0 
L 581 3500 
L 1159 3500 
L 1159 2956 
Q 1366 3272 1645 3428 
Q 1925 3584 2291 3584 
Q 2894 3584 3203 3211 
Q 3513 2838 3513 2113 
z
" transform="scale(0.015625)"/>
       <path id="DejaVuSans-20" transform="scale(0.015625)"/>
       <path id="DejaVuSans-43" d="M 4122 4306 
L 4122 3641 
Q 3803 3938 3442 4084 
Q 3081 4231 2675 4231 
Q 1875 4231 1450 3742 
Q 1025 3253 1025 2328 
Q 1025 1406 1450 917 
Q 1875 428 2675 428 
Q 3081 428 3442 575 
Q 3803 722 4122 1019 
L 4122 359 
Q 3791 134 3420 21 
Q 3050 -91 2638 -91 
Q 1578 -91 968 557 
Q 359 1206 359 2328 
Q 359 3453 968 4101 
Q 1578 4750 2638 4750 
Q 3056 4750 3426 4639 
Q 3797 4528 4122 4306 
z
" transform="scale(0.015625)"/>
       <path id="DejaVuSans-73" d="M 2834 3397 
L 2834 2853 
Q 2591 2978 2328 3040 
Q 2066 3103 1784 3103 
Q 1356 3103 1142 2972 
Q 928 2841 928 2578 
Q 928 2378 1081 2264 
Q 1234 2150 1697 2047 
L 1894 2003 
Q 2506 1872 2764 1633 
Q 3022 1394 3022 966 
Q 3022 478 2636 193 
Q 2250 -91 1575 -91 
Q 1294 -91 989 -36 
Q 684 19 347 128 
L 347 722 
Q 666 556 975 473 
Q 1284 391 1588 391 
Q 1994 391 2212 530 
Q 2431 669 2431 922 
Q 2431 1156 2273 1281 
Q 2116 1406 1581 1522 
L 1381 1569 
Q 847 1681 609 1914 
Q 372 2147 372 2553 
Q 372 3047 722 3315 
Q 1072 3584 1716 3584 
Q 2034 3584 2315 3537 
Q 2597 3491 2834 3397 
z
" transform="scale(0.015625)"/>
       <path id="DejaVuSans-62" d="M 3116 1747 
Q 3116 2381 2855 2742 
Q 2594 3103 2138 3103 
Q 1681 3103 1420 2742 
Q 1159 2381 1159 1747 
Q 1159 1113 1420 752 
Q 1681 391 2138 391 
Q 2594 391 2855 752 
Q 3116 1113 3116 1747 
z
M 1159 2969 
Q 1341 3281 1617 3432 
Q 1894 3584 2278 3584 
Q 2916 3584 3314 3078 
Q 3713 2572 3713 1747 
Q 3713 922 3314 415 
Q 2916 -91 2278 -91 
Q 1894 -91 1617 61 
Q 1341 213 1159 525 
L 1159 0 
L 581 0 
L 581 4863 
L 1159 4863 
L 1159 2969 
z
" transform="scale(0.015625)"/>
      </defs>
      <use xlink:href="#DejaVuSans-50"/>
      <use xlink:href="#DejaVuSans-72" x="58.552734"/>
      <use xlink:href="#DejaVuSans-6f" x="97.416016"/>
      <use xlink:href="#DejaVuSans-70" x="158.597656"/>
      <use xlink:href="#DejaVuSans-61" x="222.074219"/>
      <use xlink:href="#DejaVuSans-67" x="283.353516"/>
      <use xlink:href="#DejaVuSans-61" x="346.830078"/>
      <use xlink:href="#DejaVuSans-74" x="408.109375"/>
      <use xlink:href="#DejaVuSans-69" x="447.318359"/>
      <use xlink:href="#DejaVuSans-6f" x="475.101562"/>
      <use xlink:href="#DejaVuSans-6e" x="536.283203"/>
      <use xlink:href="#DejaVuSans-20" x="599.662109"/>
      <use xlink:href="#DejaVuSans-43" x="631.449219"/>
      <use xlink:href="#DejaVuSans-6f" x="701.273438"/>
      <use xlink:href="#DejaVuSans-6e" x="762.455078"/>
      <use xlink:href="#DejaVuSans-73" x="825.833984"/>
      <use xlink:href="#DejaVuSans-74" x="877.933594"/>
      <use xlink:href="#DejaVuSans-61" x="917.142578"/>
      <use xlink:href="#DejaVuSans-6e" x="978.421875"/>
      <use xlink:href="#DejaVuSans-74" x="1041.800781"/>
      <use xlink:href="#DejaVuSans-20" x="1081.009766"/>
      <use xlink:href="#DejaVuSans-62" x="1112.796875"/>
     </g>
    </g>
   </g>
   <g id="line2d_13">
    <path d="M 95.124735 277.02 
L 102.70898 274.957072 
L 110.293224 265.392972 
L 117.877469 248.561248 
L 125.461714 228.669131 
L 133.045959 208.832277 
L 140.630204 190.519023 
L 148.214449 174.215671 
L 155.798694 159.944417 
L 163.382939 147.538778 
L 170.967184 136.773402 
L 178.551429 127.420804 
L 186.135673 119.273689 
L 193.719918 112.151692 
L 201.304163 105.901394 
L 208.888408 100.393731 
L 216.472653 95.520631 
L 224.056898 91.191702 
L 231.641143 87.331256 
L 239.225388 83.875763 
L 246.809633 80.771733 
L 254.393878 77.973966 
L 261.978122 75.444118 
L 269.562367 73.149535 
L 277.146612 71.062298 
L 284.730857 69.158442 
L 292.315102 67.417315 
L 299.899347 65.821056 
L 307.483592 64.354163 
L 315.067837 63.003128 
L 322.652082 61.756149 
L 330.236327 60.602873 
L 337.820571 59.534197 
L 345.404816 58.542086 
L 352.989061 57.619432 
L 360.573306 56.75993 
L 368.157551 55.957968 
L 375.741796 55.208542 
L 383.326041 54.507178 
L 390.910286 53.849866 
L 398.494531 53.233004 
L 406.078776 52.653349 
L 413.66302 52.107976 
L 421.247265 51.594241 
L 428.83151 51.109749 
L 436.415755 50.652327 
L 444 50.22 
" clip-path="url(#p41985fa0b3)" style="fill: none; stroke: #1f77b4; stroke-width: 1.5; stroke-linecap: square"/>
   </g>
   <g id="line2d_14">
    <path d="M 224.056898 273.435646 
L 231.641143 264.235087 
L 239.225388 253.255679 
L 246.809633 241.934561 
L 254.393878 230.851384 
L 261.978122 220.258744 
L 269.562367 210.26178 
L 277.146612 200.89291 
L 284.730857 192.147211 
L 292.315102 184.00058 
L 299.899347 176.419557 
L 307.483592 169.366781 
L 315.067837 162.804059 
L 322.652082 156.694081 
L 330.236327 151.001338 
L 337.820571 145.692578 
L 345.404816 140.736975 
L 352.989061 136.106152 
L 360.573306 131.774095 
L 368.157551 127.717027 
L 375.741796 123.913247 
L 383.326041 120.342976 
L 390.910286 116.988185 
L 398.494531 113.832446 
L 406.078776 110.86078 
L 413.66302 108.059525 
L 421.247265 105.416211 
L 428.83151 102.919443 
L 436.415755 100.558803 
L 444 98.324753 
" clip-path="url(#p41985fa0b3)" style="fill: none; stroke: #ff7f0e; stroke-width: 1.5; stroke-linecap: square"/>
   </g>
   <g id="line2d_15">
    <path d="M 337.820571 276.160245 
L 345.404816 270.373619 
L 352.989061 262.902007 
L 360.573306 255.001203 
L 368.157551 247.083074 
L 375.741796 239.326663 
L 383.326041 231.817849 
L 390.910286 224.597775 
L 398.494531 217.683795 
L 406.078776 211.079843 
L 413.66302 204.782049 
L 421.247265 198.781983 
L 428.83151 193.068602 
L 436.415755 187.629465 
L 444 182.451496 
" clip-path="url(#p41985fa0b3)" style="fill: none; stroke: #2ca02c; stroke-width: 1.5; stroke-linecap: square"/>
   </g>
   <g id="line2d_16">
    <path d="M 163.382939 274.74778 
L 170.967184 260.777114 
L 178.551429 244.96899 
L 186.135673 229.425372 
L 193.719918 214.828362 
L 201.304163 201.399439 
L 208.888408 189.168253 
L 216.472653 178.081012 
L 224.056898 168.049826 
L 231.641143 158.976278 
L 239.225388 150.76274 
L 246.809633 143.317584 
L 254.393878 136.55729 
L 261.978122 130.40697 
L 269.562367 124.80011 
L 277.146612 119.677949 
L 284.730857 114.988715 
L 292.315102 110.68685 
L 299.899347 106.732264 
L 307.483592 103.089648 
L 315.067837 99.727876 
L 322.652082 96.619458 
L 330.236327 93.740077 
L 337.820571 91.068182 
L 345.404816 88.584632 
L 352.989061 86.272394 
L 360.573306 84.116279 
L 368.157551 82.102713 
L 375.741796 80.219544 
L 383.326041 78.455865 
L 390.910286 76.801874 
L 398.494531 75.248739 
L 406.078776 73.78849 
L 413.66302 72.413921 
L 421.247265 71.118505 
L 428.83151 69.896317 
L 436.415755 68.741975 
L 444 67.650577 
" clip-path="url(#p41985fa0b3)" style="fill: none; stroke: #d62728; stroke-width: 1.5; stroke-linecap: square"/>
   </g>
   <g id="line2d_17">
    <path d="M 284.730857 270.292671 
L 292.315102 261.125208 
L 299.899347 251.540121 
L 307.483592 242.047845 
L 315.067837 232.860734 
L 322.652082 224.073184 
L 330.236327 215.723434 
L 337.820571 207.820501 
L 345.404816 200.35757 
L 352.989061 193.319213 
L 360.573306 186.685499 
L 368.157551 180.434403 
L 375.741796 174.543248 
L 383.326041 168.989562 
L 390.910286 163.751589 
L 398.494531 158.808575 
L 406.078776 154.140917 
L 413.66302 149.730224 
L 421.247265 145.559317 
L 428.83151 141.612209 
L 436.415755 137.874047 
L 444 134.331057 
" clip-path="url(#p41985fa0b3)" style="fill: none; stroke: #9467bd; stroke-width: 1.5; stroke-linecap: square"/>
   </g>
   <g id="line2d_18">
    <path d="M 398.494531 274.359808 
L 406.078776 268.033803 
L 413.66302 261.113236 
L 421.247265 254.086573 
L 428.83151 247.139803 
L 436.415755 240.360172 
L 444 233.791254 
" clip-path="url(#p41985fa0b3)" style="fill: none; stroke: #8c564b; stroke-width: 1.5; stroke-linecap: square"/>
   </g>
   <g id="line2d_19">
    <path d="M 216.472653 273.688513 
L 224.056898 259.834615 
L 231.641143 246.231784 
L 239.225388 233.3602 
L 246.809633 221.353794 
L 254.393878 210.230703 
L 261.978122 199.960282 
L 269.562367 190.490894 
L 277.146612 181.763037 
L 284.730857 173.715913 
L 292.315102 166.290726 
L 299.899347 159.432268 
L 307.483592 153.089587 
L 315.067837 147.216147 
L 322.652082 141.769717 
L 330.236327 136.712122 
L 337.820571 132.008936 
L 345.404816 127.629142 
L 352.989061 123.54481 
L 360.573306 119.730786 
L 368.157551 116.164399 
L 375.741796 112.825202 
L 383.326041 109.694736 
L 390.910286 106.756314 
L 398.494531 103.994833 
L 406.078776 101.396607 
L 413.66302 98.949215 
L 421.247265 96.64137 
L 428.83151 94.4628 
L 436.415755 92.404142 
L 444 90.456854 
" clip-path="url(#p41985fa0b3)" style="fill: none; stroke: #e377c2; stroke-width: 1.5; stroke-linecap: square"/>
   </g>
   <g id="line2d_20">
    <path d="M 337.820571 272.064293 
L 345.404816 263.55645 
L 352.989061 254.956026 
L 360.573306 246.530104 
L 368.157551 238.38827 
L 375.741796 230.578681 
L 383.326041 223.119761 
L 390.910286 216.014085 
L 398.494531 209.255392 
L 406.078776 202.832458 
L 413.66302 196.731354 
L 421.247265 190.936812 
L 428.83151 185.43307 
L 436.415755 180.204393 
L 444 175.235401 
" clip-path="url(#p41985fa0b3)" style="fill: none; stroke: #7f7f7f; stroke-width: 1.5; stroke-linecap: square"/>
   </g>
   <g id="line2d_21">
    <path clip-path="url(#p41985fa0b3)" style="fill: none; stroke: #bcbd22; stroke-width: 1.5; stroke-linecap: square"/>
   </g>
   <g id="patch_3">
    <path d="M 72 288.36 
L 72 38.88 
" style="fill: none; stroke: #000000; stroke-width: 0.8; stroke-linejoin: miter; stroke-linecap: square"/>
   </g>
   <g id="patch_4">
    <path d="M 518.4 288.36 
L 518.4 38.88 
" style="fill: none; stroke: #000000; stroke-width: 0.8; stroke-linejoin: miter; stroke-linecap: square"/>
   </g>
   <g id="patch_5">
    <path d="M 72 288.36 
L 518.4 288.36 
" style="fill: none; stroke: #000000; stroke-width: 0.8; stroke-linejoin: miter; stroke-linecap: square"/>
   </g>
   <g id="patch_6">
    <path d="M 72 38.88 
L 518.4 38.88 
" style="fill: none; stroke: #000000; stroke-width: 0.8; stroke-linejoin: miter; stroke-linecap: square"/>
   </g>
   <g id="text_15">
    <!--  LP$_{01}$ -->
    <g transform="translate(444 52.979375) scale(0.1 -0.1)">
     <defs>
      <path id="DejaVuSans-4c" d="M 628 4666 
L 1259 4666 
L 1259 531 
L 3531 531 
L 3531 0 
L 628 0 
L 628 4666 
z
" transform="scale(0.015625)"/>
     </defs>
     <use xlink:href="#DejaVuSans-20" transform="translate(0 0.09375)"/>
     <use xlink:href="#DejaVuSans-4c" transform="translate(31.787109 0.09375)"/>
     <use xlink:href="#DejaVuSans-50" transform="translate(87.5 0.09375)"/>
     <use xlink:href="#DejaVuSans-30" transform="translate(148.759766 -16.3125) scale(0.7)"/>
     <use xlink:href="#DejaVuSans-31" transform="translate(193.295898 -16.3125) scale(0.7)"/>
    </g>
   </g>
   <g id="text_16">
    <!--  LP$_{02}$ -->
    <g transform="translate(444 101.084128) scale(0.1 -0.1)">
     <use xlink:href="#DejaVuSans-20" transform="translate(0 0.09375)"/>
     <use xlink:href="#DejaVuSans-4c" transform="translate(31.787109 0.09375)"/>
     <use xlink:href="#DejaVuSans-50" transform="translate(87.5 0.09375)"/>
     <use xlink:href="#DejaVuSans-30" transform="translate(148.759766 -16.3125) scale(0.7)"/>
     <use xlink:href="#DejaVuSans-32" transform="translate(193.295898 -16.3125) scale(0.7)"/>
    </g>
   </g>
   <g id="text_17">
    <!--  LP$_{03}$ -->
    <g transform="translate(444 185.210871) scale(0.1 -0.1)">
     <defs>
      <path id="DejaVuSans-33" d="M 2597 2516 
Q 3050 2419 3304 2112 
Q 3559 1806 3559 1356 
Q 3559 666 3084 287 
Q 2609 -91 1734 -91 
Q 1441 -91 1130 -33 
Q 819 25 488 141 
L 488 750 
Q 750 597 1062 519 
Q 1375 441 1716 441 
Q 2309 441 2620 675 
Q 2931 909 2931 1356 
Q 2931 1769 2642 2001 
Q 2353 2234 1838 2234 
L 1294 2234 
L 1294 2753 
L 1863 2753 
Q 2328 2753 2575 2939 
Q 2822 3125 2822 3475 
Q 2822 3834 2567 4026 
Q 2313 4219 1838 4219 
Q 1578 4219 1281 4162 
Q 984 4106 628 3988 
L 628 4550 
Q 988 4650 1302 4700 
Q 1616 4750 1894 4750 
Q 2613 4750 3031 4423 
Q 3450 4097 3450 3541 
Q 3450 3153 3228 2886 
Q 3006 2619 2597 2516 
z
" transform="scale(0.015625)"/>
     </defs>
     <use xlink:href="#DejaVuSans-20" transform="translate(0 0.09375)"/>
     <use xlink:href="#DejaVuSans-4c" transform="translate(31.787109 0.09375)"/>
     <use xlink:href="#DejaVuSans-50" transform="translate(87.5 0.09375)"/>
     <use xlink:href="#DejaVuSans-30" transform="translate(148.759766 -16.3125) scale(0.7)"/>
     <use xlink:href="#DejaVuSans-33" transform="translate(193.295898 -16.3125) scale(0.7)"/>
    </g>
   </g>
   <g id="text_18">
    <!--  LP$_{11}$ -->
    <g transform="translate(444 70.409952) scale(0.1 -0.1)">
     <use xlink:href="#DejaVuSans-20" transform="translate(0 0.09375)"/>
     <use xlink:href="#DejaVuSans-4c" transform="translate(31.787109 0.09375)"/>
     <use xlink:href="#DejaVuSans-50" transform="translate(87.5 0.09375)"/>
     <use xlink:href="#DejaVuSans-31" transform="translate(148.759766 -16.3125) scale(0.7)"/>
     <use xlink:href="#DejaVuSans-31" transform="translate(193.295898 -16.3125) scale(0.7)"/>
    </g>
   </g>
   <g id="text_19">
    <!--  LP$_{12}$ -->
    <g transform="translate(444 137.090432) scale(0.1 -0.1)">
     <use xlink:href="#DejaVuSans-20" transform="translate(0 0.09375)"/>
     <use xlink:href="#DejaVuSans-4c" transform="translate(31.787109 0.09375)"/>
     <use xlink:href="#DejaVuSans-50" transform="translate(87.5 0.09375)"/>
     <use xlink:href="#DejaVuSans-31" transform="translate(148.759766 -16.3125) scale(0.7)"/>
     <use xlink:href="#DejaVuSans-32" transform="translate(193.295898 -16.3125) scale(0.7)"/>
    </g>
   </g>
   <g id="text_20">
    <!--  LP$_{13}$ -->
    <g transform="translate(444 236.550629) scale(0.1 -0.1)">
     <use xlink:href="#DejaVuSans-20" transform="translate(0 0.09375)"/>
     <use xlink:href="#DejaVuSans-4c" transform="translate(31.787109 0.09375)"/>
     <use xlink:href="#DejaVuSans-50" transform="translate(87.5 0.09375)"/>
     <use xlink:href="#DejaVuSans-31" transform="translate(148.759766 -16.3125) scale(0.7)"/>
     <use xlink:href="#DejaVuSans-33" transform="translate(193.295898 -16.3125) scale(0.7)"/>
    </g>
   </g>
   <g id="text_21">
    <!--  LP$_{21}$ -->
    <g transform="translate(444 93.216229) scale(0.1 -0.1)">
     <use xlink:href="#DejaVuSans-20" transform="translate(0 0.09375)"/>
     <use xlink:href="#DejaVuSans-4c" transform="translate(31.787109 0.09375)"/>
     <use xlink:href="#DejaVuSans-50" transform="translate(87.5 0.09375)"/>
     <use xlink:href="#DejaVuSans-32" transform="translate(148.759766 -16.3125) scale(0.7)"/>
     <use xlink:href="#DejaVuSans-31" transform="translate(193.295898 -16.3125) scale(0.7)"/>
    </g>
   </g>
   <g id="text_22">
    <!--  LP$_{22}$ -->
    <g transform="translate(444 177.994776) scale(0.1 -0.1)">
     <use xlink:href="#DejaVuSans-20" transform="translate(0 0.09375)"/>
     <use xlink:href="#DejaVuSans-4c" transform="translate(31.787109 0.09375)"/>
     <use xlink:href="#DejaVuSans-50" transform="translate(87.5 0.09375)"/>
     <use xlink:href="#DejaVuSans-32" transform="translate(148.759766 -16.3125) scale(0.7)"/>
     <use xlink:href="#DejaVuSans-32" transform="translate(193.295898 -16.3125) scale(0.7)"/>
    </g>
   </g>
   <g id="text_23">
    <!-- Modes in a step-index Fiber -->
    <g transform="translate(212.74125 32.88) scale(0.12 -0.12)">
     <defs>
      <path id="DejaVuSans-4d" d="M 628 4666 
L 1569 4666 
L 2759 1491 
L 3956 4666 
L 4897 4666 
L 4897 0 
L 4281 0 
L 4281 4097 
L 3078 897 
L 2444 897 
L 1241 4097 
L 1241 0 
L 628 0 
L 628 4666 
z
" transform="scale(0.015625)"/>
      <path id="DejaVuSans-64" d="M 2906 2969 
L 2906 4863 
L 3481 4863 
L 3481 0 
L 2906 0 
L 2906 525 
Q 2725 213 2448 61 
Q 2172 -91 1784 -91 
Q 1150 -91 751 415 
Q 353 922 353 1747 
Q 353 2572 751 3078 
Q 1150 3584 1784 3584 
Q 2172 3584 2448 3432 
Q 2725 3281 2906 2969 
z
M 947 1747 
Q 947 1113 1208 752 
Q 1469 391 1925 391 
Q 2381 391 2643 752 
Q 2906 1113 2906 1747 
Q 2906 2381 2643 2742 
Q 2381 3103 1925 3103 
Q 1469 3103 1208 2742 
Q 947 2381 947 1747 
z
" transform="scale(0.015625)"/>
      <path id="DejaVuSans-78" d="M 3513 3500 
L 2247 1797 
L 3578 0 
L 2900 0 
L 1881 1375 
L 863 0 
L 184 0 
L 1544 1831 
L 300 3500 
L 978 3500 
L 1906 2253 
L 2834 3500 
L 3513 3500 
z
" transform="scale(0.015625)"/>
      <path id="DejaVuSans-46" d="M 628 4666 
L 3309 4666 
L 3309 4134 
L 1259 4134 
L 1259 2759 
L 3109 2759 
L 3109 2228 
L 1259 2228 
L 1259 0 
L 628 0 
L 628 4666 
z
" transform="scale(0.015625)"/>
     </defs>
     <use xlink:href="#DejaVuSans-4d"/>
     <use xlink:href="#DejaVuSans-6f" x="86.279297"/>
     <use xlink:href="#DejaVuSans-64" x="147.460938"/>
     <use xlink:href="#DejaVuSans-65" x="210.9375"/>
     <use xlink:href="#DejaVuSans-73" x="272.460938"/>
     <use xlink:href="#DejaVuSans-20" x="324.560547"/>
     <use xlink:href="#DejaVuSans-69" x="356.347656"/>
     <use xlink:href="#DejaVuSans-6e" x="384.130859"/>
     <use xlink:href="#DejaVuSans-20" x="447.509766"/>
     <use xlink:href="#DejaVuSans-61" x="479.296875"/>
     <use xlink:href="#DejaVuSans-20" x="540.576172"/>
     <use xlink:href="#DejaVuSans-73" x="572.363281"/>
     <use xlink:href="#DejaVuSans-74" x="624.462891"/>
     <use xlink:href="#DejaVuSans-65" x="663.671875"/>
     <use xlink:href="#DejaVuSans-70" x="725.195312"/>
     <use xlink:href="#DejaVuSans-2d" x="788.671875"/>
     <use xlink:href="#DejaVuSans-69" x="824.755859"/>
     <use xlink:href="#DejaVuSans-6e" x="852.539062"/>
     <use xlink:href="#DejaVuSans-64" x="915.917969"/>
     <use xlink:href="#DejaVuSans-65" x="979.394531"/>
     <use xlink:href="#DejaVuSans-78" x="1039.167969"/>
     <use xlink:href="#DejaVuSans-20" x="1098.347656"/>
     <use xlink:href="#DejaVuSans-46" x="1130.134766"/>
     <use xlink:href="#DejaVuSans-69" x="1180.404297"/>
     <use xlink:href="#DejaVuSans-62" x="1208.1875"/>
     <use xlink:href="#DejaVuSans-65" x="1271.664062"/>
     <use xlink:href="#DejaVuSans-72" x="1333.1875"/>
    </g>
   </g>
  </g>
 </g>
 <defs>
  <clipPath id="p41985fa0b3">
   <rect x="72" y="38.88" width="446.4" height="249.48"/>
  </clipPath>
 </defs>
</svg>
