<?xml version="1.0" encoding="utf-8" standalone="no"?>
<!DOCTYPE svg PUBLIC "-//W3C//DTD SVG 1.1//EN"
  "http://www.w3.org/Graphics/SVG/1.1/DTD/svg11.dtd">
<svg xmlns:xlink="http://www.w3.org/1999/xlink" width="576pt" height="324pt" viewBox="0 0 576 324" xmlns="http://www.w3.org/2000/svg" version="1.1">
 <metadata>
  <rdf:RDF xmlns:dc="http://purl.org/dc/elements/1.1/" xmlns:cc="http://creativecommons.org/ns#" xmlns:rdf="http://www.w3.org/1999/02/22-rdf-syntax-ns#">
   <cc:Work>
    <dc:type rdf:resource="http://purl.org/dc/dcmitype/StillImage"/>
    <dc:date>2024-05-05T12:32:41.079729</dc:date>
    <dc:format>image/svg+xml</dc:format>
    <dc:creator>
     <cc:Agent>
      <dc:title>Matplotlib v3.8.3, https://matplotlib.org/</dc:title>
     </cc:Agent>
    </dc:creator>
   </cc:Work>
  </rdf:RDF>
 </metadata>
 <defs>
  <style type="text/css">*{stroke-linejoin: round; stroke-linecap: butt}</style>
 </defs>
 <g id="figure_1">
  <g id="patch_1">
   <path d="M 0 324 
L 576 324 
L 576 0 
L 0 0 
z
" style="fill: #ffffff"/>
  </g>
  <g id="axes_1">
   <g id="patch_2">
    <path d="M 72 288.36 
L 518.4 288.36 
L 518.4 38.88 
L 72 38.88 
z
" style="fill: #ffffff"/>
   </g>
   <g id="matplotlib.axis_1">
    <g id="xtick_1">
     <g id="line2d_1">
      <path d="M 92.290909 288.36 
L 92.290909 38.88 
" clip-path="url(#p054922511d)" style="fill: none; stroke: #b0b0b0; stroke-width: 0.8; stroke-linecap: square"/>
     </g>
     <g id="line2d_2">
      <defs>
       <path id="m140e46ad10" d="M 0 0 
L 0 3.5 
" style="stroke: #000000; stroke-width: 0.8"/>
      </defs>
      <g>
       <use xlink:href="#m140e46ad10" x="92.290909" y="288.36" style="stroke: #000000; stroke-width: 0.8"/>
      </g>
     </g>
     <g id="text_1">
      <!-- 2 -->
      <g transform="translate(89.109659 302.958438) scale(0.1 -0.1)">
       <defs>
        <path id="DejaVuSans-32" d="M 1228 531 
L 3431 531 
L 3431 0 
L 469 0 
L 469 531 
Q 828 903 1448 1529 
Q 2069 2156 2228 2338 
Q 2531 2678 2651 2914 
Q 2772 3150 2772 3378 
Q 2772 3750 2511 3984 
Q 2250 4219 1831 4219 
Q 1534 4219 1204 4116 
Q 875 4013 500 3803 
L 500 4441 
Q 881 4594 1212 4672 
Q 1544 4750 1819 4750 
Q 2544 4750 2975 4387 
Q 3406 4025 3406 3419 
Q 3406 3131 3298 2873 
Q 3191 2616 2906 2266 
Q 2828 2175 2409 1742 
Q 1991 1309 1228 531 
z
" transform="scale(0.015625)"/>
       </defs>
       <use xlink:href="#DejaVuSans-32"/>
      </g>
     </g>
    </g>
    <g id="xtick_2">
     <g id="line2d_3">
      <path d="M 154.724476 288.36 
L 154.724476 38.88 
" clip-path="url(#p054922511d)" style="fill: none; stroke: #b0b0b0; stroke-width: 0.8; stroke-linecap: square"/>
     </g>
     <g id="line2d_4">
      <g>
       <use xlink:href="#m140e46ad10" x="154.724476" y="288.36" style="stroke: #000000; stroke-width: 0.8"/>
      </g>
     </g>
     <g id="text_2">
      <!-- 4 -->
      <g transform="translate(151.543226 302.958438) scale(0.1 -0.1)">
       <defs>
        <path id="DejaVuSans-34" d="M 2419 4116 
L 825 1625 
L 2419 1625 
L 2419 4116 
z
M 2253 4666 
L 3047 4666 
L 3047 1625 
L 3713 1625 
L 3713 1100 
L 3047 1100 
L 3047 0 
L 2419 0 
L 2419 1100 
L 313 1100 
L 313 1709 
L 2253 4666 
z
" transform="scale(0.015625)"/>
       </defs>
       <use xlink:href="#DejaVuSans-34"/>
      </g>
     </g>
    </g>
    <g id="xtick_3">
     <g id="line2d_5">
      <path d="M 217.158042 288.36 
L 217.158042 38.88 
" clip-path="url(#p054922511d)" style="fill: none; stroke: #b0b0b0; stroke-width: 0.8; stroke-linecap: square"/>
     </g>
     <g id="line2d_6">
      <g>
       <use xlink:href="#m140e46ad10" x="217.158042" y="288.36" style="stroke: #000000; stroke-width: 0.8"/>
      </g>
     </g>
     <g id="text_3">
      <!-- 6 -->
      <g transform="translate(213.976792 302.958438) scale(0.1 -0.1)">
       <defs>
        <path id="DejaVuSans-36" d="M 2113 2584 
Q 1688 2584 1439 2293 
Q 1191 2003 1191 1497 
Q 1191 994 1439 701 
Q 1688 409 2113 409 
Q 2538 409 2786 701 
Q 3034 994 3034 1497 
Q 3034 2003 2786 2293 
Q 2538 2584 2113 2584 
z
M 3366 4563 
L 3366 3988 
Q 3128 4100 2886 4159 
Q 2644 4219 2406 4219 
Q 1781 4219 1451 3797 
Q 1122 3375 1075 2522 
Q 1259 2794 1537 2939 
Q 1816 3084 2150 3084 
Q 2853 3084 3261 2657 
Q 3669 2231 3669 1497 
Q 3669 778 3244 343 
Q 2819 -91 2113 -91 
Q 1303 -91 875 529 
Q 447 1150 447 2328 
Q 447 3434 972 4092 
Q 1497 4750 2381 4750 
Q 2619 4750 2861 4703 
Q 3103 4656 3366 4563 
z
" transform="scale(0.015625)"/>
       </defs>
       <use xlink:href="#DejaVuSans-36"/>
      </g>
     </g>
    </g>
    <g id="xtick_4">
     <g id="line2d_7">
      <path d="M 279.591608 288.36 
L 279.591608 38.88 
" clip-path="url(#p054922511d)" style="fill: none; stroke: #b0b0b0; stroke-width: 0.8; stroke-linecap: square"/>
     </g>
     <g id="line2d_8">
      <g>
       <use xlink:href="#m140e46ad10" x="279.591608" y="288.36" style="stroke: #000000; stroke-width: 0.8"/>
      </g>
     </g>
     <g id="text_4">
      <!-- 8 -->
      <g transform="translate(276.410358 302.958438) scale(0.1 -0.1)">
       <defs>
        <path id="DejaVuSans-38" d="M 2034 2216 
Q 1584 2216 1326 1975 
Q 1069 1734 1069 1313 
Q 1069 891 1326 650 
Q 1584 409 2034 409 
Q 2484 409 2743 651 
Q 3003 894 3003 1313 
Q 3003 1734 2745 1975 
Q 2488 2216 2034 2216 
z
M 1403 2484 
Q 997 2584 770 2862 
Q 544 3141 544 3541 
Q 544 4100 942 4425 
Q 1341 4750 2034 4750 
Q 2731 4750 3128 4425 
Q 3525 4100 3525 3541 
Q 3525 3141 3298 2862 
Q 3072 2584 2669 2484 
Q 3125 2378 3379 2068 
Q 3634 1759 3634 1313 
Q 3634 634 3220 271 
Q 2806 -91 2034 -91 
Q 1263 -91 848 271 
Q 434 634 434 1313 
Q 434 1759 690 2068 
Q 947 2378 1403 2484 
z
M 1172 3481 
Q 1172 3119 1398 2916 
Q 1625 2713 2034 2713 
Q 2441 2713 2670 2916 
Q 2900 3119 2900 3481 
Q 2900 3844 2670 4047 
Q 2441 4250 2034 4250 
Q 1625 4250 1398 4047 
Q 1172 3844 1172 3481 
z
" transform="scale(0.015625)"/>
       </defs>
       <use xlink:href="#DejaVuSans-38"/>
      </g>
     </g>
    </g>
    <g id="xtick_5">
     <g id="line2d_9">
      <path d="M 342.025175 288.36 
L 342.025175 38.88 
" clip-path="url(#p054922511d)" style="fill: none; stroke: #b0b0b0; stroke-width: 0.8; stroke-linecap: square"/>
     </g>
     <g id="line2d_10">
      <g>
       <use xlink:href="#m140e46ad10" x="342.025175" y="288.36" style="stroke: #000000; stroke-width: 0.8"/>
      </g>
     </g>
     <g id="text_5">
      <!-- 10 -->
      <g transform="translate(335.662675 302.958438) scale(0.1 -0.1)">
       <defs>
        <path id="DejaVuSans-31" d="M 794 531 
L 1825 531 
L 1825 4091 
L 703 3866 
L 703 4441 
L 1819 4666 
L 2450 4666 
L 2450 531 
L 3481 531 
L 3481 0 
L 794 0 
L 794 531 
z
" transform="scale(0.015625)"/>
        <path id="DejaVuSans-30" d="M 2034 4250 
Q 1547 4250 1301 3770 
Q 1056 3291 1056 2328 
Q 1056 1369 1301 889 
Q 1547 409 2034 409 
Q 2525 409 2770 889 
Q 3016 1369 3016 2328 
Q 3016 3291 2770 3770 
Q 2525 4250 2034 4250 
z
M 2034 4750 
Q 2819 4750 3233 4129 
Q 3647 3509 3647 2328 
Q 3647 1150 3233 529 
Q 2819 -91 2034 -91 
Q 1250 -91 836 529 
Q 422 1150 422 2328 
Q 422 3509 836 4129 
Q 1250 4750 2034 4750 
z
" transform="scale(0.015625)"/>
       </defs>
       <use xlink:href="#DejaVuSans-31"/>
       <use xlink:href="#DejaVuSans-30" x="63.623047"/>
      </g>
     </g>
    </g>
    <g id="xtick_6">
     <g id="line2d_11">
      <path d="M 404.458741 288.36 
L 404.458741 38.88 
" clip-path="url(#p054922511d)" style="fill: none; stroke: #b0b0b0; stroke-width: 0.8; stroke-linecap: square"/>
     </g>
     <g id="line2d_12">
      <g>
       <use xlink:href="#m140e46ad10" x="404.458741" y="288.36" style="stroke: #000000; stroke-width: 0.8"/>
      </g>
     </g>
     <g id="text_6">
      <!-- 12 -->
      <g transform="translate(398.096241 302.958438) scale(0.1 -0.1)">
       <use xlink:href="#DejaVuSans-31"/>
       <use xlink:href="#DejaVuSans-32" x="63.623047"/>
      </g>
     </g>
    </g>
    <g id="xtick_7">
     <g id="line2d_13">
      <path d="M 466.892308 288.36 
L 466.892308 38.88 
" clip-path="url(#p054922511d)" style="fill: none; stroke: #b0b0b0; stroke-width: 0.8; stroke-linecap: square"/>
     </g>
     <g id="line2d_14">
      <g>
       <use xlink:href="#m140e46ad10" x="466.892308" y="288.36" style="stroke: #000000; stroke-width: 0.8"/>
      </g>
     </g>
     <g id="text_7">
      <!-- 14 -->
      <g transform="translate(460.529808 302.958438) scale(0.1 -0.1)">
       <use xlink:href="#DejaVuSans-31"/>
       <use xlink:href="#DejaVuSans-34" x="63.623047"/>
      </g>
     </g>
    </g>
    <g id="text_8">
     <!-- Fiber core radius $a$ ($\mu$m) -->
     <g transform="translate(234.85 316.638125) scale(0.1 -0.1)">
      <defs>
       <path id="DejaVuSans-46" d="M 628 4666 
L 3309 4666 
L 3309 4134 
L 1259 4134 
L 1259 2759 
L 3109 2759 
L 3109 2228 
L 1259 2228 
L 1259 0 
L 628 0 
L 628 4666 
z
" transform="scale(0.015625)"/>
       <path id="DejaVuSans-69" d="M 603 3500 
L 1178 3500 
L 1178 0 
L 603 0 
L 603 3500 
z
M 603 4863 
L 1178 4863 
L 1178 4134 
L 603 4134 
L 603 4863 
z
" transform="scale(0.015625)"/>
       <path id="DejaVuSans-62" d="M 3116 1747 
Q 3116 2381 2855 2742 
Q 2594 3103 2138 3103 
Q 1681 3103 1420 2742 
Q 1159 2381 1159 1747 
Q 1159 1113 1420 752 
Q 1681 391 2138 391 
Q 2594 391 2855 752 
Q 3116 1113 3116 1747 
z
M 1159 2969 
Q 1341 3281 1617 3432 
Q 1894 3584 2278 3584 
Q 2916 3584 3314 3078 
Q 3713 2572 3713 1747 
Q 3713 922 3314 415 
Q 2916 -91 2278 -91 
Q 1894 -91 1617 61 
Q 1341 213 1159 525 
L 1159 0 
L 581 0 
L 581 4863 
L 1159 4863 
L 1159 2969 
z
" transform="scale(0.015625)"/>
       <path id="DejaVuSans-65" d="M 3597 1894 
L 3597 1613 
L 953 1613 
Q 991 1019 1311 708 
Q 1631 397 2203 397 
Q 2534 397 2845 478 
Q 3156 559 3463 722 
L 3463 178 
Q 3153 47 2828 -22 
Q 2503 -91 2169 -91 
Q 1331 -91 842 396 
Q 353 884 353 1716 
Q 353 2575 817 3079 
Q 1281 3584 2069 3584 
Q 2775 3584 3186 3129 
Q 3597 2675 3597 1894 
z
M 3022 2063 
Q 3016 2534 2758 2815 
Q 2500 3097 2075 3097 
Q 1594 3097 1305 2825 
Q 1016 2553 972 2059 
L 3022 2063 
z
" transform="scale(0.015625)"/>
       <path id="DejaVuSans-72" d="M 2631 2963 
Q 2534 3019 2420 3045 
Q 2306 3072 2169 3072 
Q 1681 3072 1420 2755 
Q 1159 2438 1159 1844 
L 1159 0 
L 581 0 
L 581 3500 
L 1159 3500 
L 1159 2956 
Q 1341 3275 1631 3429 
Q 1922 3584 2338 3584 
Q 2397 3584 2469 3576 
Q 2541 3569 2628 3553 
L 2631 2963 
z
" transform="scale(0.015625)"/>
       <path id="DejaVuSans-20" transform="scale(0.015625)"/>
       <path id="DejaVuSans-63" d="M 3122 3366 
L 3122 2828 
Q 2878 2963 2633 3030 
Q 2388 3097 2138 3097 
Q 1578 3097 1268 2742 
Q 959 2388 959 1747 
Q 959 1106 1268 751 
Q 1578 397 2138 397 
Q 2388 397 2633 464 
Q 2878 531 3122 666 
L 3122 134 
Q 2881 22 2623 -34 
Q 2366 -91 2075 -91 
Q 1284 -91 818 406 
Q 353 903 353 1747 
Q 353 2603 823 3093 
Q 1294 3584 2113 3584 
Q 2378 3584 2631 3529 
Q 2884 3475 3122 3366 
z
" transform="scale(0.015625)"/>
       <path id="DejaVuSans-6f" d="M 1959 3097 
Q 1497 3097 1228 2736 
Q 959 2375 959 1747 
Q 959 1119 1226 758 
Q 1494 397 1959 397 
Q 2419 397 2687 759 
Q 2956 1122 2956 1747 
Q 2956 2369 2687 2733 
Q 2419 3097 1959 3097 
z
M 1959 3584 
Q 2709 3584 3137 3096 
Q 3566 2609 3566 1747 
Q 3566 888 3137 398 
Q 2709 -91 1959 -91 
Q 1206 -91 779 398 
Q 353 888 353 1747 
Q 353 2609 779 3096 
Q 1206 3584 1959 3584 
z
" transform="scale(0.015625)"/>
       <path id="DejaVuSans-61" d="M 2194 1759 
Q 1497 1759 1228 1600 
Q 959 1441 959 1056 
Q 959 750 1161 570 
Q 1363 391 1709 391 
Q 2188 391 2477 730 
Q 2766 1069 2766 1631 
L 2766 1759 
L 2194 1759 
z
M 3341 1997 
L 3341 0 
L 2766 0 
L 2766 531 
Q 2569 213 2275 61 
Q 1981 -91 1556 -91 
Q 1019 -91 701 211 
Q 384 513 384 1019 
Q 384 1609 779 1909 
Q 1175 2209 1959 2209 
L 2766 2209 
L 2766 2266 
Q 2766 2663 2505 2880 
Q 2244 3097 1772 3097 
Q 1472 3097 1187 3025 
Q 903 2953 641 2809 
L 641 3341 
Q 956 3463 1253 3523 
Q 1550 3584 1831 3584 
Q 2591 3584 2966 3190 
Q 3341 2797 3341 1997 
z
" transform="scale(0.015625)"/>
       <path id="DejaVuSans-64" d="M 2906 2969 
L 2906 4863 
L 3481 4863 
L 3481 0 
L 2906 0 
L 2906 525 
Q 2725 213 2448 61 
Q 2172 -91 1784 -91 
Q 1150 -91 751 415 
Q 353 922 353 1747 
Q 353 2572 751 3078 
Q 1150 3584 1784 3584 
Q 2172 3584 2448 3432 
Q 2725 3281 2906 2969 
z
M 947 1747 
Q 947 1113 1208 752 
Q 1469 391 1925 391 
Q 2381 391 2643 752 
Q 2906 1113 2906 1747 
Q 2906 2381 2643 2742 
Q 2381 3103 1925 3103 
Q 1469 3103 1208 2742 
Q 947 2381 947 1747 
z
" transform="scale(0.015625)"/>
       <path id="DejaVuSans-75" d="M 544 1381 
L 544 3500 
L 1119 3500 
L 1119 1403 
Q 1119 906 1312 657 
Q 1506 409 1894 409 
Q 2359 409 2629 706 
Q 2900 1003 2900 1516 
L 2900 3500 
L 3475 3500 
L 3475 0 
L 2900 0 
L 2900 538 
Q 2691 219 2414 64 
Q 2138 -91 1772 -91 
Q 1169 -91 856 284 
Q 544 659 544 1381 
z
M 1991 3584 
L 1991 3584 
z
" transform="scale(0.015625)"/>
       <path id="DejaVuSans-73" d="M 2834 3397 
L 2834 2853 
Q 2591 2978 2328 3040 
Q 2066 3103 1784 3103 
Q 1356 3103 1142 2972 
Q 928 2841 928 2578 
Q 928 2378 1081 2264 
Q 1234 2150 1697 2047 
L 1894 2003 
Q 2506 1872 2764 1633 
Q 3022 1394 3022 966 
Q 3022 478 2636 193 
Q 2250 -91 1575 -91 
Q 1294 -91 989 -36 
Q 684 19 347 128 
L 347 722 
Q 666 556 975 473 
Q 1284 391 1588 391 
Q 1994 391 2212 530 
Q 2431 669 2431 922 
Q 2431 1156 2273 1281 
Q 2116 1406 1581 1522 
L 1381 1569 
Q 847 1681 609 1914 
Q 372 2147 372 2553 
Q 372 3047 722 3315 
Q 1072 3584 1716 3584 
Q 2034 3584 2315 3537 
Q 2597 3491 2834 3397 
z
" transform="scale(0.015625)"/>
       <path id="DejaVuSans-Oblique-61" d="M 3438 1997 
L 3047 0 
L 2472 0 
L 2578 531 
Q 2325 219 2001 64 
Q 1678 -91 1281 -91 
Q 834 -91 548 182 
Q 263 456 263 884 
Q 263 1497 752 1853 
Q 1241 2209 2100 2209 
L 2900 2209 
L 2931 2363 
Q 2938 2388 2941 2417 
Q 2944 2447 2944 2509 
Q 2944 2788 2717 2942 
Q 2491 3097 2081 3097 
Q 1800 3097 1504 3025 
Q 1209 2953 897 2809 
L 997 3341 
Q 1322 3463 1633 3523 
Q 1944 3584 2234 3584 
Q 2853 3584 3176 3315 
Q 3500 3047 3500 2534 
Q 3500 2431 3484 2292 
Q 3469 2153 3438 1997 
z
M 2816 1759 
L 2241 1759 
Q 1534 1759 1195 1570 
Q 856 1381 856 984 
Q 856 709 1029 553 
Q 1203 397 1509 397 
Q 1978 397 2328 733 
Q 2678 1069 2791 1631 
L 2816 1759 
z
" transform="scale(0.015625)"/>
       <path id="DejaVuSans-28" d="M 1984 4856 
Q 1566 4138 1362 3434 
Q 1159 2731 1159 2009 
Q 1159 1288 1364 580 
Q 1569 -128 1984 -844 
L 1484 -844 
Q 1016 -109 783 600 
Q 550 1309 550 2009 
Q 550 2706 781 3412 
Q 1013 4119 1484 4856 
L 1984 4856 
z
" transform="scale(0.015625)"/>
       <path id="DejaVuSans-Oblique-3bc" d="M -84 -1331 
L 856 3500 
L 1434 3500 
L 1009 1322 
Q 997 1256 987 1175 
Q 978 1094 978 1013 
Q 978 722 1161 565 
Q 1344 409 1684 409 
Q 2147 409 2431 671 
Q 2716 934 2816 1459 
L 3213 3500 
L 3788 3500 
L 3266 809 
Q 3253 750 3248 706 
Q 3244 663 3244 628 
Q 3244 531 3283 486 
Q 3322 441 3406 441 
Q 3438 441 3492 456 
Q 3547 472 3647 513 
L 3559 50 
Q 3422 -19 3297 -55 
Q 3172 -91 3053 -91 
Q 2847 -91 2730 40 
Q 2613 172 2613 403 
Q 2438 153 2195 31 
Q 1953 -91 1625 -91 
Q 1334 -91 1117 43 
Q 900 178 831 397 
L 494 -1331 
L -84 -1331 
z
" transform="scale(0.015625)"/>
       <path id="DejaVuSans-6d" d="M 3328 2828 
Q 3544 3216 3844 3400 
Q 4144 3584 4550 3584 
Q 5097 3584 5394 3201 
Q 5691 2819 5691 2113 
L 5691 0 
L 5113 0 
L 5113 2094 
Q 5113 2597 4934 2840 
Q 4756 3084 4391 3084 
Q 3944 3084 3684 2787 
Q 3425 2491 3425 1978 
L 3425 0 
L 2847 0 
L 2847 2094 
Q 2847 2600 2669 2842 
Q 2491 3084 2119 3084 
Q 1678 3084 1418 2786 
Q 1159 2488 1159 1978 
L 1159 0 
L 581 0 
L 581 3500 
L 1159 3500 
L 1159 2956 
Q 1356 3278 1631 3431 
Q 1906 3584 2284 3584 
Q 2666 3584 2933 3390 
Q 3200 3197 3328 2828 
z
" transform="scale(0.015625)"/>
       <path id="DejaVuSans-29" d="M 513 4856 
L 1013 4856 
Q 1481 4119 1714 3412 
Q 1947 2706 1947 2009 
Q 1947 1309 1714 600 
Q 1481 -109 1013 -844 
L 513 -844 
Q 928 -128 1133 580 
Q 1338 1288 1338 2009 
Q 1338 2731 1133 3434 
Q 928 4138 513 4856 
z
" transform="scale(0.015625)"/>
      </defs>
      <use xlink:href="#DejaVuSans-46" transform="translate(0 0.015625)"/>
      <use xlink:href="#DejaVuSans-69" transform="translate(57.519531 0.015625)"/>
      <use xlink:href="#DejaVuSans-62" transform="translate(85.302734 0.015625)"/>
      <use xlink:href="#DejaVuSans-65" transform="translate(148.779297 0.015625)"/>
      <use xlink:href="#DejaVuSans-72" transform="translate(210.302734 0.015625)"/>
      <use xlink:href="#DejaVuSans-20" transform="translate(251.416016 0.015625)"/>
      <use xlink:href="#DejaVuSans-63" transform="translate(283.203125 0.015625)"/>
      <use xlink:href="#DejaVuSans-6f" transform="translate(338.183594 0.015625)"/>
      <use xlink:href="#DejaVuSans-72" transform="translate(399.365234 0.015625)"/>
      <use xlink:href="#DejaVuSans-65" transform="translate(440.478516 0.015625)"/>
      <use xlink:href="#DejaVuSans-20" transform="translate(502.001953 0.015625)"/>
      <use xlink:href="#DejaVuSans-72" transform="translate(533.789062 0.015625)"/>
      <use xlink:href="#DejaVuSans-61" transform="translate(574.902344 0.015625)"/>
      <use xlink:href="#DejaVuSans-64" transform="translate(636.181641 0.015625)"/>
      <use xlink:href="#DejaVuSans-69" transform="translate(699.658203 0.015625)"/>
      <use xlink:href="#DejaVuSans-75" transform="translate(727.441406 0.015625)"/>
      <use xlink:href="#DejaVuSans-73" transform="translate(790.820312 0.015625)"/>
      <use xlink:href="#DejaVuSans-20" transform="translate(842.919922 0.015625)"/>
      <use xlink:href="#DejaVuSans-Oblique-61" transform="translate(874.707031 0.015625)"/>
      <use xlink:href="#DejaVuSans-20" transform="translate(935.986328 0.015625)"/>
      <use xlink:href="#DejaVuSans-28" transform="translate(967.773438 0.015625)"/>
      <use xlink:href="#DejaVuSans-Oblique-3bc" transform="translate(1006.787109 0.015625)"/>
      <use xlink:href="#DejaVuSans-6d" transform="translate(1070.410156 0.015625)"/>
      <use xlink:href="#DejaVuSans-29" transform="translate(1167.822266 0.015625)"/>
     </g>
    </g>
   </g>
   <g id="matplotlib.axis_2">
    <g id="ytick_1">
     <g id="line2d_15">
      <path d="M 72 273.52324 
L 518.4 273.52324 
" clip-path="url(#p054922511d)" style="fill: none; stroke: #b0b0b0; stroke-width: 0.8; stroke-linecap: square"/>
     </g>
     <g id="line2d_16">
      <defs>
       <path id="mbbff4a2eab" d="M 0 0 
L -3.5 0 
" style="stroke: #000000; stroke-width: 0.8"/>
      </defs>
      <g>
       <use xlink:href="#mbbff4a2eab" x="72" y="273.52324" style="stroke: #000000; stroke-width: 0.8"/>
      </g>
     </g>
     <g id="text_9">
      <!-- 2 -->
      <g transform="translate(58.6375 277.322459) scale(0.1 -0.1)">
       <use xlink:href="#DejaVuSans-32"/>
      </g>
     </g>
    </g>
    <g id="ytick_2">
     <g id="line2d_17">
      <path d="M 72 232.962453 
L 518.4 232.962453 
" clip-path="url(#p054922511d)" style="fill: none; stroke: #b0b0b0; stroke-width: 0.8; stroke-linecap: square"/>
     </g>
     <g id="line2d_18">
      <g>
       <use xlink:href="#mbbff4a2eab" x="72" y="232.962453" style="stroke: #000000; stroke-width: 0.8"/>
      </g>
     </g>
     <g id="text_10">
      <!-- 4 -->
      <g transform="translate(58.6375 236.761672) scale(0.1 -0.1)">
       <use xlink:href="#DejaVuSans-34"/>
      </g>
     </g>
    </g>
    <g id="ytick_3">
     <g id="line2d_19">
      <path d="M 72 192.401665 
L 518.4 192.401665 
" clip-path="url(#p054922511d)" style="fill: none; stroke: #b0b0b0; stroke-width: 0.8; stroke-linecap: square"/>
     </g>
     <g id="line2d_20">
      <g>
       <use xlink:href="#mbbff4a2eab" x="72" y="192.401665" style="stroke: #000000; stroke-width: 0.8"/>
      </g>
     </g>
     <g id="text_11">
      <!-- 6 -->
      <g transform="translate(58.6375 196.200884) scale(0.1 -0.1)">
       <use xlink:href="#DejaVuSans-36"/>
      </g>
     </g>
    </g>
    <g id="ytick_4">
     <g id="line2d_21">
      <path d="M 72 151.840878 
L 518.4 151.840878 
" clip-path="url(#p054922511d)" style="fill: none; stroke: #b0b0b0; stroke-width: 0.8; stroke-linecap: square"/>
     </g>
     <g id="line2d_22">
      <g>
       <use xlink:href="#mbbff4a2eab" x="72" y="151.840878" style="stroke: #000000; stroke-width: 0.8"/>
      </g>
     </g>
     <g id="text_12">
      <!-- 8 -->
      <g transform="translate(58.6375 155.640097) scale(0.1 -0.1)">
       <use xlink:href="#DejaVuSans-38"/>
      </g>
     </g>
    </g>
    <g id="ytick_5">
     <g id="line2d_23">
      <path d="M 72 111.280091 
L 518.4 111.280091 
" clip-path="url(#p054922511d)" style="fill: none; stroke: #b0b0b0; stroke-width: 0.8; stroke-linecap: square"/>
     </g>
     <g id="line2d_24">
      <g>
       <use xlink:href="#mbbff4a2eab" x="72" y="111.280091" style="stroke: #000000; stroke-width: 0.8"/>
      </g>
     </g>
     <g id="text_13">
      <!-- 10 -->
      <g transform="translate(52.275 115.07931) scale(0.1 -0.1)">
       <use xlink:href="#DejaVuSans-31"/>
       <use xlink:href="#DejaVuSans-30" x="63.623047"/>
      </g>
     </g>
    </g>
    <g id="ytick_6">
     <g id="line2d_25">
      <path d="M 72 70.719303 
L 518.4 70.719303 
" clip-path="url(#p054922511d)" style="fill: none; stroke: #b0b0b0; stroke-width: 0.8; stroke-linecap: square"/>
     </g>
     <g id="line2d_26">
      <g>
       <use xlink:href="#mbbff4a2eab" x="72" y="70.719303" style="stroke: #000000; stroke-width: 0.8"/>
      </g>
     </g>
     <g id="text_14">
      <!-- 12 -->
      <g transform="translate(52.275 74.518522) scale(0.1 -0.1)">
       <use xlink:href="#DejaVuSans-31"/>
       <use xlink:href="#DejaVuSans-32" x="63.623047"/>
      </g>
     </g>
    </g>
    <g id="text_15">
     <!-- Fundamental mode emission angle $\theta_{01}$ ($^{\circ}$) -->
     <g transform="translate(46.175 268.72) rotate(-90) scale(0.1 -0.1)">
      <defs>
       <path id="DejaVuSans-6e" d="M 3513 2113 
L 3513 0 
L 2938 0 
L 2938 2094 
Q 2938 2591 2744 2837 
Q 2550 3084 2163 3084 
Q 1697 3084 1428 2787 
Q 1159 2491 1159 1978 
L 1159 0 
L 581 0 
L 581 3500 
L 1159 3500 
L 1159 2956 
Q 1366 3272 1645 3428 
Q 1925 3584 2291 3584 
Q 2894 3584 3203 3211 
Q 3513 2838 3513 2113 
z
" transform="scale(0.015625)"/>
       <path id="DejaVuSans-74" d="M 1172 4494 
L 1172 3500 
L 2356 3500 
L 2356 3053 
L 1172 3053 
L 1172 1153 
Q 1172 725 1289 603 
Q 1406 481 1766 481 
L 2356 481 
L 2356 0 
L 1766 0 
Q 1100 0 847 248 
Q 594 497 594 1153 
L 594 3053 
L 172 3053 
L 172 3500 
L 594 3500 
L 594 4494 
L 1172 4494 
z
" transform="scale(0.015625)"/>
       <path id="DejaVuSans-6c" d="M 603 4863 
L 1178 4863 
L 1178 0 
L 603 0 
L 603 4863 
z
" transform="scale(0.015625)"/>
       <path id="DejaVuSans-67" d="M 2906 1791 
Q 2906 2416 2648 2759 
Q 2391 3103 1925 3103 
Q 1463 3103 1205 2759 
Q 947 2416 947 1791 
Q 947 1169 1205 825 
Q 1463 481 1925 481 
Q 2391 481 2648 825 
Q 2906 1169 2906 1791 
z
M 3481 434 
Q 3481 -459 3084 -895 
Q 2688 -1331 1869 -1331 
Q 1566 -1331 1297 -1286 
Q 1028 -1241 775 -1147 
L 775 -588 
Q 1028 -725 1275 -790 
Q 1522 -856 1778 -856 
Q 2344 -856 2625 -561 
Q 2906 -266 2906 331 
L 2906 616 
Q 2728 306 2450 153 
Q 2172 0 1784 0 
Q 1141 0 747 490 
Q 353 981 353 1791 
Q 353 2603 747 3093 
Q 1141 3584 1784 3584 
Q 2172 3584 2450 3431 
Q 2728 3278 2906 2969 
L 2906 3500 
L 3481 3500 
L 3481 434 
z
" transform="scale(0.015625)"/>
       <path id="DejaVuSans-Oblique-3b8" d="M 2913 2219 
L 925 2219 
Q 791 1284 928 888 
Q 1100 400 1566 400 
Q 2034 400 2391 891 
Q 2703 1322 2913 2219 
z
M 3009 2750 
Q 3094 3638 2984 3950 
Q 2813 4444 2353 4444 
Q 1875 4444 1525 3956 
Q 1250 3563 1034 2750 
L 3009 2750 
z
M 2444 4913 
Q 3194 4913 3494 4250 
Q 3794 3591 3566 2422 
Q 3341 1256 2781 594 
Q 2225 -72 1475 -72 
Q 722 -72 425 594 
Q 128 1256 353 2422 
Q 581 3591 1134 4250 
Q 1691 4913 2444 4913 
z
" transform="scale(0.015625)"/>
       <path id="DejaVuSans-2218" d="M 2003 2603 
Q 1753 2603 1581 2429 
Q 1409 2256 1409 2006 
Q 1409 1759 1581 1589 
Q 1753 1419 2003 1419 
Q 2253 1419 2425 1589 
Q 2597 1759 2597 2006 
Q 2597 2253 2423 2428 
Q 2250 2603 2003 2603 
z
M 2003 3006 
Q 2203 3006 2387 2929 
Q 2572 2853 2706 2709 
Q 2850 2569 2922 2390 
Q 2994 2212 2994 2006 
Q 2994 1594 2705 1308 
Q 2416 1022 1997 1022 
Q 1575 1022 1294 1303 
Q 1013 1584 1013 2006 
Q 1013 2425 1300 2715 
Q 1588 3006 2003 3006 
z
" transform="scale(0.015625)"/>
      </defs>
      <use xlink:href="#DejaVuSans-46" transform="translate(0 0.234375)"/>
      <use xlink:href="#DejaVuSans-75" transform="translate(57.519531 0.234375)"/>
      <use xlink:href="#DejaVuSans-6e" transform="translate(120.898438 0.234375)"/>
      <use xlink:href="#DejaVuSans-64" transform="translate(184.277344 0.234375)"/>
      <use xlink:href="#DejaVuSans-61" transform="translate(247.753906 0.234375)"/>
      <use xlink:href="#DejaVuSans-6d" transform="translate(309.033203 0.234375)"/>
      <use xlink:href="#DejaVuSans-65" transform="translate(406.445312 0.234375)"/>
      <use xlink:href="#DejaVuSans-6e" transform="translate(467.96875 0.234375)"/>
      <use xlink:href="#DejaVuSans-74" transform="translate(531.347656 0.234375)"/>
      <use xlink:href="#DejaVuSans-61" transform="translate(570.556641 0.234375)"/>
      <use xlink:href="#DejaVuSans-6c" transform="translate(631.835938 0.234375)"/>
      <use xlink:href="#DejaVuSans-20" transform="translate(659.619141 0.234375)"/>
      <use xlink:href="#DejaVuSans-6d" transform="translate(691.40625 0.234375)"/>
      <use xlink:href="#DejaVuSans-6f" transform="translate(788.818359 0.234375)"/>
      <use xlink:href="#DejaVuSans-64" transform="translate(850 0.234375)"/>
      <use xlink:href="#DejaVuSans-65" transform="translate(913.476562 0.234375)"/>
      <use xlink:href="#DejaVuSans-20" transform="translate(975 0.234375)"/>
      <use xlink:href="#DejaVuSans-65" transform="translate(1006.787109 0.234375)"/>
      <use xlink:href="#DejaVuSans-6d" transform="translate(1068.310547 0.234375)"/>
      <use xlink:href="#DejaVuSans-69" transform="translate(1165.722656 0.234375)"/>
      <use xlink:href="#DejaVuSans-73" transform="translate(1193.505859 0.234375)"/>
      <use xlink:href="#DejaVuSans-73" transform="translate(1245.605469 0.234375)"/>
      <use xlink:href="#DejaVuSans-69" transform="translate(1297.705078 0.234375)"/>
      <use xlink:href="#DejaVuSans-6f" transform="translate(1325.488281 0.234375)"/>
      <use xlink:href="#DejaVuSans-6e" transform="translate(1386.669922 0.234375)"/>
      <use xlink:href="#DejaVuSans-20" transform="translate(1450.048828 0.234375)"/>
      <use xlink:href="#DejaVuSans-61" transform="translate(1481.835938 0.234375)"/>
      <use xlink:href="#DejaVuSans-6e" transform="translate(1543.115234 0.234375)"/>
      <use xlink:href="#DejaVuSans-67" transform="translate(1606.494141 0.234375)"/>
      <use xlink:href="#DejaVuSans-6c" transform="translate(1669.970703 0.234375)"/>
      <use xlink:href="#DejaVuSans-65" transform="translate(1697.753906 0.234375)"/>
      <use xlink:href="#DejaVuSans-20" transform="translate(1759.277344 0.234375)"/>
      <use xlink:href="#DejaVuSans-Oblique-3b8" transform="translate(1791.064453 0.234375)"/>
      <use xlink:href="#DejaVuSans-30" transform="translate(1852.246094 -16.171875) scale(0.7)"/>
      <use xlink:href="#DejaVuSans-31" transform="translate(1896.782227 -16.171875) scale(0.7)"/>
      <use xlink:href="#DejaVuSans-20" transform="translate(1944.052734 0.234375)"/>
      <use xlink:href="#DejaVuSans-28" transform="translate(1975.839844 0.234375)"/>
      <use xlink:href="#DejaVuSans-2218" transform="translate(2015.810547 38.515625) scale(0.7)"/>
      <use xlink:href="#DejaVuSans-29" transform="translate(2062.363281 0.234375)"/>
     </g>
    </g>
   </g>
   <g id="line2d_27">
    <defs>
     <path id="mbb237c3b89" d="M 0 0.5 
C 0.132602 0.5 0.25979 0.447317 0.353553 0.353553 
C 0.447317 0.25979 0.5 0.132602 0.5 0 
C 0.5 -0.132602 0.447317 -0.25979 0.353553 -0.353553 
C 0.25979 -0.447317 0.132602 -0.5 0 -0.5 
C -0.132602 -0.5 -0.25979 -0.447317 -0.353553 -0.353553 
C -0.447317 -0.25979 -0.5 -0.132602 -0.5 0 
C -0.5 0.132602 -0.447317 0.25979 -0.353553 0.353553 
C -0.25979 0.447317 -0.132602 0.5 0 0.5 
z
" style="stroke: #0000ff"/>
    </defs>
    <g clip-path="url(#p054922511d)">
     <use xlink:href="#mbb237c3b89" x="92.290909" y="50.43891" style="fill: #0000ff; stroke: #0000ff"/>
     <use xlink:href="#mbb237c3b89" x="95.412587" y="62.607146" style="fill: #0000ff; stroke: #0000ff"/>
     <use xlink:href="#mbb237c3b89" x="98.534266" y="72.747343" style="fill: #0000ff; stroke: #0000ff"/>
     <use xlink:href="#mbb237c3b89" x="101.655944" y="82.88754" style="fill: #0000ff; stroke: #0000ff"/>
     <use xlink:href="#mbb237c3b89" x="104.777622" y="92.013717" style="fill: #0000ff; stroke: #0000ff"/>
     <use xlink:href="#mbb237c3b89" x="107.899301" y="101.139894" style="fill: #0000ff; stroke: #0000ff"/>
     <use xlink:href="#mbb237c3b89" x="111.020979" y="108.238032" style="fill: #0000ff; stroke: #0000ff"/>
     <use xlink:href="#mbb237c3b89" x="114.142657" y="116.350189" style="fill: #0000ff; stroke: #0000ff"/>
     <use xlink:href="#mbb237c3b89" x="117.264336" y="122.434307" style="fill: #0000ff; stroke: #0000ff"/>
     <use xlink:href="#mbb237c3b89" x="120.386014" y="129.532445" style="fill: #0000ff; stroke: #0000ff"/>
     <use xlink:href="#mbb237c3b89" x="123.507692" y="134.602543" style="fill: #0000ff; stroke: #0000ff"/>
     <use xlink:href="#mbb237c3b89" x="126.629371" y="140.686662" style="fill: #0000ff; stroke: #0000ff"/>
     <use xlink:href="#mbb237c3b89" x="129.751049" y="145.75676" style="fill: #0000ff; stroke: #0000ff"/>
     <use xlink:href="#mbb237c3b89" x="132.872727" y="150.826858" style="fill: #0000ff; stroke: #0000ff"/>
     <use xlink:href="#mbb237c3b89" x="135.994406" y="155.896957" style="fill: #0000ff; stroke: #0000ff"/>
     <use xlink:href="#mbb237c3b89" x="139.116084" y="159.953036" style="fill: #0000ff; stroke: #0000ff"/>
     <use xlink:href="#mbb237c3b89" x="142.237762" y="164.009114" style="fill: #0000ff; stroke: #0000ff"/>
     <use xlink:href="#mbb237c3b89" x="145.359441" y="168.065193" style="fill: #0000ff; stroke: #0000ff"/>
     <use xlink:href="#mbb237c3b89" x="148.481119" y="171.107252" style="fill: #0000ff; stroke: #0000ff"/>
     <use xlink:href="#mbb237c3b89" x="151.602797" y="175.163331" style="fill: #0000ff; stroke: #0000ff"/>
     <use xlink:href="#mbb237c3b89" x="154.724476" y="178.20539" style="fill: #0000ff; stroke: #0000ff"/>
     <use xlink:href="#mbb237c3b89" x="157.846154" y="181.247449" style="fill: #0000ff; stroke: #0000ff"/>
     <use xlink:href="#mbb237c3b89" x="160.967832" y="184.289508" style="fill: #0000ff; stroke: #0000ff"/>
     <use xlink:href="#mbb237c3b89" x="164.08951" y="187.331567" style="fill: #0000ff; stroke: #0000ff"/>
     <use xlink:href="#mbb237c3b89" x="167.211189" y="190.373626" style="fill: #0000ff; stroke: #0000ff"/>
     <use xlink:href="#mbb237c3b89" x="170.332867" y="193.415685" style="fill: #0000ff; stroke: #0000ff"/>
     <use xlink:href="#mbb237c3b89" x="173.454545" y="195.443724" style="fill: #0000ff; stroke: #0000ff"/>
     <use xlink:href="#mbb237c3b89" x="176.576224" y="198.485784" style="fill: #0000ff; stroke: #0000ff"/>
     <use xlink:href="#mbb237c3b89" x="179.697902" y="200.513823" style="fill: #0000ff; stroke: #0000ff"/>
     <use xlink:href="#mbb237c3b89" x="182.81958" y="202.541862" style="fill: #0000ff; stroke: #0000ff"/>
     <use xlink:href="#mbb237c3b89" x="185.941259" y="204.569902" style="fill: #0000ff; stroke: #0000ff"/>
     <use xlink:href="#mbb237c3b89" x="189.062937" y="206.597941" style="fill: #0000ff; stroke: #0000ff"/>
     <use xlink:href="#mbb237c3b89" x="192.184615" y="208.62598" style="fill: #0000ff; stroke: #0000ff"/>
     <use xlink:href="#mbb237c3b89" x="195.306294" y="210.65402" style="fill: #0000ff; stroke: #0000ff"/>
     <use xlink:href="#mbb237c3b89" x="198.427972" y="212.682059" style="fill: #0000ff; stroke: #0000ff"/>
     <use xlink:href="#mbb237c3b89" x="201.54965" y="214.710098" style="fill: #0000ff; stroke: #0000ff"/>
     <use xlink:href="#mbb237c3b89" x="204.671329" y="216.738138" style="fill: #0000ff; stroke: #0000ff"/>
     <use xlink:href="#mbb237c3b89" x="207.793007" y="217.752158" style="fill: #0000ff; stroke: #0000ff"/>
     <use xlink:href="#mbb237c3b89" x="210.914685" y="219.780197" style="fill: #0000ff; stroke: #0000ff"/>
     <use xlink:href="#mbb237c3b89" x="214.036364" y="220.794217" style="fill: #0000ff; stroke: #0000ff"/>
     <use xlink:href="#mbb237c3b89" x="217.158042" y="222.822256" style="fill: #0000ff; stroke: #0000ff"/>
     <use xlink:href="#mbb237c3b89" x="220.27972" y="223.836276" style="fill: #0000ff; stroke: #0000ff"/>
     <use xlink:href="#mbb237c3b89" x="223.401399" y="225.864315" style="fill: #0000ff; stroke: #0000ff"/>
     <use xlink:href="#mbb237c3b89" x="226.523077" y="226.878335" style="fill: #0000ff; stroke: #0000ff"/>
     <use xlink:href="#mbb237c3b89" x="229.644755" y="227.892354" style="fill: #0000ff; stroke: #0000ff"/>
     <use xlink:href="#mbb237c3b89" x="232.766434" y="229.920394" style="fill: #0000ff; stroke: #0000ff"/>
     <use xlink:href="#mbb237c3b89" x="235.888112" y="230.934413" style="fill: #0000ff; stroke: #0000ff"/>
     <use xlink:href="#mbb237c3b89" x="239.00979" y="231.948433" style="fill: #0000ff; stroke: #0000ff"/>
     <use xlink:href="#mbb237c3b89" x="242.131469" y="232.962453" style="fill: #0000ff; stroke: #0000ff"/>
     <use xlink:href="#mbb237c3b89" x="245.253147" y="233.976472" style="fill: #0000ff; stroke: #0000ff"/>
     <use xlink:href="#mbb237c3b89" x="248.374825" y="234.990492" style="fill: #0000ff; stroke: #0000ff"/>
     <use xlink:href="#mbb237c3b89" x="251.496503" y="237.018532" style="fill: #0000ff; stroke: #0000ff"/>
     <use xlink:href="#mbb237c3b89" x="254.618182" y="238.032551" style="fill: #0000ff; stroke: #0000ff"/>
     <use xlink:href="#mbb237c3b89" x="257.73986" y="239.046571" style="fill: #0000ff; stroke: #0000ff"/>
     <use xlink:href="#mbb237c3b89" x="260.861538" y="240.060591" style="fill: #0000ff; stroke: #0000ff"/>
     <use xlink:href="#mbb237c3b89" x="263.983217" y="241.07461" style="fill: #0000ff; stroke: #0000ff"/>
     <use xlink:href="#mbb237c3b89" x="267.104895" y="242.08863" style="fill: #0000ff; stroke: #0000ff"/>
     <use xlink:href="#mbb237c3b89" x="270.226573" y="242.08863" style="fill: #0000ff; stroke: #0000ff"/>
     <use xlink:href="#mbb237c3b89" x="273.348252" y="243.10265" style="fill: #0000ff; stroke: #0000ff"/>
     <use xlink:href="#mbb237c3b89" x="276.46993" y="244.116669" style="fill: #0000ff; stroke: #0000ff"/>
     <use xlink:href="#mbb237c3b89" x="279.591608" y="245.130689" style="fill: #0000ff; stroke: #0000ff"/>
     <use xlink:href="#mbb237c3b89" x="282.713287" y="246.144709" style="fill: #0000ff; stroke: #0000ff"/>
     <use xlink:href="#mbb237c3b89" x="285.834965" y="247.158728" style="fill: #0000ff; stroke: #0000ff"/>
     <use xlink:href="#mbb237c3b89" x="288.956643" y="247.158728" style="fill: #0000ff; stroke: #0000ff"/>
     <use xlink:href="#mbb237c3b89" x="292.078322" y="248.172748" style="fill: #0000ff; stroke: #0000ff"/>
     <use xlink:href="#mbb237c3b89" x="295.2" y="249.186768" style="fill: #0000ff; stroke: #0000ff"/>
     <use xlink:href="#mbb237c3b89" x="298.321678" y="250.200787" style="fill: #0000ff; stroke: #0000ff"/>
     <use xlink:href="#mbb237c3b89" x="301.443357" y="250.200787" style="fill: #0000ff; stroke: #0000ff"/>
     <use xlink:href="#mbb237c3b89" x="304.565035" y="251.214807" style="fill: #0000ff; stroke: #0000ff"/>
     <use xlink:href="#mbb237c3b89" x="307.686713" y="252.228827" style="fill: #0000ff; stroke: #0000ff"/>
     <use xlink:href="#mbb237c3b89" x="310.808392" y="252.228827" style="fill: #0000ff; stroke: #0000ff"/>
     <use xlink:href="#mbb237c3b89" x="313.93007" y="253.242846" style="fill: #0000ff; stroke: #0000ff"/>
     <use xlink:href="#mbb237c3b89" x="317.051748" y="254.256866" style="fill: #0000ff; stroke: #0000ff"/>
     <use xlink:href="#mbb237c3b89" x="320.173427" y="254.256866" style="fill: #0000ff; stroke: #0000ff"/>
     <use xlink:href="#mbb237c3b89" x="323.295105" y="255.270886" style="fill: #0000ff; stroke: #0000ff"/>
     <use xlink:href="#mbb237c3b89" x="326.416783" y="256.284906" style="fill: #0000ff; stroke: #0000ff"/>
     <use xlink:href="#mbb237c3b89" x="329.538462" y="256.284906" style="fill: #0000ff; stroke: #0000ff"/>
     <use xlink:href="#mbb237c3b89" x="332.66014" y="257.298925" style="fill: #0000ff; stroke: #0000ff"/>
     <use xlink:href="#mbb237c3b89" x="335.781818" y="257.298925" style="fill: #0000ff; stroke: #0000ff"/>
     <use xlink:href="#mbb237c3b89" x="338.903497" y="258.312945" style="fill: #0000ff; stroke: #0000ff"/>
     <use xlink:href="#mbb237c3b89" x="342.025175" y="258.312945" style="fill: #0000ff; stroke: #0000ff"/>
     <use xlink:href="#mbb237c3b89" x="345.146853" y="259.326965" style="fill: #0000ff; stroke: #0000ff"/>
     <use xlink:href="#mbb237c3b89" x="348.268531" y="259.326965" style="fill: #0000ff; stroke: #0000ff"/>
     <use xlink:href="#mbb237c3b89" x="351.39021" y="260.340984" style="fill: #0000ff; stroke: #0000ff"/>
     <use xlink:href="#mbb237c3b89" x="354.511888" y="260.340984" style="fill: #0000ff; stroke: #0000ff"/>
     <use xlink:href="#mbb237c3b89" x="357.633566" y="261.355004" style="fill: #0000ff; stroke: #0000ff"/>
     <use xlink:href="#mbb237c3b89" x="360.755245" y="261.355004" style="fill: #0000ff; stroke: #0000ff"/>
     <use xlink:href="#mbb237c3b89" x="363.876923" y="262.369024" style="fill: #0000ff; stroke: #0000ff"/>
     <use xlink:href="#mbb237c3b89" x="366.998601" y="262.369024" style="fill: #0000ff; stroke: #0000ff"/>
     <use xlink:href="#mbb237c3b89" x="370.12028" y="263.383043" style="fill: #0000ff; stroke: #0000ff"/>
     <use xlink:href="#mbb237c3b89" x="373.241958" y="263.383043" style="fill: #0000ff; stroke: #0000ff"/>
     <use xlink:href="#mbb237c3b89" x="376.363636" y="264.397063" style="fill: #0000ff; stroke: #0000ff"/>
     <use xlink:href="#mbb237c3b89" x="379.485315" y="264.397063" style="fill: #0000ff; stroke: #0000ff"/>
     <use xlink:href="#mbb237c3b89" x="382.606993" y="265.411083" style="fill: #0000ff; stroke: #0000ff"/>
     <use xlink:href="#mbb237c3b89" x="385.728671" y="265.411083" style="fill: #0000ff; stroke: #0000ff"/>
     <use xlink:href="#mbb237c3b89" x="388.85035" y="265.411083" style="fill: #0000ff; stroke: #0000ff"/>
     <use xlink:href="#mbb237c3b89" x="391.972028" y="266.425102" style="fill: #0000ff; stroke: #0000ff"/>
     <use xlink:href="#mbb237c3b89" x="395.093706" y="266.425102" style="fill: #0000ff; stroke: #0000ff"/>
     <use xlink:href="#mbb237c3b89" x="398.215385" y="267.439122" style="fill: #0000ff; stroke: #0000ff"/>
     <use xlink:href="#mbb237c3b89" x="401.337063" y="267.439122" style="fill: #0000ff; stroke: #0000ff"/>
     <use xlink:href="#mbb237c3b89" x="404.458741" y="267.439122" style="fill: #0000ff; stroke: #0000ff"/>
     <use xlink:href="#mbb237c3b89" x="407.58042" y="268.453142" style="fill: #0000ff; stroke: #0000ff"/>
     <use xlink:href="#mbb237c3b89" x="410.702098" y="268.453142" style="fill: #0000ff; stroke: #0000ff"/>
     <use xlink:href="#mbb237c3b89" x="413.823776" y="269.467161" style="fill: #0000ff; stroke: #0000ff"/>
     <use xlink:href="#mbb237c3b89" x="416.945455" y="269.467161" style="fill: #0000ff; stroke: #0000ff"/>
     <use xlink:href="#mbb237c3b89" x="420.067133" y="269.467161" style="fill: #0000ff; stroke: #0000ff"/>
     <use xlink:href="#mbb237c3b89" x="423.188811" y="270.481181" style="fill: #0000ff; stroke: #0000ff"/>
     <use xlink:href="#mbb237c3b89" x="426.31049" y="270.481181" style="fill: #0000ff; stroke: #0000ff"/>
     <use xlink:href="#mbb237c3b89" x="429.432168" y="270.481181" style="fill: #0000ff; stroke: #0000ff"/>
     <use xlink:href="#mbb237c3b89" x="432.553846" y="271.495201" style="fill: #0000ff; stroke: #0000ff"/>
     <use xlink:href="#mbb237c3b89" x="435.675524" y="271.495201" style="fill: #0000ff; stroke: #0000ff"/>
     <use xlink:href="#mbb237c3b89" x="438.797203" y="271.495201" style="fill: #0000ff; stroke: #0000ff"/>
     <use xlink:href="#mbb237c3b89" x="441.918881" y="272.50922" style="fill: #0000ff; stroke: #0000ff"/>
     <use xlink:href="#mbb237c3b89" x="445.040559" y="272.50922" style="fill: #0000ff; stroke: #0000ff"/>
     <use xlink:href="#mbb237c3b89" x="448.162238" y="272.50922" style="fill: #0000ff; stroke: #0000ff"/>
     <use xlink:href="#mbb237c3b89" x="451.283916" y="272.50922" style="fill: #0000ff; stroke: #0000ff"/>
     <use xlink:href="#mbb237c3b89" x="454.405594" y="273.52324" style="fill: #0000ff; stroke: #0000ff"/>
     <use xlink:href="#mbb237c3b89" x="457.527273" y="273.52324" style="fill: #0000ff; stroke: #0000ff"/>
     <use xlink:href="#mbb237c3b89" x="460.648951" y="273.52324" style="fill: #0000ff; stroke: #0000ff"/>
     <use xlink:href="#mbb237c3b89" x="463.770629" y="274.53726" style="fill: #0000ff; stroke: #0000ff"/>
     <use xlink:href="#mbb237c3b89" x="466.892308" y="274.53726" style="fill: #0000ff; stroke: #0000ff"/>
     <use xlink:href="#mbb237c3b89" x="470.013986" y="274.53726" style="fill: #0000ff; stroke: #0000ff"/>
     <use xlink:href="#mbb237c3b89" x="473.135664" y="274.53726" style="fill: #0000ff; stroke: #0000ff"/>
     <use xlink:href="#mbb237c3b89" x="476.257343" y="275.551279" style="fill: #0000ff; stroke: #0000ff"/>
     <use xlink:href="#mbb237c3b89" x="479.379021" y="275.551279" style="fill: #0000ff; stroke: #0000ff"/>
     <use xlink:href="#mbb237c3b89" x="482.500699" y="275.551279" style="fill: #0000ff; stroke: #0000ff"/>
     <use xlink:href="#mbb237c3b89" x="485.622378" y="275.551279" style="fill: #0000ff; stroke: #0000ff"/>
     <use xlink:href="#mbb237c3b89" x="488.744056" y="276.565299" style="fill: #0000ff; stroke: #0000ff"/>
     <use xlink:href="#mbb237c3b89" x="491.865734" y="276.565299" style="fill: #0000ff; stroke: #0000ff"/>
     <use xlink:href="#mbb237c3b89" x="494.987413" y="276.565299" style="fill: #0000ff; stroke: #0000ff"/>
     <use xlink:href="#mbb237c3b89" x="498.109091" y="276.565299" style="fill: #0000ff; stroke: #0000ff"/>
    </g>
   </g>
   <g id="line2d_28">
    <path d="M 92.290909 50.22 
L 95.412587 62.20634 
L 98.534266 73.138187 
L 101.655944 83.150423 
L 104.777622 92.355625 
L 107.899301 100.848529 
L 111.020979 108.709468 
L 114.142657 116.007028 
L 117.264336 122.80014 
L 120.386014 129.139731 
L 123.507692 135.070048 
L 126.629371 140.629728 
L 129.751049 145.852663 
L 132.872727 150.768711 
L 135.994406 155.404284 
L 139.116084 159.782832 
L 142.237762 163.925248 
L 145.359441 167.850214 
L 148.481119 171.574479 
L 151.602797 175.113112 
L 157.846154 181.68654 
L 164.08951 187.664517 
L 170.332867 193.124661 
L 176.576224 198.131627 
L 182.81958 202.73971 
L 189.062937 206.994848 
L 195.306294 210.936169 
L 201.54965 214.597214 
L 207.793007 218.006902 
L 214.036364 221.190296 
L 220.27972 224.169234 
L 226.523077 226.962823 
L 235.888112 230.841875 
L 245.253147 234.389891 
L 254.618182 237.647552 
L 263.983217 240.649131 
L 273.348252 243.423705 
L 282.713287 245.996106 
L 295.2 249.147932 
L 307.686713 252.020707 
L 320.173427 254.649938 
L 332.66014 257.065352 
L 348.268531 259.82177 
L 363.876923 262.323873 
L 379.485315 264.605318 
L 398.215385 267.090831 
L 416.945455 269.338505 
L 435.675524 271.380929 
L 457.527273 273.539962 
L 482.500699 275.754652 
L 498.109091 277.02 
L 498.109091 277.02 
" clip-path="url(#p054922511d)" style="fill: none; stroke: #ff0000; stroke-width: 0.5; stroke-linecap: square"/>
   </g>
   <g id="patch_3">
    <path d="M 72 288.36 
L 72 38.88 
" style="fill: none; stroke: #000000; stroke-width: 0.8; stroke-linejoin: miter; stroke-linecap: square"/>
   </g>
   <g id="patch_4">
    <path d="M 518.4 288.36 
L 518.4 38.88 
" style="fill: none; stroke: #000000; stroke-width: 0.8; stroke-linejoin: miter; stroke-linecap: square"/>
   </g>
   <g id="patch_5">
    <path d="M 72 288.36 
L 518.4 288.36 
" style="fill: none; stroke: #000000; stroke-width: 0.8; stroke-linejoin: miter; stroke-linecap: square"/>
   </g>
   <g id="patch_6">
    <path d="M 72 38.88 
L 518.4 38.88 
" style="fill: none; stroke: #000000; stroke-width: 0.8; stroke-linejoin: miter; stroke-linecap: square"/>
   </g>
   <g id="text_16">
    <!-- Emission angle $\theta_{01}$ vs core radius $a$ -->
    <g transform="translate(189.18 32.88) scale(0.12 -0.12)">
     <defs>
      <path id="DejaVuSans-45" d="M 628 4666 
L 3578 4666 
L 3578 4134 
L 1259 4134 
L 1259 2753 
L 3481 2753 
L 3481 2222 
L 1259 2222 
L 1259 531 
L 3634 531 
L 3634 0 
L 628 0 
L 628 4666 
z
" transform="scale(0.015625)"/>
      <path id="DejaVuSans-76" d="M 191 3500 
L 800 3500 
L 1894 563 
L 2988 3500 
L 3597 3500 
L 2284 0 
L 1503 0 
L 191 3500 
z
" transform="scale(0.015625)"/>
     </defs>
     <use xlink:href="#DejaVuSans-45" transform="translate(0 0.234375)"/>
     <use xlink:href="#DejaVuSans-6d" transform="translate(63.183594 0.234375)"/>
     <use xlink:href="#DejaVuSans-69" transform="translate(160.595703 0.234375)"/>
     <use xlink:href="#DejaVuSans-73" transform="translate(188.378906 0.234375)"/>
     <use xlink:href="#DejaVuSans-73" transform="translate(240.478516 0.234375)"/>
     <use xlink:href="#DejaVuSans-69" transform="translate(292.578125 0.234375)"/>
     <use xlink:href="#DejaVuSans-6f" transform="translate(320.361328 0.234375)"/>
     <use xlink:href="#DejaVuSans-6e" transform="translate(381.542969 0.234375)"/>
     <use xlink:href="#DejaVuSans-20" transform="translate(444.921875 0.234375)"/>
     <use xlink:href="#DejaVuSans-61" transform="translate(476.708984 0.234375)"/>
     <use xlink:href="#DejaVuSans-6e" transform="translate(537.988281 0.234375)"/>
     <use xlink:href="#DejaVuSans-67" transform="translate(601.367188 0.234375)"/>
     <use xlink:href="#DejaVuSans-6c" transform="translate(664.84375 0.234375)"/>
     <use xlink:href="#DejaVuSans-65" transform="translate(692.626953 0.234375)"/>
     <use xlink:href="#DejaVuSans-20" transform="translate(754.150391 0.234375)"/>
     <use xlink:href="#DejaVuSans-Oblique-3b8" transform="translate(785.9375 0.234375)"/>
     <use xlink:href="#DejaVuSans-30" transform="translate(847.119141 -16.171875) scale(0.7)"/>
     <use xlink:href="#DejaVuSans-31" transform="translate(891.655273 -16.171875) scale(0.7)"/>
     <use xlink:href="#DejaVuSans-20" transform="translate(938.925781 0.234375)"/>
     <use xlink:href="#DejaVuSans-76" transform="translate(970.712891 0.234375)"/>
     <use xlink:href="#DejaVuSans-73" transform="translate(1029.892578 0.234375)"/>
     <use xlink:href="#DejaVuSans-20" transform="translate(1081.992188 0.234375)"/>
     <use xlink:href="#DejaVuSans-63" transform="translate(1113.779297 0.234375)"/>
     <use xlink:href="#DejaVuSans-6f" transform="translate(1168.759766 0.234375)"/>
     <use xlink:href="#DejaVuSans-72" transform="translate(1229.941406 0.234375)"/>
     <use xlink:href="#DejaVuSans-65" transform="translate(1271.054688 0.234375)"/>
     <use xlink:href="#DejaVuSans-20" transform="translate(1332.578125 0.234375)"/>
     <use xlink:href="#DejaVuSans-72" transform="translate(1364.365234 0.234375)"/>
     <use xlink:href="#DejaVuSans-61" transform="translate(1405.478516 0.234375)"/>
     <use xlink:href="#DejaVuSans-64" transform="translate(1466.757812 0.234375)"/>
     <use xlink:href="#DejaVuSans-69" transform="translate(1530.234375 0.234375)"/>
     <use xlink:href="#DejaVuSans-75" transform="translate(1558.017578 0.234375)"/>
     <use xlink:href="#DejaVuSans-73" transform="translate(1621.396484 0.234375)"/>
     <use xlink:href="#DejaVuSans-20" transform="translate(1673.496094 0.234375)"/>
     <use xlink:href="#DejaVuSans-Oblique-61" transform="translate(1705.283203 0.234375)"/>
    </g>
   </g>
   <g id="legend_1">
    <g id="patch_7">
     <path d="M 320.8 76.48 
L 511.4 76.48 
Q 513.4 76.48 513.4 74.48 
L 513.4 45.88 
Q 513.4 43.88 511.4 43.88 
L 320.8 43.88 
Q 318.8 43.88 318.8 45.88 
L 318.8 74.48 
Q 318.8 76.48 320.8 76.48 
z
" style="fill: #ffffff; opacity: 0.8; stroke: #cccccc; stroke-linejoin: miter"/>
    </g>
    <g id="line2d_29">
     <g>
      <use xlink:href="#mbb237c3b89" x="332.8" y="52.08" style="fill: #0000ff; stroke: #0000ff"/>
     </g>
    </g>
    <g id="text_17">
     <!-- Angle $\theta_{01}$ using peak finding -->
     <g transform="translate(350.8 55.58) scale(0.1 -0.1)">
      <defs>
       <path id="DejaVuSans-41" d="M 2188 4044 
L 1331 1722 
L 3047 1722 
L 2188 4044 
z
M 1831 4666 
L 2547 4666 
L 4325 0 
L 3669 0 
L 3244 1197 
L 1141 1197 
L 716 0 
L 50 0 
L 1831 4666 
z
" transform="scale(0.015625)"/>
       <path id="DejaVuSans-70" d="M 1159 525 
L 1159 -1331 
L 581 -1331 
L 581 3500 
L 1159 3500 
L 1159 2969 
Q 1341 3281 1617 3432 
Q 1894 3584 2278 3584 
Q 2916 3584 3314 3078 
Q 3713 2572 3713 1747 
Q 3713 922 3314 415 
Q 2916 -91 2278 -91 
Q 1894 -91 1617 61 
Q 1341 213 1159 525 
z
M 3116 1747 
Q 3116 2381 2855 2742 
Q 2594 3103 2138 3103 
Q 1681 3103 1420 2742 
Q 1159 2381 1159 1747 
Q 1159 1113 1420 752 
Q 1681 391 2138 391 
Q 2594 391 2855 752 
Q 3116 1113 3116 1747 
z
" transform="scale(0.015625)"/>
       <path id="DejaVuSans-6b" d="M 581 4863 
L 1159 4863 
L 1159 1991 
L 2875 3500 
L 3609 3500 
L 1753 1863 
L 3688 0 
L 2938 0 
L 1159 1709 
L 1159 0 
L 581 0 
L 581 4863 
z
" transform="scale(0.015625)"/>
       <path id="DejaVuSans-66" d="M 2375 4863 
L 2375 4384 
L 1825 4384 
Q 1516 4384 1395 4259 
Q 1275 4134 1275 3809 
L 1275 3500 
L 2222 3500 
L 2222 3053 
L 1275 3053 
L 1275 0 
L 697 0 
L 697 3053 
L 147 3053 
L 147 3500 
L 697 3500 
L 697 3744 
Q 697 4328 969 4595 
Q 1241 4863 1831 4863 
L 2375 4863 
z
" transform="scale(0.015625)"/>
      </defs>
      <use xlink:href="#DejaVuSans-41" transform="translate(0 0.234375)"/>
      <use xlink:href="#DejaVuSans-6e" transform="translate(68.408203 0.234375)"/>
      <use xlink:href="#DejaVuSans-67" transform="translate(131.787109 0.234375)"/>
      <use xlink:href="#DejaVuSans-6c" transform="translate(195.263672 0.234375)"/>
      <use xlink:href="#DejaVuSans-65" transform="translate(223.046875 0.234375)"/>
      <use xlink:href="#DejaVuSans-20" transform="translate(284.570312 0.234375)"/>
      <use xlink:href="#DejaVuSans-Oblique-3b8" transform="translate(316.357422 0.234375)"/>
      <use xlink:href="#DejaVuSans-30" transform="translate(377.539062 -16.171875) scale(0.7)"/>
      <use xlink:href="#DejaVuSans-31" transform="translate(422.075195 -16.171875) scale(0.7)"/>
      <use xlink:href="#DejaVuSans-20" transform="translate(469.345703 0.234375)"/>
      <use xlink:href="#DejaVuSans-75" transform="translate(501.132812 0.234375)"/>
      <use xlink:href="#DejaVuSans-73" transform="translate(564.511719 0.234375)"/>
      <use xlink:href="#DejaVuSans-69" transform="translate(616.611328 0.234375)"/>
      <use xlink:href="#DejaVuSans-6e" transform="translate(644.394531 0.234375)"/>
      <use xlink:href="#DejaVuSans-67" transform="translate(707.773438 0.234375)"/>
      <use xlink:href="#DejaVuSans-20" transform="translate(771.25 0.234375)"/>
      <use xlink:href="#DejaVuSans-70" transform="translate(803.037109 0.234375)"/>
      <use xlink:href="#DejaVuSans-65" transform="translate(866.513672 0.234375)"/>
      <use xlink:href="#DejaVuSans-61" transform="translate(928.037109 0.234375)"/>
      <use xlink:href="#DejaVuSans-6b" transform="translate(989.316406 0.234375)"/>
      <use xlink:href="#DejaVuSans-20" transform="translate(1047.226562 0.234375)"/>
      <use xlink:href="#DejaVuSans-66" transform="translate(1079.013672 0.234375)"/>
      <use xlink:href="#DejaVuSans-69" transform="translate(1114.21875 0.234375)"/>
      <use xlink:href="#DejaVuSans-6e" transform="translate(1142.001953 0.234375)"/>
      <use xlink:href="#DejaVuSans-64" transform="translate(1205.380859 0.234375)"/>
      <use xlink:href="#DejaVuSans-69" transform="translate(1268.857422 0.234375)"/>
      <use xlink:href="#DejaVuSans-6e" transform="translate(1296.640625 0.234375)"/>
      <use xlink:href="#DejaVuSans-67" transform="translate(1360.019531 0.234375)"/>
     </g>
    </g>
    <g id="line2d_30">
     <path d="M 322.8 66.88 
L 332.8 66.88 
L 342.8 66.88 
" style="fill: none; stroke: #ff0000; stroke-width: 0.5; stroke-linecap: square"/>
    </g>
    <g id="text_18">
     <!-- Angle $\theta_{01}$ using zero bracketing -->
     <g transform="translate(350.8 70.38) scale(0.1 -0.1)">
      <defs>
       <path id="DejaVuSans-7a" d="M 353 3500 
L 3084 3500 
L 3084 2975 
L 922 459 
L 3084 459 
L 3084 0 
L 275 0 
L 275 525 
L 2438 3041 
L 353 3041 
L 353 3500 
z
" transform="scale(0.015625)"/>
      </defs>
      <use xlink:href="#DejaVuSans-41" transform="translate(0 0.234375)"/>
      <use xlink:href="#DejaVuSans-6e" transform="translate(68.408203 0.234375)"/>
      <use xlink:href="#DejaVuSans-67" transform="translate(131.787109 0.234375)"/>
      <use xlink:href="#DejaVuSans-6c" transform="translate(195.263672 0.234375)"/>
      <use xlink:href="#DejaVuSans-65" transform="translate(223.046875 0.234375)"/>
      <use xlink:href="#DejaVuSans-20" transform="translate(284.570312 0.234375)"/>
      <use xlink:href="#DejaVuSans-Oblique-3b8" transform="translate(316.357422 0.234375)"/>
      <use xlink:href="#DejaVuSans-30" transform="translate(377.539062 -16.171875) scale(0.7)"/>
      <use xlink:href="#DejaVuSans-31" transform="translate(422.075195 -16.171875) scale(0.7)"/>
      <use xlink:href="#DejaVuSans-20" transform="translate(469.345703 0.234375)"/>
      <use xlink:href="#DejaVuSans-75" transform="translate(501.132812 0.234375)"/>
      <use xlink:href="#DejaVuSans-73" transform="translate(564.511719 0.234375)"/>
      <use xlink:href="#DejaVuSans-69" transform="translate(616.611328 0.234375)"/>
      <use xlink:href="#DejaVuSans-6e" transform="translate(644.394531 0.234375)"/>
      <use xlink:href="#DejaVuSans-67" transform="translate(707.773438 0.234375)"/>
      <use xlink:href="#DejaVuSans-20" transform="translate(771.25 0.234375)"/>
      <use xlink:href="#DejaVuSans-7a" transform="translate(803.037109 0.234375)"/>
      <use xlink:href="#DejaVuSans-65" transform="translate(855.527344 0.234375)"/>
      <use xlink:href="#DejaVuSans-72" transform="translate(917.050781 0.234375)"/>
      <use xlink:href="#DejaVuSans-6f" transform="translate(958.164062 0.234375)"/>
      <use xlink:href="#DejaVuSans-20" transform="translate(1019.345703 0.234375)"/>
      <use xlink:href="#DejaVuSans-62" transform="translate(1051.132812 0.234375)"/>
      <use xlink:href="#DejaVuSans-72" transform="translate(1114.609375 0.234375)"/>
      <use xlink:href="#DejaVuSans-61" transform="translate(1155.722656 0.234375)"/>
      <use xlink:href="#DejaVuSans-63" transform="translate(1217.001953 0.234375)"/>
      <use xlink:href="#DejaVuSans-6b" transform="translate(1271.982422 0.234375)"/>
      <use xlink:href="#DejaVuSans-65" transform="translate(1329.892578 0.234375)"/>
      <use xlink:href="#DejaVuSans-74" transform="translate(1391.416016 0.234375)"/>
      <use xlink:href="#DejaVuSans-69" transform="translate(1430.625 0.234375)"/>
      <use xlink:href="#DejaVuSans-6e" transform="translate(1458.408203 0.234375)"/>
      <use xlink:href="#DejaVuSans-67" transform="translate(1521.787109 0.234375)"/>
     </g>
    </g>
   </g>
  </g>
 </g>
 <defs>
  <clipPath id="p054922511d">
   <rect x="72" y="38.88" width="446.4" height="249.48"/>
  </clipPath>
 </defs>
</svg>
